<?xml version="1.0" encoding="utf-8"?>
<!-- Generator: Adobe Illustrator 17.0.0, SVG Export Plug-In . SVG Version: 6.00 Build 0)  -->
<!DOCTYPE svg PUBLIC "-//W3C//DTD SVG 1.1//EN" "http://www.w3.org/Graphics/SVG/1.1/DTD/svg11.dtd">
<svg version="1.1" id="Layer_1" xmlns="http://www.w3.org/2000/svg" xmlns:xlink="http://www.w3.org/1999/xlink" x="0px" y="0px"
	 width="100px" height="100px" viewBox="0 0 100 100" enable-background="new 0 0 100 100" xml:space="preserve">
<g>
	<g>
		<path fill="#BADCF4" d="M13.627,38.588c-7.372,0-13.146,9.378-13.693,17.299c2.313,4.015,7.891,5.524,13.693,5.524
			c5.801,0,11.38-1.509,13.692-5.524C26.772,47.967,20.998,38.588,13.627,38.588z"/>
		<path fill="#70C167" d="M25.393,54.001c0,0-1.628-3.52-3.283-5.573c-1.656-2.054-3.678-4.291-4.874-4.291
			c-1.195,0-4.536,5.915-6.068,5.915c-1.533,0-2.33-2.681-4.214-2.681c-1.885,0-4.881,6.466-4.881,6.466L1.87,54.932
			c0,0,1.041,4.613,11.927,4.613c10.887,0,11.757-4.538,11.757-4.538L25.393,54.001z"/>
		<g>
			<path fill="#1BAD4B" d="M11.338,52.575c-1.691,0-2.557-1.668-3.027-2.698c-0.423-0.927-0.496-2.392-1.695-2.433
				c0.118-0.047,0.231-0.074,0.338-0.074c1.885,0,2.681,2.681,4.214,2.681c1.533,0,4.873-5.915,6.068-5.915
				c0.225,0,0.479,0.079,0.754,0.221c-0.204-0.027-0.464-0.008-0.665,0.194C16.938,44.937,13.431,52.575,11.338,52.575z"/>
		</g>
	</g>
	<path fill="#010101" d="M35.686,55.978h-3.275V44.567h3.324c2.563,0,3.787,1.158,3.787,2.96c0,1.191-0.662,1.968-1.654,2.382
		c1.274,0.397,2.117,1.224,2.117,2.745C39.986,54.903,38.366,55.978,35.686,55.978z M35.62,46.237h-1.108v3.026h1.009
		c1.29,0,1.968-0.579,1.968-1.555C37.489,46.8,36.943,46.237,35.62,46.237z M35.653,50.818h-1.141v3.49h1.174
		c1.389,0,2.2-0.579,2.2-1.72C37.886,51.43,37.109,50.818,35.653,50.818z M45.89,55.978l-0.165-1.042
		c-0.645,0.678-1.472,1.207-2.663,1.207c-1.356,0-2.266-0.827-2.266-2.216c0-1.935,1.588-2.779,4.813-3.093v-0.232
		c0-0.86-0.496-1.191-1.373-1.191c-0.926,0-1.803,0.264-2.663,0.645l-0.248-1.588c0.926-0.364,1.902-0.645,3.175-0.645
		c2.067,0,3.093,0.761,3.093,2.679v5.474H45.89z M45.609,51.992c-2.299,0.281-2.845,0.959-2.845,1.72
		c0,0.579,0.364,0.926,0.976,0.926c0.678,0,1.323-0.314,1.869-0.86V51.992z M51.926,56.127c-1.158,0-2.348-0.364-3.109-0.777
		l0.265-1.654c0.86,0.562,1.918,0.943,2.911,0.943c0.86,0,1.323-0.314,1.323-0.827c0-0.562-0.347-0.794-1.621-1.108
		c-1.935-0.496-2.745-1.058-2.745-2.514c0-1.373,1.091-2.349,2.944-2.349c1.042,0,2.001,0.198,2.795,0.562l-0.265,1.654
		c-0.794-0.447-1.736-0.728-2.53-0.728c-0.744,0-1.108,0.281-1.108,0.728c0,0.43,0.298,0.661,1.488,0.976
		c2.067,0.529,2.878,1.091,2.878,2.596C55.151,55.201,54.026,56.127,51.926,56.127z M63.072,52.373h-5.127
		c0.099,1.555,0.926,2.233,2.15,2.233c1.025,0,1.869-0.38,2.746-0.992l0.231,1.554c-0.86,0.596-1.902,0.976-3.192,0.976
		c-2.233,0-3.903-1.273-3.903-4.151c0-2.597,1.555-4.168,3.638-4.168c2.398,0,3.473,1.803,3.473,4.068
		C63.089,52.059,63.072,52.257,63.072,52.373z M59.566,49.197c-0.794,0-1.439,0.629-1.588,1.935h3.175
		C61.021,49.892,60.525,49.197,59.566,49.197z M68.066,56.127c-2.216,0-3.787-1.489-3.787-4.102c0-2.778,1.736-4.201,3.853-4.201
		c1.075,0,1.869,0.281,2.497,0.678l-0.281,1.786c-0.678-0.512-1.323-0.744-2.1-0.744c-1.141,0-1.968,0.844-1.968,2.431
		c0,1.654,0.893,2.448,2.1,2.448c0.695,0,1.323-0.182,2.067-0.761l0.265,1.687C69.902,55.912,69.075,56.127,68.066,56.127z
		 M76.285,55.978l-0.165-1.042c-0.645,0.678-1.472,1.207-2.663,1.207c-1.356,0-2.265-0.827-2.265-2.216
		c0-1.935,1.588-2.779,4.813-3.093v-0.232c0-0.86-0.496-1.191-1.373-1.191c-0.926,0-1.803,0.264-2.663,0.645L71.72,48.47
		c0.926-0.364,1.902-0.645,3.175-0.645c2.067,0,3.093,0.761,3.093,2.679v5.474H76.285z M76.004,51.992
		c-2.299,0.281-2.845,0.959-2.845,1.72c0,0.579,0.364,0.926,0.976,0.926c0.678,0,1.323-0.314,1.869-0.86V51.992z M89.102,55.978
		v-5.226c0-0.695-0.248-1.174-0.976-1.174c-0.612,0-1.191,0.397-1.77,0.992v5.408h-1.985v-5.226c0-0.695-0.264-1.174-0.992-1.174
		c-0.612,0-1.191,0.397-1.769,0.992v5.408h-1.985V47.99h1.687l0.182,1.124c0.744-0.711,1.555-1.29,2.629-1.29
		c1.141,0,1.753,0.512,2.051,1.29c0.711-0.711,1.588-1.29,2.662-1.29c1.505,0,2.249,0.909,2.249,2.398v5.755H89.102z M96.576,56.061
		c-0.761,0-1.373-0.132-1.852-0.314v3.01l-1.985,0.298V47.99h1.687l0.182,1.092c0.562-0.645,1.34-1.257,2.448-1.257
		c1.67,0,3.01,1.257,3.01,3.936C100.066,54.738,98.412,56.061,96.576,56.061z M96.526,49.578c-0.711,0-1.273,0.447-1.803,1.124
		v3.423c0.479,0.232,0.86,0.347,1.538,0.347c1.026,0,1.803-0.844,1.803-2.597C98.065,50.338,97.42,49.578,96.526,49.578z"/>
</g>
</svg>
