<?xml version="1.0" encoding="utf-8"?>
<!-- Generator: Adobe Illustrator 17.0.0, SVG Export Plug-In . SVG Version: 6.00 Build 0)  -->
<!DOCTYPE svg PUBLIC "-//W3C//DTD SVG 1.1//EN" "http://www.w3.org/Graphics/SVG/1.1/DTD/svg11.dtd">
<svg version="1.1" id="Layer_1" xmlns="http://www.w3.org/2000/svg" xmlns:xlink="http://www.w3.org/1999/xlink" x="0px" y="0px"
	 width="64.5px" height="75.708px" viewBox="0 0 64.5 75.708" enable-background="new 0 0 64.5 75.708" xml:space="preserve">
<path fill="#F1B500" d="M59.5,14.688c-2.154,0-4.258,0.216-6.295,0.621C50.447,6.355,42.097-0.172,32.25-0.172
	S14.053,6.355,11.295,15.309C9.258,14.904,7.154,14.688,5,14.688H0v28.917c0,16.082,11.833,29.451,27.25,31.861
	c0,0,1.812,0.242,5,0.242s5-0.242,5-0.242c15.417-2.41,27.25-15.778,27.25-31.861V14.688H59.5z M10,43.604v-18.35
	c9.869,2.275,17.25,11.133,17.25,21.684v18.35C17.381,63.013,10,54.154,10,43.604z M20.715,18.79
	c1.321-5.144,5.984-8.962,11.535-8.962s10.213,3.818,11.535,8.962c-4.693,2.631-8.661,6.399-11.535,10.931
	C29.377,25.19,25.408,21.421,20.715,18.79z M54.5,43.604c0,10.55-7.381,19.409-17.25,21.684v-18.35
	c0-10.55,7.381-19.409,17.25-21.684V43.604z"/>
</svg>
