<?xml version="1.0" encoding="utf-8"?>
<!-- Generator: Adobe Illustrator 17.0.0, SVG Export Plug-In . SVG Version: 6.00 Build 0)  -->
<!DOCTYPE svg PUBLIC "-//W3C//DTD SVG 1.1//EN" "http://www.w3.org/Graphics/SVG/1.1/DTD/svg11.dtd">
<svg version="1.1" id="Layer_1" xmlns="http://www.w3.org/2000/svg" xmlns:xlink="http://www.w3.org/1999/xlink" x="0px" y="0px"
	 width="100px" height="100px" viewBox="0 0 100 100" enable-background="new 0 0 100 100" xml:space="preserve">
<g>
	<rect x="38.166" y="43.379" fill="#3E3C42" width="2.029" height="2.628"/>
	<path fill="#3E3C42" d="M18.966,47.443c-1.496,0-2.623,0.728-3.176,1.739v-1.456h-3.299v1.719h1.516v5.175h-1.926v1.718h6.762
		V54.62h-3.032v-2.224c0-2.102,1.496-3.255,3.074-3.255c0.676,0,1.188,0.404,1.393,1.092l1.721-0.486
		C21.691,48.393,20.646,47.443,18.966,47.443z"/>
	<path fill="#3E3C42" d="M7.901,50.273c0.984-0.384,1.762-1.193,1.762-2.507c0-2.001-1.536-3.153-4.057-3.153H0.115v1.719h1.372
		v8.289H0.115v1.718h5.778c2.745,0,4.426-1.193,4.426-3.336C10.319,51.647,9.315,50.657,7.901,50.273z M3.373,46.331L3.373,46.331
		l2.029-0.001c1.537,0,2.356,0.546,2.356,1.597c0,1.031-0.799,1.597-2.336,1.597H3.373V46.331z M5.709,54.62H3.373v-3.437h2.192
		c1.885,0,2.848,0.606,2.848,1.718C8.414,54.033,7.512,54.62,5.709,54.62z"/>
	<path fill="#3E3C42" d="M55.174,50.617c0-1.961-1.394-3.174-3.34-3.174c-1.352,0-2.458,0.546-2.991,1.395v-1.112h-3.033v1.719h1.25
		v5.175h-1.332v1.718h4.528V54.62h-1.393v-2.871c0-1.557,1.373-2.568,2.745-2.568c0.84,0,1.762,0.424,1.762,1.92v3.518h-1.393v1.718
		h4.528v-1.718h-1.331V50.617z"/>
	<path fill="#3E3C42" d="M84.004,47.443c-2.766,0-4.754,1.941-4.754,4.589c0,2.648,2.049,4.589,4.979,4.589
		c1.783,0,3.381-0.667,4.282-1.597l-1.208-1.253c-0.616,0.667-1.742,1.193-3.053,1.193c-1.578,0-2.787-0.869-3.094-2.305h7.52
		v-0.303C88.676,49.525,86.75,47.443,84.004,47.443z M81.238,51.142c0.307-1.213,1.372-2.062,2.766-2.062
		c1.23,0,2.336,0.829,2.602,2.062H81.238z"/>
	<path fill="#3E3C42" d="M31.342,50.778c0-2.183-1.701-3.336-3.893-3.336c-1.762,0-2.93,0.687-3.75,1.435l1.188,1.273
		c0.697-0.627,1.558-1.031,2.561-1.031c1.065,0,2.049,0.505,2.049,1.719v0.485c-0.594-0.162-1.372-0.344-2.316-0.344
		c-1.926,0-4.036,0.808-4.036,2.931c0,1.799,1.558,2.709,3.361,2.709c1.25,0,2.52-0.445,2.991-1.193v0.91h3.115V54.62h-1.271V50.778
		z M29.498,52.86v0.242c0,1.213-1.496,1.921-2.828,1.921c-0.963,0-1.659-0.364-1.659-1.132c0-1.031,1.107-1.395,2.254-1.395
		C28.065,52.496,28.925,52.658,29.498,52.86L29.498,52.86z"/>
	<path fill="#3E3C42" d="M75.07,47.443c-1.496,0-2.623,0.728-3.176,1.739v-1.456h-3.299v1.719h1.516v5.175h-1.926v1.718h6.762V54.62
		h-3.033v-2.224c0-2.102,1.496-3.255,3.074-3.255c0.676,0,1.188,0.404,1.393,1.092l1.721-0.486
		C77.795,48.393,76.749,47.443,75.07,47.443z"/>
	<path fill="#3E3C42" d="M99.885,52.355c0-2.83-1.927-4.912-4.672-4.912c-2.766,0-4.754,1.941-4.754,4.589
		c0,2.648,2.049,4.589,4.979,4.589c1.782,0,3.381-0.667,4.282-1.597l-1.208-1.253c-0.615,0.667-1.742,1.193-3.053,1.193
		c-1.578,0-2.787-0.869-3.094-2.305h7.521V52.355z M92.446,51.142c0.307-1.213,1.373-2.062,2.766-2.062
		c1.229,0,2.336,0.829,2.602,2.062H92.446z"/>
	<path fill="#3E3C42" d="M62.817,54.943c-1.086,0-2.029-0.546-2.029-1.881v-3.619h4.241v-1.718h-4.241v-3.113h-1.803v3.113H56.71
		v1.718h2.274h0.001v3.68c0,2.304,1.64,3.497,3.832,3.497c1.701,0,2.93-0.789,3.729-1.638l-1.209-1.233
		C64.702,54.377,63.841,54.943,62.817,54.943z"/>
	<polygon fill="#3E3C42" points="40.195,47.726 35.605,47.726 35.605,49.444 38.392,49.444 38.392,54.62 34.745,54.62 
		34.745,56.338 43.555,56.338 43.555,54.62 43.555,54.619 40.195,54.619 	"/>
</g>
</svg>
