<?xml version="1.0" encoding="utf-8"?>
<!-- Generator: Adobe Illustrator 17.0.0, SVG Export Plug-In . SVG Version: 6.00 Build 0)  -->
<!DOCTYPE svg PUBLIC "-//W3C//DTD SVG 1.1//EN" "http://www.w3.org/Graphics/SVG/1.1/DTD/svg11.dtd">
<svg version="1.1" id="Layer_1" xmlns="http://www.w3.org/2000/svg" xmlns:xlink="http://www.w3.org/1999/xlink" x="0px" y="0px"
	 width="100px" height="100px" viewBox="0 0 100 100" enable-background="new 0 0 100 100" xml:space="preserve">
<g>
	<rect x="1.044" y="42.221" fill="#FFFFFF" width="15.553" height="11.054"/>
	<g>
		<path fill="#51AD47" d="M22.284,43.877h6.949c3.826,0,5.481,2.218,5.481,5.575c0,3.357-1.718,5.575-5.215,5.575h-7.214V43.877z
			 M25.314,52.903h3.373c1.999,0,2.904-1.202,2.904-3.561c0-2.061-0.874-3.341-3.185-3.341h-3.092V52.903z"/>
		<path fill="#51AD47" d="M36.325,46.656h2.654v1.639h0.031c0.999-1.28,1.78-1.858,3.341-1.858c0.312,0,0.687,0.016,0.999,0.078
			v2.577c-0.5-0.141-0.999-0.25-1.515-0.25c-1.874,0-2.764,0.953-2.764,2.577v3.607h-2.748V46.656z"/>
		<path fill="#2AA1A3" d="M44.555,43.877H54.97v2.124h-7.386v2.311h7.011v2.03h-7.011v2.561h7.448v2.123H44.555V43.877z"/>
		<path fill="#2AA1A3" d="M64.201,53.98h-0.031c-0.89,1.077-2.061,1.358-3.311,1.358c-2.608,0-4.668-1.483-4.668-4.403
			c0-2.717,2.03-4.497,4.668-4.497c1.546,0,2.686,0.5,3.217,1.249h0.031v-3.997h2.748v11.337h-2.654V53.98z M61.624,53.308
			c1.374,0,2.577-0.828,2.577-2.42c0-1.593-1.202-2.42-2.577-2.42c-1.389,0-2.592,0.827-2.592,2.42
			C59.032,52.481,60.235,53.308,61.624,53.308z"/>
	</g>
	<path fill="#2AA1A3" d="M17.683,54.341V40.938H-0.042v13.403h6.06v1.564H1.392v2.236h14.857v-2.236h-4.627v-1.564H17.683z
		 M2.304,51.995v-8.711h13.033v8.711H2.304z"/>
	<path fill="#51AD47" d="M8.821,44.099c-2.015,0-3.649,1.634-3.649,3.649c0,2.015,1.634,3.649,3.649,3.649
		c2.015,0,3.649-1.634,3.649-3.649C12.47,45.732,10.836,44.099,8.821,44.099z M9.7,48.628v2.118H7.941v-2.118H5.823v-1.759h2.118
		V44.75H9.7v2.118h2.118v1.759H9.7z"/>
	<g>
		<path fill="#51AD47" d="M71.384,53.197v1.875h-2.157v-1.875H71.384z"/>
		<path fill="#51AD47" d="M76.357,49.909c-0.312,0-0.573,0.063-0.784,0.189c-0.211,0.126-0.382,0.288-0.515,0.487
			c-0.133,0.199-0.227,0.418-0.282,0.658c-0.055,0.24-0.082,0.477-0.082,0.712c0,0.228,0.027,0.459,0.082,0.694
			c0.055,0.236,0.145,0.449,0.268,0.639c0.123,0.191,0.29,0.347,0.501,0.469c0.21,0.122,0.467,0.183,0.769,0.183
			c0.467,0,0.826-0.116,1.078-0.347c0.252-0.231,0.41-0.542,0.474-0.932h1.882c-0.128,0.836-0.494,1.473-1.099,1.912
			c-0.604,0.438-1.379,0.658-2.321,0.658c-0.532,0-1.019-0.079-1.463-0.237c-0.444-0.158-0.822-0.38-1.134-0.664
			c-0.311-0.284-0.554-0.623-0.728-1.017c-0.174-0.394-0.261-0.826-0.261-1.297c0-0.487,0.08-0.94,0.241-1.358
			c0.16-0.418,0.396-0.779,0.707-1.083c0.312-0.304,0.692-0.542,1.14-0.713c0.449-0.17,0.962-0.256,1.539-0.256
			c0.421,0,0.826,0.049,1.216,0.146c0.389,0.098,0.737,0.246,1.044,0.444c0.306,0.199,0.556,0.446,0.749,0.743
			c0.192,0.296,0.302,0.648,0.329,1.053h-1.91C77.671,50.271,77.191,49.909,76.357,49.909z"/>
		<path fill="#51AD47" d="M80.89,50.561c0.174-0.41,0.421-0.759,0.742-1.047c0.321-0.288,0.706-0.512,1.154-0.669
			c0.449-0.158,0.953-0.238,1.512-0.238c0.558,0,1.065,0.079,1.518,0.238c0.453,0.158,0.84,0.381,1.161,0.669
			c0.32,0.288,0.568,0.637,0.742,1.047c0.174,0.41,0.261,0.866,0.261,1.369c0,0.503-0.087,0.958-0.261,1.364
			c-0.174,0.406-0.422,0.753-0.742,1.041c-0.321,0.288-0.708,0.51-1.161,0.663c-0.454,0.154-0.96,0.232-1.518,0.232
			c-0.559,0-1.063-0.077-1.512-0.232c-0.449-0.154-0.833-0.375-1.154-0.663c-0.321-0.288-0.568-0.635-0.742-1.041
			c-0.174-0.406-0.261-0.86-0.261-1.364C80.629,51.427,80.716,50.971,80.89,50.561z M82.662,52.667
			c0.055,0.24,0.149,0.455,0.282,0.646c0.132,0.191,0.309,0.343,0.528,0.457c0.22,0.114,0.495,0.171,0.825,0.171
			c0.329,0,0.606-0.057,0.831-0.171c0.225-0.114,0.403-0.266,0.536-0.457c0.132-0.191,0.227-0.406,0.282-0.646
			c0.055-0.239,0.082-0.485,0.082-0.737c0-0.251-0.027-0.499-0.082-0.743c-0.055-0.243-0.149-0.458-0.282-0.645
			c-0.133-0.187-0.312-0.339-0.536-0.457c-0.225-0.118-0.501-0.177-0.831-0.177c-0.33,0-0.605,0.059-0.825,0.177
			c-0.219,0.118-0.396,0.27-0.528,0.457c-0.133,0.187-0.227,0.402-0.282,0.645c-0.055,0.244-0.082,0.491-0.082,0.743
			C82.58,52.182,82.607,52.428,82.662,52.667z"/>
		<path fill="#51AD47" d="M91.139,48.777v0.852h0.027c0.257-0.324,0.566-0.576,0.928-0.755c0.361-0.178,0.776-0.268,1.243-0.268
			c0.449,0,0.859,0.077,1.229,0.232c0.371,0.154,0.653,0.426,0.845,0.816c0.21-0.276,0.496-0.519,0.858-0.731
			c0.362-0.211,0.79-0.317,1.285-0.317c0.375,0,0.723,0.041,1.044,0.122c0.321,0.081,0.596,0.211,0.825,0.39
			c0.229,0.179,0.407,0.412,0.536,0.7c0.128,0.288,0.192,0.635,0.192,1.041v4.213h-1.951v-3.568c0-0.211-0.009-0.41-0.027-0.597
			c-0.018-0.186-0.069-0.349-0.151-0.487c-0.082-0.138-0.204-0.248-0.364-0.329c-0.16-0.081-0.378-0.122-0.653-0.122
			c-0.275,0-0.497,0.047-0.666,0.139c-0.17,0.094-0.302,0.216-0.398,0.366c-0.096,0.15-0.16,0.321-0.192,0.512
			S95.7,51.37,95.7,51.565v3.507h-1.95v-3.531c0-0.187-0.005-0.371-0.014-0.554c-0.01-0.183-0.048-0.351-0.117-0.506
			c-0.069-0.154-0.183-0.278-0.343-0.372c-0.16-0.093-0.397-0.139-0.708-0.139c-0.092,0-0.213,0.018-0.364,0.055
			c-0.151,0.036-0.298,0.105-0.44,0.207c-0.142,0.102-0.263,0.247-0.364,0.438s-0.151,0.44-0.151,0.749v3.653h-1.951v-6.295H91.139z
			"/>
	</g>
</g>
</svg>
