<?xml version="1.0" encoding="utf-8"?>
<!-- Generator: Adobe Illustrator 17.0.0, SVG Export Plug-In . SVG Version: 6.00 Build 0)  -->
<!DOCTYPE svg PUBLIC "-//W3C//DTD SVG 1.1//EN" "http://www.w3.org/Graphics/SVG/1.1/DTD/svg11.dtd">
<svg version="1.1" id="Layer_1" xmlns="http://www.w3.org/2000/svg" xmlns:xlink="http://www.w3.org/1999/xlink" x="0px" y="0px"
	 width="100px" height="100px" viewBox="0 0 100 100" enable-background="new 0 0 100 100" xml:space="preserve">
<g>
	<polygon fill="#1D242C" points="32.635,50.368 38.657,50.368 38.657,48.816 32.635,48.816 32.635,45.131 39.373,45.131 
		39.373,43.578 31.031,43.578 31.031,55.759 39.595,55.759 39.595,54.224 32.635,54.224 	"/>
	<polygon fill="#1D242C" points="50.889,52.943 43.904,43.578 42.308,43.578 42.308,55.759 43.912,55.759 43.912,46.411 
		50.897,55.759 52.476,55.759 52.476,43.578 50.889,43.578 	"/>
	<path fill="#1D242C" d="M60.649,43.578h-4.606v12.181h1.604v-3.77h3.002c3.036,0,4.777-1.561,4.777-4.282
		C65.425,45.083,63.684,43.578,60.649,43.578z M60.597,50.436h-2.951v-5.306h2.951c2.143,0,3.275,0.902,3.275,2.61
		C63.873,49.479,62.71,50.436,60.597,50.436z"/>
	<polygon fill="#1D242C" points="69.231,43.578 67.627,43.578 67.627,55.759 74.468,55.759 74.468,54.224 69.231,54.224 	"/>
	<path fill="#1D242C" d="M85.012,50.726c0,2.222-1.314,3.549-3.514,3.549c-2.222,0-3.549-1.326-3.549-3.549v-7.148h-1.604v7.148
		c0,3.194,1.926,5.101,5.152,5.101c3.205,0,5.118-1.907,5.118-5.101v-7.148h-1.604V50.726z"/>
	<path fill="#1D242C" d="M99.667,49.686l-4.807,0.017v1.45h3.357v2.188c-0.904,0.604-2.003,0.95-3.02,0.95
		c-2.653,0-4.811-2.074-4.811-4.623c0-2.54,2.15-4.606,4.794-4.606c1.288,0,2.577,0.492,3.537,1.351l0.096,0.086l0.931-1.214
		l-0.084-0.074c-1.203-1.06-2.836-1.668-4.48-1.668c-3.597,0-6.415,2.69-6.415,6.125c0,3.453,2.788,6.158,6.346,6.158
		c1.571,0,3.257-0.596,4.533-1.613l0.023-0.018v-4.49l0.002-0.003h-0.002V49.686z"/>
	<path fill="#1D242C" d="M6.312,49.243c1.672,0,3.187-0.678,4.283-1.774l0.005,0.005l4.288-4.287L10.6,38.899l-0.005,0.005
		c-1.096-1.096-2.61-1.774-4.283-1.774c-3.345,0-6.056,2.712-6.056,6.056S2.967,49.243,6.312,49.243z M6.312,40.158
		c1.672,0,3.028,1.356,3.028,3.028c0,1.672-1.356,3.028-3.028,3.028c-1.672,0-3.028-1.356-3.028-3.028
		C3.284,41.514,4.64,40.158,6.312,40.158z"/>
	<path fill="#1D242C" d="M18.752,43.944c-1.672,0-3.186,0.678-4.282,1.774l-0.005-0.005L10.177,50l4.288,4.287l0.005-0.005
		c1.096,1.096,2.61,1.774,4.283,1.774c3.345,0,6.056-2.712,6.056-6.056C24.808,46.655,22.097,43.944,18.752,43.944z M18.752,53.028
		c-1.672,0-3.028-1.356-3.028-3.028c0-1.672,1.356-3.028,3.028-3.028c1.672,0,3.028,1.356,3.028,3.028
		C21.78,51.672,20.424,53.028,18.752,53.028z"/>
	<path fill="#1D242C" d="M10.595,52.531c-1.096-1.096-2.61-1.774-4.283-1.774c-3.345,0-6.056,2.712-6.056,6.056
		s2.712,6.056,6.056,6.056c1.672,0,3.187-0.678,4.283-1.774l0.005,0.005l4.288-4.287L10.6,52.526L10.595,52.531z M6.312,59.842
		c-1.672,0-3.028-1.356-3.028-3.028c0-1.672,1.356-3.028,3.028-3.028c1.672,0,3.028,1.356,3.028,3.028
		C9.34,58.486,7.985,59.842,6.312,59.842z"/>
</g>
</svg>
