<?xml version="1.0" encoding="utf-8"?>
<!-- Generator: Adobe Illustrator 17.0.0, SVG Export Plug-In . SVG Version: 6.00 Build 0)  -->
<!DOCTYPE svg PUBLIC "-//W3C//DTD SVG 1.1//EN" "http://www.w3.org/Graphics/SVG/1.1/DTD/svg11.dtd">
<svg version="1.1" id="Layer_1" xmlns="http://www.w3.org/2000/svg" xmlns:xlink="http://www.w3.org/1999/xlink" x="0px" y="0px"
	 width="100px" height="100px" viewBox="0 0 100 100" enable-background="new 0 0 100 100" xml:space="preserve">
<g>
	<linearGradient id="SVGID_1_" gradientUnits="userSpaceOnUse" x1="1.7212" y1="50.8311" x2="15.0747" y2="37.4775">
		<stop  offset="0" style="stop-color:#58CBF5"/>
		<stop  offset="1" style="stop-color:#427CBF"/>
	</linearGradient>
	<path fill="url(#SVGID_1_)" d="M9.35,39.482l-8.401,8.401c-1.169,1.169-1.169,3.065,0,4.234l1.603,1.603L13.07,43.202L9.35,39.482z
		"/>
	<linearGradient id="SVGID_2_" gradientUnits="userSpaceOnUse" x1="2.5444" y1="49.9922" x2="14.486" y2="61.9338">
		<stop  offset="0" style="stop-color:#A83D97"/>
		<stop  offset="1" style="stop-color:#CE82B7"/>
	</linearGradient>
	<path fill="url(#SVGID_2_)" d="M6.26,49.988l-3.72,3.72l8.413,8.413c1.169,1.169,3.065,1.169,4.234,0l1.603-1.603L6.26,49.988z"/>
	<linearGradient id="SVGID_3_" gradientUnits="userSpaceOnUse" x1="24.261" y1="49.3265" x2="11.5733" y2="62.0142">
		<stop  offset="0" style="stop-color:#F1A3B2"/>
		<stop  offset="1" style="stop-color:#EC406E"/>
	</linearGradient>
	<path fill="url(#SVGID_3_)" d="M25.19,47.883l-1.603-1.603L13.07,56.798l3.72,3.72l8.401-8.401
		C26.36,50.948,26.36,49.052,25.19,47.883z"/>
	<linearGradient id="SVGID_4_" gradientUnits="userSpaceOnUse" x1="11.3121" y1="37.7245" x2="25.0763" y2="51.4887">
		<stop  offset="0" style="stop-color:#F7D80F"/>
		<stop  offset="1" style="stop-color:#F08A22"/>
	</linearGradient>
	<path fill="url(#SVGID_4_)" d="M23.588,46.28l-8.401-8.401c-1.169-1.169-3.065-1.169-4.234,0L9.35,39.482L19.868,50L23.588,46.28z"
		/>
</g>
<g>
	<path d="M31.792,45.727h6.807v2.066H34.15v1.434h4.024v1.969H34.15v3.039h-2.358V45.727z"/>
	<path d="M43.498,54.394c-0.608,0-1.155-0.077-1.641-0.231c-0.486-0.154-0.9-0.391-1.24-0.711c-0.341-0.32-0.602-0.725-0.784-1.215
		c-0.182-0.49-0.273-1.068-0.273-1.732v-4.777h2.407v4.728c0,0.616,0.14,1.072,0.422,1.368c0.281,0.296,0.659,0.444,1.134,0.444
		c0.475,0,0.852-0.142,1.134-0.426c0.281-0.284,0.422-0.725,0.422-1.325v-4.789h2.407v4.716c0,0.689-0.095,1.283-0.286,1.781
		c-0.191,0.499-0.458,0.908-0.802,1.228c-0.345,0.32-0.762,0.557-1.252,0.711C44.655,54.317,44.106,54.394,43.498,54.394z"/>
	<path d="M48.883,45.727h2.205l3.508,4.498v-4.498h2.322v8.509h-2.071l-3.643-4.668v4.668h-2.322V45.727z"/>
	<path d="M58.426,45.727h3.282c0.762,0,1.441,0.103,2.036,0.31c0.596,0.207,1.098,0.496,1.508,0.869
		c0.409,0.373,0.721,0.816,0.936,1.331c0.215,0.515,0.322,1.08,0.322,1.696v0.024c0,0.616-0.109,1.186-0.328,1.708
		c-0.219,0.523-0.535,0.974-0.948,1.355c-0.413,0.381-0.922,0.679-1.526,0.894c-0.604,0.215-1.286,0.322-2.048,0.322h-3.233V45.727z
		 M61.748,52.146c0.708,0,1.277-0.186,1.708-0.559c0.431-0.373,0.647-0.904,0.647-1.593V49.97c0-0.681-0.216-1.21-0.647-1.587
		c-0.431-0.377-1.001-0.565-1.708-0.565h-0.964v4.328H61.748z"/>
	<path d="M76.211,54.236H74.63l-0.863-2.054h-4.023l-0.875,2.054h-1.532l3.744-8.57h1.385L76.211,54.236z M71.749,47.453
		l-1.459,3.404h2.931L71.749,47.453z"/>
	<path d="M83.99,49.848c-0.179,0.365-0.423,0.669-0.731,0.911c-0.309,0.243-0.671,0.428-1.085,0.553
		c-0.414,0.126-0.857,0.189-1.328,0.189h-1.694v2.735H77.67v-8.509h3.355c0.494,0,0.942,0.066,1.343,0.2
		c0.401,0.134,0.741,0.326,1.021,0.577c0.28,0.252,0.494,0.551,0.644,0.899c0.15,0.349,0.225,0.742,0.225,1.18
		C84.258,49.062,84.169,49.484,83.99,49.848z M82.239,47.461c-0.334-0.256-0.781-0.384-1.342-0.384h-1.745v3.076h1.745
		c0.569,0,1.018-0.14,1.348-0.421c0.329-0.281,0.494-0.653,0.494-1.117C82.739,48.102,82.572,47.717,82.239,47.461z"/>
	<path d="M92.11,49.848c-0.179,0.365-0.423,0.669-0.731,0.911c-0.309,0.243-0.671,0.428-1.085,0.553
		c-0.414,0.126-0.857,0.189-1.328,0.189h-1.694v2.735H85.79v-8.509h3.355c0.494,0,0.942,0.066,1.343,0.2
		c0.401,0.134,0.741,0.326,1.021,0.577c0.28,0.252,0.494,0.551,0.644,0.899c0.15,0.349,0.225,0.742,0.225,1.18
		C92.379,49.062,92.289,49.484,92.11,49.848z M90.359,47.461c-0.334-0.256-0.781-0.384-1.342-0.384h-1.745v3.076h1.745
		c0.569,0,1.018-0.14,1.348-0.421c0.329-0.281,0.494-0.653,0.494-1.117C90.859,48.102,90.692,47.717,90.359,47.461z"/>
	<path d="M95.248,48.389c0.057,0.122,0.16,0.235,0.31,0.341c0.15,0.105,0.358,0.203,0.622,0.292
		c0.264,0.089,0.599,0.182,1.006,0.279c0.447,0.114,0.843,0.239,1.188,0.377c0.346,0.138,0.632,0.306,0.859,0.505
		c0.227,0.198,0.4,0.43,0.518,0.693c0.118,0.264,0.177,0.573,0.177,0.93c0,0.405-0.074,0.766-0.223,1.082
		c-0.149,0.316-0.356,0.584-0.621,0.802c-0.265,0.219-0.584,0.385-0.956,0.498c-0.372,0.114-0.781,0.171-1.227,0.171
		c-0.656,0-1.285-0.112-1.884-0.335c-0.6-0.223-1.155-0.565-1.666-1.027l0.9-1.07c0.413,0.357,0.831,0.63,1.252,0.821
		c0.421,0.19,0.899,0.286,1.434,0.286c0.462,0,0.829-0.098,1.1-0.292c0.272-0.195,0.407-0.458,0.407-0.79
		c0-0.154-0.026-0.292-0.079-0.413c-0.053-0.122-0.15-0.233-0.293-0.335c-0.142-0.101-0.338-0.196-0.585-0.285
		c-0.248-0.09-0.571-0.183-0.969-0.28c-0.455-0.105-0.859-0.223-1.213-0.353c-0.353-0.13-0.65-0.292-0.889-0.486
		c-0.24-0.194-0.423-0.429-0.549-0.705c-0.126-0.276-0.189-0.612-0.189-1.009c0-0.373,0.072-0.711,0.217-1.015
		c0.145-0.304,0.344-0.565,0.597-0.784c0.254-0.219,0.558-0.387,0.914-0.505c0.356-0.117,0.744-0.176,1.166-0.176
		c0.624,0,1.186,0.091,1.684,0.274c0.499,0.182,0.967,0.448,1.404,0.796l-0.802,1.131c-0.389-0.284-0.774-0.501-1.155-0.65
		c-0.381-0.15-0.766-0.225-1.155-0.225c-0.438,0-0.778,0.099-1.021,0.298c-0.243,0.199-0.365,0.44-0.365,0.723
		C95.162,48.122,95.191,48.268,95.248,48.389z"/>
</g>
</svg>
