<?xml version="1.0" encoding="utf-8"?>
<!-- Generator: Adobe Illustrator 17.0.0, SVG Export Plug-In . SVG Version: 6.00 Build 0)  -->
<!DOCTYPE svg PUBLIC "-//W3C//DTD SVG 1.1//EN" "http://www.w3.org/Graphics/SVG/1.1/DTD/svg11.dtd">
<svg version="1.1" id="Layer_1" xmlns="http://www.w3.org/2000/svg" xmlns:xlink="http://www.w3.org/1999/xlink" x="0px" y="0px"
	 width="100px" height="100px" viewBox="0 0 100 100" enable-background="new 0 0 100 100" xml:space="preserve">
<g>
	<path fill="#0F0D0E" d="M49.181,48.775h-5.289c-0.136,0-0.247,0.111-0.247,0.247v2.586c0,0.136,0.111,0.248,0.247,0.248h2.063
		v3.213c0,0-0.463,0.158-1.744,0.158c-1.511,0-3.622-0.552-3.622-5.194c0-4.643,2.198-5.254,4.262-5.254
		c1.786,0,2.556,0.314,3.046,0.466c0.154,0.047,0.296-0.106,0.296-0.243l0.59-2.499c0-0.064-0.022-0.141-0.094-0.193
		c-0.199-0.142-1.412-0.821-4.477-0.821c-3.531,0-7.153,1.502-7.153,8.724c0,7.222,4.147,8.298,7.641,8.298
		c2.893,0,4.649-1.236,4.649-1.236c0.072-0.04,0.08-0.141,0.08-0.187v-8.065C49.428,48.885,49.318,48.775,49.181,48.775z"/>
	<path fill="#0F0D0E" d="M76.439,42.354c0-0.138-0.109-0.249-0.245-0.249h-2.978c-0.136,0-0.247,0.111-0.247,0.249
		c0,0.001,0.001,5.755,0.001,5.755h-4.642v-5.755c0-0.138-0.11-0.249-0.246-0.249h-2.978c-0.136,0-0.246,0.111-0.246,0.249v15.584
		c0,0.137,0.11,0.249,0.246,0.249h2.978c0.136,0,0.246-0.112,0.246-0.249v-6.666h4.642c0,0-0.008,6.665-0.008,6.666
		c0,0.137,0.11,0.249,0.247,0.249h2.985c0.136,0,0.245-0.112,0.246-0.249V42.354z"/>
	<g>
		<g>
			<ellipse fill="#0F0D0E" cx="52.881" cy="44.399" rx="1.92" ry="1.939"/>
			<path fill="#0F0D0E" d="M54.588,54.651c0-0.399,0-7.193,0-7.193c0-0.137-0.11-0.248-0.246-0.248h-2.969
				c-0.136,0-0.258,0.14-0.258,0.277c0,0,0,8.656,0,10.306c0,0.303,0.189,0.393,0.433,0.393c0,0,1.267,0,2.675,0
				c0.293,0,0.365-0.144,0.365-0.398C54.588,57.235,54.588,55.071,54.588,54.651z"/>
		</g>
	</g>
	<path fill="#0F0D0E" d="M87.757,47.233h-2.955c-0.136,0-0.246,0.112-0.246,0.249v7.641c0,0-0.751,0.549-1.816,0.549
		c-1.066,0-1.348-0.484-1.348-1.527c0-1.045,0-6.664,0-6.664c0-0.137-0.11-0.249-0.246-0.249h-2.999
		c-0.135,0-0.246,0.112-0.246,0.249c0,0,0,4.069,0,7.168c0,3.099,1.727,3.857,4.103,3.857c1.949,0,3.521-1.077,3.521-1.077
		s0.075,0.567,0.109,0.635c0.034,0.067,0.122,0.135,0.217,0.135l1.908-0.008c0.135,0,0.246-0.112,0.246-0.249l-0.001-10.461
		C88.004,47.344,87.893,47.233,87.757,47.233z"/>
	<path fill="#0F0D0E" d="M95.834,46.883c-1.678,0-2.82,0.749-2.82,0.749v-5.277c0-0.138-0.11-0.249-0.246-0.249h-2.987
		c-0.136,0-0.246,0.111-0.246,0.249v15.584c0,0.137,0.11,0.249,0.246,0.249c0,0,2.071,0,2.072,0c0.093,0,0.164-0.048,0.216-0.132
		c0.051-0.084,0.126-0.719,0.126-0.719s1.221,1.157,3.533,1.157c2.714,0,4.271-1.377,4.271-6.18
		C100,47.51,97.514,46.883,95.834,46.883z M94.669,55.663c-1.025-0.031-1.72-0.496-1.72-0.496v-4.935c0,0,0.686-0.42,1.527-0.496
		c1.064-0.095,2.09,0.226,2.09,2.765C96.566,55.178,96.103,55.706,94.669,55.663z"/>
	<path fill="#0F0D0E" d="M63.147,47.208h-2.234c0,0-0.003-2.951-0.003-2.951c0-0.112-0.058-0.168-0.187-0.168h-3.044
		c-0.118,0-0.182,0.052-0.182,0.166v3.05c0,0-1.526,0.368-1.629,0.398c-0.103,0.03-0.178,0.125-0.178,0.238v1.916
		c0,0.138,0.11,0.249,0.246,0.249h1.561c0,0,0,2.004,0,4.611c0,3.424,2.402,3.761,4.023,3.761c0.741,0,1.627-0.238,1.773-0.292
		c0.088-0.033,0.14-0.124,0.14-0.223l0.002-2.108c0-0.137-0.116-0.249-0.247-0.249c-0.13,0-0.463,0.053-0.806,0.053
		c-1.097,0-1.469-0.51-1.469-1.171c0-0.66,0-4.381,0-4.381h2.234c0.136,0,0.247-0.111,0.247-0.249v-2.401
		C63.394,47.319,63.283,47.208,63.147,47.208z"/>
</g>
<g>
	<path fill="#9CD9F0" d="M25.515,61.143c0,1.766-4.092,3.198-9.138,3.198c-5.047,0-9.138-1.432-9.138-3.198s4.091-3.198,9.138-3.198
		C21.422,57.945,25.515,59.377,25.515,61.143L25.515,61.143z"/>
	<g>
		<g>
			<defs>
				<path id="SVGID_1_" d="M25.515,61.143c0,1.766-4.092,3.198-9.138,3.198c-5.047,0-9.138-1.432-9.138-3.198
					s4.091-3.198,9.138-3.198C21.422,57.945,25.515,59.377,25.515,61.143L25.515,61.143z"/>
			</defs>
			<clipPath id="SVGID_2_">
				<use xlink:href="#SVGID_1_"  overflow="visible"/>
			</clipPath>
			<path clip-path="url(#SVGID_2_)" fill="#7EBAE5" d="M18.868,70.065c0.731-0.225,1.81-0.816,1.81-2.351l-0.531-5.787
				c0,0,0.081-0.975,0.975-1.299c0,0,0.528-0.366-0.041-0.569c0,0-2.476-0.204-2.476,1.828c0,0,0.425,4.908,0.32,5.433
				c-0.087,0.438-0.57,0.921-0.808,0.556c0.369-1.082,0-4.892,0-4.892s0.04-1.178,0.649-1.624c0,0,0.406-0.731-0.487-0.528
				c0,0-1.705,0.244-1.787,2.233c0,0,0.59,2.765-0.039,4.995c-0.028,0.099-0.376,0.097-0.409,0
				c-0.672-1.923-0.039-4.995-0.039-4.995c-0.081-1.989-1.787-2.233-1.787-2.233c-0.894-0.203-0.487,0.528-0.487,0.528
				c0.609,0.447,0.649,1.624,0.649,1.624s-0.28,3.153,0,4.935c-0.412,0.015-0.729-0.802-0.719-1.432
				c0.009-0.561,0.232-4.6,0.232-4.6c0-2.031-2.477-1.828-2.477-1.828c-0.569,0.203-0.041,0.569-0.041,0.569
				c0.894,0.324,0.975,1.299,0.975,1.299s-0.517,5.282-0.399,6.05c0.175,1.14,1.122,1.922,1.688,2.094
				C14.89,70.452,17.619,70.45,18.868,70.065z"/>
		</g>
	</g>
	<g id="_x30_2_6_">
		<g>
			<g>
				<path d="M7.013,56.991c-1.021-1.672,0.704-2.876,2.119-3.299c0.703-0.21,1.429-0.007,2.057,0.32
					c0.587,0.306,0.81,0.922,1.39,1.215c0.409,0.206,0.793-0.056,0.844-0.485c0.125-1.044-1.089-1.872-1.949-2.219
					c-1.137-0.459-2.216-0.433-3.349,0.016c-1.885,0.748-3.396,3.175-1.48,4.737C6.84,57.437,7.161,57.235,7.013,56.991
					L7.013,56.991z"/>
			</g>
		</g>
	</g>
	<g id="_x30_2_7_">
		<path d="M13.639,51.519c-0.565,0.172-1.512,0.954-1.688,2.094c-0.118,0.768,0.399,4.63,0.399,4.63s-0.081,0.975-0.975,1.299
			c0,0-0.528,0.366,0.041,0.569c0,0,2.477,0.204,2.477-1.828c0,0-0.223-2.617-0.232-3.179c-0.01-0.629,0.307-1.447,0.719-1.432
			c-0.28,1.783,0,4.935,0,4.935s-0.041,1.178-0.649,1.624c0,0-0.406,0.731,0.487,0.528c0,0,1.705-0.244,1.787-2.233
			c0,0-0.633-3.072,0.039-4.995c0.034-0.097,0.382-0.099,0.409,0c0.629,2.23,0.039,4.995,0.039,4.995
			c0.081,1.989,1.787,2.233,1.787,2.233c0.893,0.203,0.487-0.528,0.487-0.528c-0.609-0.447-0.649-1.624-0.649-1.624
			s0.369-3.81,0-4.892c0.237-0.365,0.72,0.117,0.808,0.556c0.105,0.525-0.32,4.012-0.32,4.012c0,2.031,2.476,1.828,2.476,1.828
			c0.568-0.203,0.041-0.569,0.041-0.569c-0.894-0.324-0.975-1.299-0.975-1.299l0.531-4.367c0-1.536-1.08-2.126-1.81-2.351
			C17.619,51.141,14.89,51.138,13.639,51.519z"/>
		<g>
			<path fill="#C3E4D8" d="M6.177,54.902c0.096,0.032,0.137,0.169,0.092,0.308c-0.045,0.138-0.16,0.226-0.256,0.194
				c-0.097-0.032-0.137-0.17-0.092-0.308C5.967,54.959,6.082,54.871,6.177,54.902L6.177,54.902z"/>
			<path fill="#C3E4D8" d="M6.554,54.189c0.089,0.047,0.108,0.19,0.039,0.319c-0.067,0.129-0.195,0.196-0.284,0.149
				c-0.089-0.047-0.108-0.189-0.04-0.319C6.337,54.21,6.465,54.143,6.554,54.189L6.554,54.189z"/>
			<path fill="#C3E4D8" d="M7.166,53.546c0.066,0.076,0.031,0.216-0.079,0.312c-0.11,0.095-0.253,0.11-0.319,0.034
				c-0.066-0.076-0.031-0.215,0.079-0.31C6.956,53.485,7.099,53.47,7.166,53.546L7.166,53.546z"/>
			<path fill="#C3E4D8" d="M7.964,52.993c0.039,0.092-0.037,0.214-0.171,0.27c-0.135,0.057-0.275,0.028-0.315-0.065
				c-0.039-0.094,0.037-0.215,0.172-0.272C7.783,52.87,7.924,52.899,7.964,52.993L7.964,52.993z"/>
			<path fill="#C3E4D8" d="M8.924,52.698c0.014,0.099-0.091,0.198-0.236,0.218c-0.144,0.021-0.273-0.044-0.287-0.144
				c-0.014-0.1,0.092-0.198,0.236-0.218S8.909,52.597,8.924,52.698L8.924,52.698z"/>
			<path fill="#C3E4D8" d="M9.744,52.696c0,0.101-0.119,0.183-0.264,0.183c-0.146,0-0.264-0.082-0.264-0.183
				c0-0.101,0.118-0.183,0.264-0.183S9.744,52.595,9.744,52.696L9.744,52.696z"/>
			<path fill="#C3E4D8" d="M10.596,52.736c0,0.101-0.118,0.183-0.264,0.183c-0.146,0-0.265-0.082-0.265-0.183
				s0.118-0.183,0.265-0.183C10.479,52.553,10.596,52.635,10.596,52.736L10.596,52.736z"/>
			<path fill="#C3E4D8" d="M11.379,52.901c0,0.101-0.118,0.183-0.264,0.183c-0.146,0-0.265-0.082-0.265-0.183
				s0.118-0.183,0.265-0.183C11.261,52.718,11.379,52.799,11.379,52.901L11.379,52.901z"/>
			<path fill="#C3E4D8" d="M12.109,53.142c0,0.101-0.118,0.184-0.264,0.184c-0.146,0-0.264-0.082-0.264-0.184
				c0-0.101,0.118-0.183,0.264-0.183C11.991,52.96,12.109,53.042,12.109,53.142L12.109,53.142z"/>
		</g>
		<g>
			<path d="M18.868,51.525c3.687-0.366,5.456-1.557,6.272-3.406c1.614,0.044,4.468-0.052,7.248,0.733l0.033-0.117
				c-2.764-0.779-5.598-0.689-7.229-0.736c0.077-0.187,0.144-0.381,0.205-0.581c1.653-0.071,4.363-0.362,7.054,0.176l0,0l0.024-0.12
				c-2.681-0.536-5.378-0.249-7.043-0.179c0.274-0.985,0.355-2.119,0.355-3.383c0-1.813-0.68-3.263-1.787-4.367
				c0.193-0.624,0.369-2.094-0.34-3.867c0,0-1.169-0.312-3.998,1.582c-1.109-0.277-2.289-0.414-3.469-0.414
				c-1.3,0-2.613,0.165-3.838,0.501c-2.92-1.992-4.043-1.582-4.043-1.582c-0.841,2.104-0.488,3.659-0.329,4.046
				c-0.989,1.067-1.592,2.43-1.592,4.1c0,1.261,0.143,2.392,0.494,3.375C5.206,47.226,2.585,46.969,0,47.485l0.024,0.12
				c2.6-0.52,5.238-0.258,6.906-0.195c0.077,0.204,0.164,0.402,0.26,0.592c-1.65,0.053-4.437-0.017-7.137,0.745l0.033,0.117
				c2.721-0.767,5.533-0.691,7.166-0.741c0.986,1.838,2.928,3.024,6.386,3.397"/>
			<path fill="#F3CAB2" d="M22.18,43.826c0.794,0.719,1.259,1.588,1.259,2.524c0,4.371-3.257,4.489-7.276,4.489
				c-4.019,0-7.277-0.605-7.277-4.489c0-0.93,0.458-1.793,1.242-2.51c1.308-1.194,3.522-0.561,6.034-0.561
				C18.665,43.279,20.87,42.64,22.18,43.826L22.18,43.826z"/>
			<path fill="#FFFFFF" d="M13.743,46.573c0,1.204-0.678,2.18-1.513,2.18c-0.837,0-1.515-0.976-1.515-2.18
				c0-1.203,0.678-2.179,1.515-2.179C13.065,44.394,13.743,45.369,13.743,46.573L13.743,46.573z"/>
			<path fill="#AD5C51" d="M13.257,46.6c0,0.802-0.452,1.453-1.009,1.453c-0.558,0-1.009-0.65-1.009-1.453
				c0-0.802,0.451-1.453,1.009-1.453C12.805,45.147,13.257,45.798,13.257,46.6L13.257,46.6z"/>
			<path fill="#FFFFFF" d="M21.866,46.573c0,1.204-0.678,2.18-1.514,2.18c-0.836,0-1.514-0.976-1.514-2.18
				c0-1.203,0.678-2.179,1.514-2.179C21.188,44.394,21.866,45.369,21.866,46.573L21.866,46.573z"/>
			<path fill="#AD5C51" d="M21.38,46.6c0,0.802-0.452,1.453-1.01,1.453s-1.01-0.65-1.01-1.453c0-0.802,0.452-1.453,1.01-1.453
				S21.38,45.798,21.38,46.6L21.38,46.6z"/>
			<path fill="#AD5C51" d="M16.563,48.509c0,0.209-0.169,0.379-0.379,0.379c-0.209,0-0.379-0.169-0.379-0.379
				s0.169-0.378,0.379-0.378C16.394,48.13,16.563,48.299,16.563,48.509L16.563,48.509z"/>
			<path fill="#AD5C51" d="M15.302,49.466c-0.022-0.064,0.011-0.133,0.074-0.155c0.064-0.023,0.133,0.011,0.155,0.074
				c0.098,0.275,0.359,0.46,0.649,0.46c0.292,0,0.553-0.185,0.65-0.46c0.022-0.064,0.092-0.097,0.155-0.074
				c0.063,0.022,0.097,0.092,0.074,0.155c-0.132,0.372-0.485,0.622-0.879,0.622C15.787,50.088,15.434,49.838,15.302,49.466
				L15.302,49.466z"/>
		</g>
	</g>
</g>
</svg>
