<?xml version="1.0" encoding="utf-8"?>
<!-- Generator: Adobe Illustrator 17.0.0, SVG Export Plug-In . SVG Version: 6.00 Build 0)  -->
<!DOCTYPE svg PUBLIC "-//W3C//DTD SVG 1.1//EN" "http://www.w3.org/Graphics/SVG/1.1/DTD/svg11.dtd">
<svg version="1.1" id="Layer_1" xmlns="http://www.w3.org/2000/svg" xmlns:xlink="http://www.w3.org/1999/xlink" x="0px" y="0px"
	 width="100px" height="100px" viewBox="0 0 100 100" enable-background="new 0 0 100 100" xml:space="preserve">
<g>
	<path d="M23.452,57.179c-2.954,0-4.034-1.749-4.034-4.357v-1.638c0-2.499,1.128-4.357,4.129-4.357c0.969,0,2.017,0.221,2.684,0.86
		c0.19,0.139,0.27,0.305,0.27,0.458c0,0.278-0.222,0.555-0.667,0.555c-0.238,0.014-0.381-0.111-0.635-0.277
		c-0.429-0.306-0.984-0.457-1.651-0.457c-1.858,0-2.699,1.096-2.699,3.247v1.595c0,2.262,0.794,3.248,2.604,3.248
		c1.667,0,2.366-0.889,2.366-2.304v-0.735h-1.905c-0.366,0-0.667-0.265-0.667-0.583c0-0.32,0.301-0.583,0.667-0.583h2.604
		c0.398,0,0.683,0.263,0.683,0.624v1.25C27.2,55.68,26.072,57.179,23.452,57.179z"/>
	<path d="M32.631,51.226c-0.175-0.042-0.366-0.085-0.794-0.085c-0.668,0-1.509,0.196-1.763,1.265v4.135
		c0,0.347-0.317,0.611-0.699,0.611c-0.38,0-0.697-0.279-0.697-0.611v-4.676c0-0.555-0.176-0.723-0.493-0.875
		c-0.175-0.083-0.27-0.222-0.27-0.402c0-0.333,0.27-0.527,0.684-0.527c0.063,0,0.159,0,0.221,0.013
		c0.604,0.139,0.905,0.471,1.065,0.861c0.682-0.847,1.619-0.958,2.191-0.958c0.46,0,0.794,0.056,1.064,0.167
		c0.302,0.124,0.396,0.444,0.286,0.709C33.313,51.115,33.028,51.309,32.631,51.226z"/>
	<path d="M39.633,57.152c-0.302,0-0.635-0.126-0.826-0.292c-0.159-0.111-0.255-0.264-0.318-0.416
		c-0.603,0.569-1.525,0.708-2.223,0.708c-1.97,0-2.779-0.888-2.779-2.04v-0.111c0-1.152,0.905-2.012,2.922-2.012h1.811v-0.334
		c0-1.109-0.302-1.665-1.636-1.665c-0.746,0-1.223,0.152-1.619,0.348c-0.714,0.332-1.303-0.5-0.636-0.875
		c0.636-0.346,1.461-0.486,2.335-0.486c2.271,0,2.938,0.958,2.938,2.79v2.582c0,0.555,0.143,0.721,0.445,0.874
		c0.175,0.083,0.27,0.222,0.27,0.402C40.316,56.985,40.03,57.152,39.633,57.152z M38.22,53.932h-1.667
		c-1.335,0-1.684,0.513-1.684,1.083v0.11c0,0.583,0.365,1.083,1.635,1.083c1.064,0,1.716-0.471,1.716-1.457V53.932z"/>
	<path d="M43.673,57.152c-1.032,0-1.635-0.111-2.239-0.305c-0.334-0.098-0.445-0.416-0.35-0.681
		c0.128-0.292,0.461-0.429,0.778-0.319c0.509,0.167,0.969,0.278,1.827,0.278c1.173,0,1.698-0.445,1.698-1.07
		c0-0.874-1.143-0.915-2.239-1.137c-1.049-0.208-2.049-0.555-2.049-1.873c0-1.333,1.191-2.069,2.716-2.069
		c0.889,0,1.461,0.097,2.049,0.291c0.35,0.126,0.476,0.417,0.366,0.695c-0.112,0.264-0.43,0.416-0.763,0.319
		c-0.539-0.181-0.968-0.264-1.588-0.264c-0.983,0-1.461,0.402-1.461,0.971c0,0.791,0.953,0.874,2.018,1.056
		c1.11,0.208,2.286,0.513,2.286,1.97C46.722,56.458,45.42,57.152,43.673,57.152z"/>
	<path d="M50.145,57.152c-1.033,0-1.636-0.111-2.24-0.305c-0.333-0.098-0.444-0.416-0.349-0.681c0.127-0.292,0.46-0.429,0.778-0.319
		c0.508,0.167,0.969,0.278,1.827,0.278c1.174,0,1.699-0.445,1.699-1.07c0-0.874-1.143-0.915-2.24-1.137
		c-1.048-0.208-2.049-0.555-2.049-1.873c0-1.333,1.192-2.069,2.715-2.069c0.89,0,1.463,0.097,2.049,0.291
		c0.35,0.126,0.476,0.417,0.365,0.695c-0.112,0.264-0.429,0.416-0.763,0.319c-0.54-0.181-0.967-0.264-1.587-0.264
		c-0.984,0-1.462,0.402-1.462,0.971c0,0.791,0.954,0.874,2.016,1.056c1.113,0.208,2.288,0.513,2.288,1.97
		C53.194,56.458,51.891,57.152,50.145,57.152z"/>
	<path d="M59.856,57.152c-0.381,0-0.699-0.264-0.699-0.611v-3.914c0-0.887-0.287-1.499-1.493-1.499
		c-0.921,0-1.572,0.347-1.938,0.875v4.538c0,0.347-0.301,0.611-0.698,0.611c-0.382,0-0.684-0.264-0.684-0.611v-8.923
		c0-0.333,0.302-0.598,0.684-0.598c0.396,0,0.698,0.265,0.698,0.598v3.025c0.525-0.416,1.255-0.666,2.224-0.666
		c2.001,0,2.605,1.096,2.605,2.54v4.024C60.555,56.888,60.237,57.152,59.856,57.152z"/>
	<path d="M64.922,57.152c-2.256,0-3.194-1.291-3.194-2.872v-1.43c0-1.582,0.938-2.873,3.194-2.873c2.27,0,3.208,1.291,3.208,2.873
		v1.43C68.13,55.861,67.192,57.152,64.922,57.152z M66.731,52.85c0-1.068-0.523-1.75-1.809-1.75c-1.272,0-1.795,0.682-1.795,1.75
		v1.43c0,1.081,0.523,1.762,1.795,1.762c1.286,0,1.809-0.68,1.809-1.762V52.85z"/>
	<path d="M72.766,57.152c-0.604,0-1.333-0.167-1.889-0.541v2.385c0,0.347-0.318,0.611-0.7,0.611c-0.381,0-0.682-0.265-0.682-0.611
		v-7.214c0-0.569-0.127-0.722-0.445-0.875c-0.175-0.084-0.269-0.222-0.269-0.402c0-0.362,0.3-0.528,0.682-0.528
		c0.254,0,0.588,0.097,0.843,0.291c0.126,0.098,0.221,0.195,0.301,0.32c0.604-0.388,1.366-0.611,2.08-0.611
		c2.064,0,2.938,1.013,2.938,2.803v1.263C75.625,55.902,74.862,57.152,72.766,57.152z M74.227,52.711
		c0-1.111-0.46-1.679-1.746-1.679c-0.492,0-1.096,0.195-1.603,0.583v3.844c0.507,0.458,1.175,0.638,1.65,0.638
		c1.208,0,1.699-0.68,1.699-1.872V52.711z"/>
	<path d="M80.261,57.152c-0.604,0-1.333-0.167-1.891-0.541v2.385c0,0.347-0.317,0.611-0.698,0.611c-0.381,0-0.683-0.265-0.683-0.611
		v-7.214c0-0.569-0.127-0.722-0.444-0.875c-0.175-0.084-0.27-0.222-0.27-0.402c0-0.362,0.302-0.528,0.682-0.528
		c0.254,0,0.588,0.097,0.842,0.291c0.126,0.098,0.223,0.195,0.302,0.32c0.603-0.388,1.365-0.611,2.08-0.611
		c2.064,0,2.938,1.013,2.938,2.803v1.263C83.12,55.902,82.357,57.152,80.261,57.152z M81.722,52.711c0-1.111-0.46-1.679-1.747-1.679
		c-0.491,0-1.096,0.195-1.604,0.583v3.844c0.508,0.458,1.176,0.638,1.653,0.638c1.207,0,1.699-0.68,1.699-1.872V52.711z"/>
	<path d="M90.282,53.461c0,0.291-0.238,0.471-0.524,0.471h-4.335v0.376c0,1.095,0.556,1.803,1.796,1.803
		c0.904,0,1.46-0.152,1.984-0.389c0.302-0.138,0.635,0.015,0.746,0.278c0.112,0.264,0.016,0.513-0.269,0.652
		c-0.762,0.346-1.604,0.5-2.51,0.5c-2.287,0-3.129-1.36-3.129-2.943v-1.29c0-1.582,0.907-2.943,3.129-2.943
		c2.319,0,3.112,1.346,3.112,2.915V53.461z M88.933,52.738c0-1.082-0.445-1.763-1.733-1.763c-1.254,0-1.778,0.695-1.778,1.763v0.236
		h3.51V52.738z"/>
	<path d="M95.538,51.226c-0.174-0.042-0.365-0.085-0.793-0.085c-0.669,0-1.51,0.196-1.764,1.265v4.135
		c0,0.347-0.318,0.611-0.698,0.611c-0.381,0-0.699-0.279-0.699-0.611v-4.676c0-0.555-0.175-0.723-0.493-0.875
		c-0.176-0.083-0.27-0.222-0.27-0.402c0-0.333,0.27-0.527,0.683-0.527c0.064,0,0.158,0,0.222,0.013
		c0.604,0.139,0.905,0.471,1.065,0.861c0.683-0.847,1.62-0.958,2.192-0.958c0.46,0,0.793,0.056,1.064,0.167
		c0.301,0.124,0.396,0.444,0.286,0.709C96.222,51.115,95.935,51.309,95.538,51.226z"/>
	<path fill="#3BB44A" d="M10.614,40.393v0.84c3.281,1.258,5.482,4.443,5.457,7.992c-0.026-0.055-0.051-0.11-0.08-0.165
		c-0.639-2.674-2.72-4.788-5.377-5.474v0.655c1.769,0.504,3.245,1.702,4.112,3.282c-1.865-1.517-4.934-1.951-7.954-0.898
		c-4.146,1.445-6.625,5.144-5.539,8.261c0.829,2.378,3.496,3.728,6.556,3.593c2.026-0.754,3.634-2.049,4.594-3.541
		c-0.173,0.987-0.637,1.963-1.334,2.846c2.975-1.151,5.022-3.475,5.391-5.848c0.133-0.43,0.238-0.874,0.31-1.332
		C17.452,46.092,14.781,41.837,10.614,40.393z"/>
	<ellipse transform="matrix(0.9734 -0.2291 0.2291 0.9734 -11.4425 3.3439)" cx="8.678" cy="50.944" rx="4.407" ry="3.313"/>
	
		<ellipse transform="matrix(0.9733 -0.2293 0.2293 0.9733 -11.1917 3.4944)" fill="#FFFFFF" cx="9.438" cy="49.897" rx="1.777" ry="1.335"/>
	<g>
		<path d="M98.097,51.404c-0.511,0-0.927-0.414-0.927-0.925c0-0.511,0.417-0.927,0.927-0.927c0.511,0,0.925,0.417,0.925,0.927
			C99.022,50.989,98.608,51.404,98.097,51.404z M98.097,49.683c-0.439,0-0.793,0.357-0.793,0.796c0,0.437,0.355,0.793,0.793,0.793
			c0.436,0,0.791-0.357,0.791-0.793C98.888,50.04,98.533,49.683,98.097,49.683z M98.226,50.541l0.191,0.352
			c0.005,0.007,0.007,0.017,0.007,0.03c0,0.04-0.032,0.067-0.067,0.067c-0.025,0-0.047-0.012-0.06-0.037l-0.211-0.394h-0.183v0.364
			c0,0.035-0.03,0.065-0.067,0.065c-0.037,0-0.067-0.03-0.067-0.065v-0.888c0-0.037,0.03-0.067,0.067-0.067h0.275
			c0.238,0,0.325,0.134,0.325,0.263v0.062C98.437,50.399,98.37,50.506,98.226,50.541z M98.303,50.233
			c0-0.059-0.034-0.149-0.193-0.149h-0.206v0.355h0.201c0.157,0,0.198-0.089,0.198-0.149V50.233z"/>
	</g>
</g>
</svg>
