<?xml version="1.0" encoding="utf-8"?>
<!-- Generator: Adobe Illustrator 17.0.0, SVG Export Plug-In . SVG Version: 6.00 Build 0)  -->
<!DOCTYPE svg PUBLIC "-//W3C//DTD SVG 1.1//EN" "http://www.w3.org/Graphics/SVG/1.1/DTD/svg11.dtd">
<svg version="1.1" id="Layer_1" xmlns="http://www.w3.org/2000/svg" xmlns:xlink="http://www.w3.org/1999/xlink" x="0px" y="0px"
	 width="100px" height="100px" viewBox="0 0 100 100" enable-background="new 0 0 100 100" xml:space="preserve">
<g>
	<g>
		<path d="M43.535,58.519c-2.331,0-3.34-1.562-3.34-3.365V41.41h2.45v13.602c0,0.938,0.336,1.418,1.321,1.418h1.082v2.09
			L43.535,58.519L43.535,58.519z"/>
		<path d="M46.508,43.933v-2.596h2.596v2.596H46.508z M46.579,58.519V46.336h2.45v12.183C49.03,58.519,46.579,58.519,46.579,58.519z
			"/>
		<path d="M55.261,58.519c-2.283,0-3.34-1.634-3.34-3.388v-6.705h-1.394v-1.874h1.394v-3.699h2.45v3.699h2.354v1.874h-2.354v6.584
			c0,0.89,0.432,1.418,1.345,1.418h1.009v2.09h-1.466v0.001H55.261z"/>
		<path d="M73.409,58.519v-7.425c0-1.899-1.082-2.716-2.45-2.716c-1.321,0-2.523,0.841-2.523,2.596v7.544h-2.45v-7.423
			c0-1.899-1.082-2.716-2.45-2.716c-1.371,0-2.523,0.841-2.523,2.716v7.425h-2.45V46.336h2.402v1.225
			c0.817-0.89,2.017-1.37,3.244-1.37c1.514,0,2.692,0.601,3.461,1.778c0.986-1.201,2.21-1.778,3.82-1.778
			c1.25,0,2.354,0.409,3.075,1.105c0.938,0.912,1.297,2.066,1.297,3.435v7.787C75.86,58.519,73.409,58.519,73.409,58.519z"/>
		<path d="M85.14,58.519v-1.225c-0.841,0.913-2.017,1.37-3.243,1.37c-1.249,0-2.284-0.409-3.004-1.105
			c-0.938-0.913-1.226-2.066-1.226-3.436v-7.787h2.45v7.425c0,1.899,1.08,2.716,2.449,2.716s2.523-0.841,2.523-2.716v-7.425h2.45
			v12.183h-2.401v0.001H85.14z"/>
		<path d="M93.699,58.663c-1.994,0-3.677-0.337-5.118-1.754l1.61-1.611c0.986,1.009,2.306,1.274,3.509,1.274
			c1.489,0,2.667-0.529,2.667-1.682c0-0.817-0.458-1.345-1.634-1.441l-1.946-0.169c-2.283-0.192-3.605-1.226-3.605-3.365
			c0-2.379,2.042-3.724,4.589-3.724c1.826,0,3.388,0.385,4.517,1.37l-1.536,1.562c-0.77-0.649-1.851-0.89-3.004-0.89
			c-1.467,0-2.21,0.649-2.21,1.562c0,0.721,0.384,1.273,1.681,1.394l1.922,0.169c2.283,0.192,3.629,1.273,3.629,3.436
			C98.769,57.341,96.605,58.663,93.699,58.663z"/>
	</g>
	<g>
		<path fill="#6A7A55" d="M2.116,50c0,1.467,0.212,2.884,0.603,4.224l8.296-2.717c-0.105-0.452-0.161-0.924-0.161-1.408
			c0-0.561,0.076-1.103,0.216-1.62l-8.355-2.688C2.326,47.127,2.116,48.539,2.116,50"/>
		<path fill="#A09440" d="M13.111,45.302l-5.245-7.127c-2.203,1.732-3.91,4.067-4.873,6.756l8.375,2.694
			C11.761,46.719,12.361,45.924,13.111,45.302"/>
		<path fill="#AFA148" d="M16.708,43.879V34.97c-3.01,0.087-5.799,1.06-8.114,2.667l5.254,7.139
			C14.69,44.262,15.664,43.942,16.708,43.879"/>
		<path fill="#4C5C59" d="M11.284,52.371l-8.286,2.713c0.977,2.719,2.714,5.075,4.956,6.812l5.114-7.035
			C12.284,54.197,11.666,53.343,11.284,52.371"/>
		<path fill="#48555D" d="M8.687,62.427c2.297,1.568,5.051,2.516,8.02,2.603v-8.711c-1.063-0.064-2.054-0.395-2.908-0.927
			L8.687,62.427"/>
		<path fill="#E3B23B" d="M25.628,37.58c-2.295-1.569-5.047-2.52-8.016-2.609v8.92c1.009,0.084,1.949,0.409,2.764,0.916
			L25.628,37.58"/>
		<path fill="#903024" d="M17.612,56.308v8.721c2.993-0.09,5.765-1.054,8.07-2.645l-5.198-7.062
			C19.645,55.868,18.666,56.219,17.612,56.308"/>
		<path fill="#D65841" d="M21.205,54.774l5.206,7.074c2.236-1.749,3.963-4.118,4.926-6.848l-8.416-2.708
			C22.557,53.255,21.964,54.106,21.205,54.774"/>
		<path fill="#E6703E" d="M32.189,50c0-1.485-0.216-2.92-0.617-4.274l-8.463,2.772c0.136,0.511,0.21,1.047,0.21,1.602
			c0,0.455-0.05,0.898-0.142,1.326l8.434,2.714C31.987,52.823,32.189,51.435,32.189,50"/>
		<path fill="#F4A83A" d="M22.813,47.643l8.476-2.776c-0.978-2.694-2.706-5.03-4.93-6.755l-5.253,7.227
			C21.841,45.96,22.428,46.748,22.813,47.643"/>
	</g>
</g>
</svg>
