<?xml version="1.0" encoding="utf-8"?>
<!-- Generator: Adobe Illustrator 17.0.0, SVG Export Plug-In . SVG Version: 6.00 Build 0)  -->
<!DOCTYPE svg PUBLIC "-//W3C//DTD SVG 1.1//EN" "http://www.w3.org/Graphics/SVG/1.1/DTD/svg11.dtd">
<svg version="1.1" id="Layer_1" xmlns="http://www.w3.org/2000/svg" xmlns:xlink="http://www.w3.org/1999/xlink" x="0px" y="0px"
	 width="100px" height="100px" viewBox="0 0 100 100" enable-background="new 0 0 100 100" xml:space="preserve">
<g>
	<g>
		<path fill="#664F44" d="M24.317,56.002c-0.002-0.044-0.005-0.087-0.01-0.127c-0.003-0.027-0.008-0.053-0.014-0.078
			c-0.011-0.059-0.025-0.118-0.045-0.173l-0.001-0.001c-0.041-0.116-0.104-0.227-0.185-0.32c-0.081-0.094-0.177-0.167-0.274-0.218
			l-0.003-0.002c-0.103-0.054-0.205-0.084-0.296-0.102c-0.027-0.005-0.053-0.007-0.077-0.01c0.118-0.504-0.03-0.888-0.125-1.068
			c0.007-0.007,0.015-0.014,0.022-0.021c0.126-0.121,0.232-0.237,0.322-0.354l0.017-0.024c0.072-0.104,0.12-0.21,0.15-0.307
			c0.026-0.084,0.039-0.159,0.046-0.229h0.001l0.001-0.004l0.001-0.01l0.003-0.021h-0.002l0.001-0.024h0.001l0.001-0.014
			c0.001-0.014,0.001-0.029,0.001-0.044c0.001-0.028,0.001-0.058-0.001-0.091c-0.007-0.156-0.035-0.358-0.138-0.578
			c-0.051-0.109-0.122-0.222-0.216-0.326c-0.094-0.104-0.211-0.199-0.345-0.274l0.001,0.001c-0.01-0.005-0.018-0.011-0.027-0.016
			c-0.279-0.411-0.597-0.729-0.88-0.971c-0.147-0.126-0.284-0.23-0.4-0.315c-0.115-0.085-0.213-0.151-0.267-0.192l0.001,0.001
			c-0.124-0.091-0.217-0.146-0.261-0.171c-0.102-0.062-0.177-0.111-0.223-0.145c-0.036-0.027-0.053-0.044-0.06-0.051l-0.004-0.004
			c-0.001-0.001-0.004-0.008-0.01-0.036c-0.006-0.027-0.012-0.074-0.014-0.142c-0.005-0.107-0.001-0.263,0.011-0.469
			c0.019-0.331,0.056-0.789,0.095-1.409c0.013-0.197,0.014-0.383,0.008-0.558c-0.011-0.281-0.048-0.535-0.107-0.766v-0.001
			c-0.013-0.053-0.028-0.104-0.043-0.154v-0.001L20.97,46.18c-0.012-0.038-0.022-0.066-0.028-0.084l0.001,0.001
			c-0.012-0.034-0.024-0.067-0.037-0.101l-0.001-0.001c-0.007-0.016-0.015-0.038-0.027-0.064V45.93V45.93
			c-0.021-0.05-0.045-0.104-0.076-0.162l-0.008-0.016l-0.015-0.027l-0.011-0.018c-0.057-0.093-0.116-0.178-0.179-0.257
			c-0.031-0.142-0.086-0.354-0.177-0.593c-0.081-0.211-0.189-0.445-0.343-0.676c-0.054-0.08-0.114-0.159-0.18-0.235l0.022-0.023
			c0.031-0.033,0.77-0.807,1.349-1.811c1.078-1.872,0.719-3.017,0.229-3.647l-0.014-0.017l-0.014-0.016
			c-0.473-0.526-1.117-0.843-1.914-0.942c-1.649-0.205-3.514,0.604-4.003,0.835l-0.889-0.982l-0.003-0.004
			c-0.078-0.086-0.166-0.164-0.259-0.231c-0.094-0.068-0.195-0.127-0.301-0.176c-0.212-0.098-0.445-0.161-0.693-0.191
			c-0.497-0.061-1.056-0.002-1.664,0.154c-0.911,0.235-1.933,0.69-3.002,1.331c-1.068,0.641-2.182,1.47-3.262,2.456
			c-1.321,1.205-2.412,2.478-3.207,3.687c-0.397,0.605-0.721,1.193-0.961,1.751c-0.24,0.558-0.398,1.086-0.459,1.574
			c-0.044,0.355-0.037,0.69,0.034,1c0.031,0.135,0.076,0.266,0.133,0.388c0.074,0.158,0.168,0.305,0.287,0.435L1.3,49.518
			l0.931,0.975l0.103,0.108l-0.006,0.01c-0.011,0.019-0.022,0.039-0.033,0.059c-0.016,0.03-0.032,0.059-0.047,0.089
			c-0.01,0.021-0.021,0.04-0.03,0.061c-0.014,0.03-0.029,0.06-0.043,0.091c-0.01,0.021-0.019,0.041-0.027,0.062
			c-0.014,0.031-0.027,0.062-0.039,0.094C2.1,51.088,2.093,51.11,2.084,51.131c-0.012,0.032-0.024,0.065-0.035,0.097
			c-0.007,0.021-0.014,0.042-0.021,0.063c-0.011,0.033-0.021,0.066-0.031,0.1c-0.003,0.009-0.006,0.018-0.008,0.028
			c-0.004,0.012-0.007,0.024-0.01,0.036c-0.01,0.034-0.018,0.069-0.027,0.104c-0.005,0.021-0.01,0.042-0.015,0.063
			c-0.003,0.015-0.007,0.03-0.01,0.046c-0.004,0.022-0.008,0.043-0.013,0.065c-0.004,0.019-0.008,0.039-0.011,0.059
			c-0.008,0.043-0.014,0.088-0.02,0.132c-0.002,0.013-0.004,0.026-0.006,0.039l-0.001,0.004l-0.001,0.012
			c-0.004,0.029-0.006,0.058-0.009,0.088c-0.004,0.046-0.008,0.092-0.01,0.138c-0.001,0.02-0.002,0.041-0.003,0.062
			c-0.001,0.016-0.002,0.031-0.002,0.048c-0.001,0.032-0.001,0.065-0.001,0.098c0,0.019,0,0.039,0,0.059c0,0.011,0,0.024,0,0.035
			v0.004v0.002c0.001,0.021,0.001,0.042,0.002,0.063c0.001,0.023,0.003,0.046,0.004,0.068c0.001,0.017,0.001,0.034,0.002,0.051
			c0.001,0.015,0.002,0.027,0.003,0.036c0.002,0.021,0.004,0.043,0.006,0.065c0.002,0.025,0.005,0.051,0.008,0.081v0.002v-0.002
			c0.002,0.011,0.003,0.019,0.004,0.029c0.003,0.024,0.007,0.049,0.011,0.073c0.003,0.022,0.007,0.046,0.011,0.077
			c0.002,0.012,0.004,0.022,0.006,0.031c0.002,0.014,0.006,0.029,0.008,0.043v0.001l0.001,0.002l0.004,0.019
			c0.004,0.02,0.009,0.045,0.016,0.08c0.002,0.009,0.004,0.015,0.005,0.023c0.005,0.022,0.01,0.038,0.013,0.05l0.005,0.022
			c0.002,0.007,0.004,0.014,0.006,0.024l0.005,0.021l0.005,0.017l0.004,0.016c0.002,0.008,0.004,0.013,0.006,0.02l0.005,0.021
			c0.005,0.016,0.01,0.033,0.015,0.049c0.006,0.019,0.013,0.045,0.025,0.078l-0.002-0.005l0.002,0.007
			c0.002,0.008,0.005,0.013,0.007,0.021c0.01,0.028,0.018,0.05,0.022,0.061l0.001,0.001l0,0c0.007,0.019,0.016,0.046,0.03,0.081
			v0.001v0.001v-0.001l0.001,0.003l-0.001-0.002l0.006,0.014c0.008,0.022,0.016,0.039,0.021,0.052l0.007,0.016l0.001,0.002
			c0.004,0.008,0.008,0.02,0.014,0.033c0.005,0.012,0.011,0.027,0.019,0.043L2.16,53.895l0.007,0.016
			c0.007,0.015,0.013,0.03,0.019,0.041c0.005,0.011,0.01,0.021,0.014,0.03L2.199,53.98l0.001,0.002l0,0L2.2,53.983l-0.001-0.001
			C2.208,54,2.219,54.024,2.233,54.053l0.001,0.002l0.001,0.002l0.006,0.012c0.007,0.012,0.012,0.024,0.018,0.034
			c0.008,0.014,0.014,0.027,0.02,0.037l0.001,0.002c0.008,0.014,0.019,0.036,0.034,0.063l0.001,0.002l0.001,0.002l0.007,0.01
			c0.006,0.011,0.012,0.022,0.018,0.031c0.01,0.016,0.019,0.031,0.026,0.043l0.002,0.004l0.001,0.001
			c0.007,0.012,0.019,0.031,0.034,0.056l0.001,0.002l0.004,0.007c0.008,0.012,0.015,0.024,0.022,0.034
			c0.011,0.017,0.021,0.032,0.03,0.045l-0.001-0.002c0.01,0.014,0.022,0.034,0.04,0.059l0.001,0.002l0.001,0.002l-0.002-0.002
			l0.002,0.003l0.001,0.002l-0.001-0.001l0.001,0.001l0,0c0.008,0.012,0.017,0.024,0.025,0.036c0.011,0.016,0.023,0.031,0.033,0.045
			l-0.001-0.001c0.01,0.013,0.021,0.029,0.036,0.048L2.6,54.637c0.011,0.014,0.021,0.027,0.031,0.04
			c0.013,0.016,0.025,0.032,0.037,0.046l0.004,0.005c0.008,0.01,0.018,0.021,0.03,0.036l0.005,0.007l0,0l0.002,0.002l0.003,0.004
			l0,0c0.019,0.022,0.036,0.041,0.053,0.06l0.018,0.021l0,0v0.001l0.001,0.001l0.001,0.001l-0.001-0.001
			c0.008,0.009,0.019,0.021,0.031,0.034l0.004,0.004v0.001l0.001,0.001l0.002,0.002L2.822,54.9c0.021,0.022,0.04,0.042,0.06,0.062
			c0.008,0.008,0.016,0.018,0.025,0.025l0.001,0.001c0.004,0.004,0.014,0.014,0.03,0.03l0.003,0.002l0.009,0.009
			c0.024,0.024,0.049,0.046,0.074,0.069l0.006,0.005l0.002,0.001l0.001,0.001l0.001,0.001c0.007,0.005,0.016,0.015,0.031,0.028
			l0.002,0.002c0.032,0.028,0.064,0.056,0.095,0.082l0.002,0.002l0.018,0.015l0.012,0.01l-0.001-0.001L3.21,55.26
			c0.027,0.022,0.053,0.042,0.078,0.062l0.007,0.005l0.003,0.002c0.01,0.007,0.017,0.013,0.021,0.016l0.005,0.004l0.004,0.002
			c0.007,0.005,0.014,0.01,0.022,0.016c0.022,0.016,0.045,0.032,0.068,0.048l0.019,0.013l0.002,0.002l0.024,0.016l0.001,0.001
			l0.012,0.008C3.5,55.47,3.525,55.485,3.549,55.5c0.013,0.008,0.025,0.016,0.038,0.024l0.021,0.013l0.011,0.007l0.008,0.004
			c0.038,0.023,0.074,0.043,0.106,0.061l0.003,0.002l0.021,0.011l0.001,0.001c0.045,0.024,0.088,0.046,0.129,0.066l0.007,0.004
			l0.022,0.011l0,0c0.022,0.01,0.043,0.02,0.065,0.03c0.01,0.005,0.021,0.01,0.031,0.014c0.012,0.005,0.025,0.012,0.037,0.017
			l0.01,0.005l0.003,0.001l0.005,0.002c0.021,0.009,0.042,0.016,0.063,0.025l0.011,0.004c0.024,0.01,0.046,0.019,0.07,0.028
			l0.005,0.002l0.018,0.006c0.011,0.004,0.022,0.007,0.033,0.011l0.01,0.004c0.033,0.012,0.067,0.024,0.101,0.035l0.008,0.002
			l0.003,0.001l0.001,0.001c0.053,0.016,0.104,0.031,0.156,0.045l0.002,0.001l0.009,0.002l-0.004-0.002
			c0.046,0.012,0.091,0.022,0.136,0.033H4.69l0.016,0.004l0.018,0.004c0.043,0.009,0.086,0.017,0.13,0.025l0.013,0.004l0.031,0.005
			c0.027,0.004,0.053,0.008,0.079,0.011c0.004,0.011,0.008,0.022,0.011,0.031l0.001,0.001c0.072,0.197,0.15,0.393,0.235,0.588
			c1.241,3.433,4.67,6.094,8.583,6.581s8.091-2.115,9.793-5.629c0.074-0.135,0.14-0.266,0.202-0.394
			c0.169-0.174,0.3-0.354,0.387-0.545C24.292,56.432,24.327,56.196,24.317,56.002z"/>
		<polygon fill="#664F44" points="20.876,45.927 20.876,45.929 20.876,45.929 		"/>
		<polygon fill="#664F44" points="3.608,55.538 3.608,55.538 3.607,55.538 		"/>
		<polygon fill="#664F44" points="2.499,54.5 2.5,54.5 2.5,54.5 		"/>
		<polygon fill="#664F44" points="2.5,54.501 2.5,54.501 2.5,54.5 		"/>
		<polygon fill="#664F44" points="1.981,53.401 1.981,53.4 1.98,53.4 		"/>
		<polygon fill="#664F44" points="1.937,53.228 1.937,53.228 1.937,53.227 		"/>
		<circle fill="#664F44" cx="2.6" cy="54.637" r="0.001"/>
		<path fill="#132134" d="M20.97,38.846c-0.189-0.211-0.409-0.369-0.647-0.487c-0.044-0.016-0.088-0.033-0.133-0.045
			c-0.022-0.014-0.045-0.028-0.068-0.042c-0.211-0.081-0.433-0.133-0.663-0.163c-1.137-0.146-2.431,0.267-3.172,0.562
			c-0.04,0.017-0.081,0.034-0.123,0.051c-0.062,0.027-0.125,0.054-0.188,0.081c-0.107,0.047-0.215,0.096-0.325,0.148
			c-0.016,0.007-0.032,0.015-0.048,0.022l-0.2-0.233l-0.091-0.106l-0.083-0.097l-0.036-0.042l-0.763-0.886l-0.066-0.077
			l-0.082-0.095l-0.014,0.003l-0.216,0.049l-0.249,0.057c-0.138-0.064-0.302-0.11-0.491-0.133c-0.38-0.048-0.861-0.004-1.41,0.138
			c-0.549,0.141-1.165,0.378-1.817,0.703c-1.306,0.65-2.759,1.651-4.158,2.927c-0.488,0.445-0.943,0.9-1.361,1.356
			c-0.406,0.442-0.778,0.887-1.112,1.324c-0.677,0.889-1.196,1.753-1.528,2.524c-0.221,0.514-0.358,0.986-0.409,1.39
			c-0.037,0.294-0.027,0.55,0.022,0.763c0.016,0.069,0.037,0.131,0.061,0.191c0.049,0.126,0.115,0.234,0.199,0.326l0.846,0.887
			l0.091,0.095l0.006-0.007c0.026-0.03,0.053-0.06,0.079-0.089l0.007-0.008c0.01-0.01,0.02-0.021,0.03-0.03
			c0.025-0.027,0.051-0.053,0.077-0.079c0.016-0.016,0.033-0.031,0.049-0.047c0.016-0.015,0.032-0.031,0.048-0.046
			c0.007-0.007,0.015-0.013,0.022-0.02c0.017-0.016,0.035-0.031,0.053-0.046C3.13,49.642,3.155,49.62,3.181,49.6
			c0.015-0.012,0.03-0.024,0.045-0.036l0.007-0.005c0.027-0.021,0.054-0.042,0.081-0.062c0.018-0.013,0.034-0.025,0.052-0.038
			c0.028-0.02,0.057-0.04,0.086-0.06c0.018-0.011,0.034-0.024,0.053-0.034c0.03-0.019,0.06-0.038,0.091-0.057
			c0.018-0.011,0.035-0.021,0.053-0.031c0.032-0.019,0.064-0.036,0.096-0.054c0.017-0.009,0.034-0.019,0.051-0.028l0.019-0.01
			l0.003-0.002c0.027-0.014,0.055-0.027,0.083-0.04c0.016-0.007,0.031-0.015,0.046-0.022c0.023-0.011,0.047-0.021,0.071-0.031
			c0.021-0.009,0.041-0.018,0.062-0.027l0.023-0.01c0.053-0.021,0.105-0.042,0.158-0.06c0.017-0.006,0.034-0.011,0.051-0.017
			c0.018-0.006,0.037-0.012,0.055-0.018l0.022-0.007c0.011-0.003,0.022-0.007,0.033-0.01c0.023-0.007,0.046-0.013,0.068-0.019
			l0.017-0.005c0.027-0.007,0.053-0.014,0.079-0.021c0.025-0.007,0.049-0.012,0.075-0.017c0.031-0.007,0.062-0.014,0.093-0.021
			c0.013-0.002,0.026-0.005,0.039-0.008c0.013-0.002,0.027-0.004,0.04-0.007c0.03-0.005,0.061-0.011,0.092-0.016
			c0.027-0.004,0.054-0.008,0.081-0.011c0.022-0.002,0.043-0.006,0.065-0.008c0.009-0.001,0.018-0.002,0.027-0.002
			c0.01-0.001,0.02-0.002,0.03-0.004l0.016-0.001c0.109-0.004,0.227-0.004,0.357,0.006l0.02,0.001
			c0.131,0.011,0.273,0.031,0.422,0.063c0.036,0.008,0.071,0.015,0.108,0.024c0.008-0.014,0.015-0.028,0.023-0.042
			c0.079-0.141,0.159-0.279,0.239-0.415c0.471-0.79,0.977-1.481,1.493-2.083c0.176-0.206,0.354-0.401,0.531-0.587
			c0.74-0.773,1.485-1.375,2.165-1.839c0.151-0.103,0.299-0.2,0.444-0.29c0.196-0.123,0.386-0.234,0.565-0.333
			c0.147-0.081,0.287-0.155,0.42-0.222c0.222-0.112,0.425-0.205,0.602-0.281c0.055-0.024,0.108-0.046,0.158-0.066
			c0.078-0.031,0.15-0.06,0.215-0.084c-0.056-0.006-0.113-0.01-0.171-0.013c-0.054-0.003-0.109-0.004-0.165-0.004
			c-0.014,0-0.028,0-0.042,0c-0.056,0.001-0.113,0.002-0.17,0.005c-0.109,0.007-0.22,0.018-0.334,0.036
			c-0.038,0.006-0.077,0.013-0.115,0.021c0.283-0.147,0.562-0.256,0.832-0.339c0.179-0.055,0.354-0.098,0.523-0.131
			c0.232-0.045,0.451-0.071,0.653-0.084c0.136-0.008,0.263-0.012,0.381-0.011c0.119,0.001,0.228,0.006,0.326,0.014
			c0.343,0.026,0.551,0.078,0.551,0.078c-0.049-0.069-0.11-0.129-0.177-0.181c-0.122-0.094-0.262-0.162-0.384-0.209
			c-0.048-0.019-0.094-0.035-0.135-0.048c-0.032-0.01-0.062-0.019-0.087-0.025c0.058-0.01,0.115-0.018,0.171-0.026
			c0.06-0.008,0.119-0.015,0.177-0.021c0.495-0.046,0.928-0.004,1.254,0.057c0.392,0.072,0.629,0.171,0.629,0.171
			c-0.056-0.109-0.139-0.202-0.229-0.281c-0.066-0.057-0.136-0.107-0.203-0.148c0.132,0.03,0.256,0.065,0.375,0.101
			c0.314,0.096,0.581,0.208,0.791,0.308c0.068,0.033,0.13,0.065,0.186,0.094c0.016,0.008,0.031,0.016,0.045,0.025
			c0.192,0.105,0.298,0.18,0.298,0.18c-0.032-0.113-0.097-0.22-0.173-0.316c-0.019-0.024-0.039-0.048-0.059-0.07l0.009,0.004
			c0.007,0.002,0.022,0.007,0.043,0.014c0.015,0.005,0.034,0.011,0.056,0.019c0.083,0.03,0.211,0.081,0.361,0.156
			c0.007,0.004,0.014,0.007,0.022,0.011c0.021,0.01,0.041,0.021,0.062,0.032c0.052,0.027,0.105,0.057,0.159,0.09
			c0.051,0.03,0.103,0.063,0.154,0.098c0.027,0.018,0.054,0.037,0.08,0.056c0.057,0.041,0.114,0.085,0.171,0.132
			c0.058,0.048,0.115,0.1,0.17,0.155c0.011,0.011,0.022,0.022,0.033,0.033c0.04,0.042,0.079,0.085,0.116,0.13
			c0.071,0.085,0.137,0.177,0.196,0.276c0.07,0.119,0.13,0.247,0.175,0.386c0.002,0.008,0.004,0.016,0.007,0.024
			c0.033-0.035,0.089-0.097,0.164-0.183C20.247,42.559,22.066,40.253,20.97,38.846z"/>
		<path fill="#90694C" d="M23.688,56.075L23.688,56.075c0.001,0,0.022-0.16-0.063-0.303l-0.002-0.004
			c-0.005-0.008-0.01-0.016-0.016-0.024l-0.005-0.008c-0.009-0.013-0.021-0.025-0.032-0.036c-0.021-0.022-0.045-0.042-0.074-0.06
			c-0.015-0.01-0.031-0.019-0.048-0.027c-0.048-0.023-0.105-0.04-0.173-0.05c-0.049-0.007-0.107-0.009-0.169-0.007
			c-0.025,0.001-0.049,0.001-0.077,0.004l-0.012,0.001c0,0,0.002,0.007,0.004,0.016c0.003,0.01,0.007,0.025,0.012,0.045
			c0.002,0.008,0.004,0.016,0.006,0.025c0.009,0.036,0.019,0.08,0.03,0.131c0,0.001-0.003,0.01-0.011,0.029l-0.004,0.01
			c-0.031,0.072-0.115,0.239-0.304,0.456c-0.032,0.037-0.068,0.075-0.106,0.115c-0.524,0.542-1.66,1.314-4.048,1.745
			c-0.81,0.114-1.558,0.121-2.196,0.041c-0.944-0.117-1.651-0.419-1.98-0.824c-0.028-0.035-0.055-0.071-0.08-0.107
			c-0.019-0.027-0.036-0.054-0.053-0.081c-0.006-0.01-0.011-0.021-0.017-0.03c-0.141-0.25-0.203-0.523-0.2-0.786
			c0.004-0.32,0.104-0.627,0.273-0.862c0.137-0.191,0.32-0.336,0.533-0.402c0.104-0.033,0.217-0.047,0.334-0.039
			c0.024,0.002,0.055,0.005,0.094,0.01c0.078,0.01,0.188,0.025,0.322,0.043c0.015,0.002,0.029,0.004,0.045,0.005
			c0.448,0.056,1.162,0.123,2.025,0.071c1.57-0.095,3.637-0.59,5.514-2.282l0.005-0.007v-0.001v-0.002
			c0.007-0.142-0.013-0.398-0.192-0.597c-0.031-0.035-0.068-0.068-0.109-0.098c-0.024-0.017-0.048-0.034-0.076-0.049
			c-0.028-0.015-0.053-0.031-0.077-0.046c-0.033-0.021-0.065-0.042-0.092-0.062l-0.004-0.006c-0.013-0.02-0.026-0.039-0.039-0.059
			c-0.487-0.737-1.157-1.165-1.425-1.361c-0.126-0.093-0.206-0.135-0.206-0.135c-0.579-0.353-0.664-0.47-0.61-1.428
			c0.019-0.345,0.057-0.798,0.095-1.413c0.005-0.08,0.008-0.156,0.009-0.231c0.001-0.018,0.001-0.035,0.001-0.053
			c0.001-0.071,0-0.139-0.003-0.206l-0.001-0.019l-0.002-0.021c-0.003-0.052-0.007-0.103-0.011-0.151
			c-0.002-0.022-0.004-0.043-0.007-0.065c-0.006-0.053-0.012-0.104-0.021-0.153c-0.004-0.025-0.009-0.049-0.014-0.074
			c-0.005-0.028-0.011-0.054-0.016-0.081c-0.006-0.026-0.011-0.053-0.018-0.077l0,0l0,0l0,0c-0.008-0.031-0.017-0.06-0.025-0.089
			c-0.003-0.011-0.005-0.022-0.009-0.032c-0.003-0.01-0.007-0.019-0.01-0.029l-0.003-0.01l-0.01-0.028l-0.001-0.002
			c-0.008-0.023-0.016-0.045-0.025-0.066l-0.002-0.007l-0.008-0.021l-0.01-0.025l-0.002-0.005l0,0v-0.001
			c-0.017-0.04-0.036-0.08-0.055-0.117l-0.015-0.027c-0.022-0.036-0.045-0.07-0.068-0.103l-0.009-0.014L20.137,45.9
			c-0.016-0.022-0.033-0.045-0.049-0.065l-0.022-0.028c-0.022-0.027-0.044-0.052-0.066-0.075l0,0l-0.001-0.004l-0.001-0.005
			l-0.001-0.007l-0.002-0.009l-0.001-0.009l-0.003-0.014l-0.001-0.009l-0.004-0.021l-0.002-0.007
			c-0.008-0.039-0.019-0.091-0.034-0.151l-0.001-0.004c-0.004-0.014-0.008-0.03-0.012-0.046l-0.002-0.006
			c-0.004-0.016-0.009-0.033-0.014-0.051l-0.001-0.001c-0.011-0.04-0.025-0.084-0.039-0.13c-0.004-0.014-0.01-0.03-0.015-0.045
			c-0.01-0.032-0.021-0.063-0.034-0.097c-0.007-0.019-0.014-0.038-0.022-0.057c-0.011-0.031-0.024-0.062-0.037-0.093
			c-0.008-0.021-0.018-0.041-0.027-0.062c-0.014-0.031-0.029-0.062-0.044-0.094c-0.01-0.021-0.021-0.042-0.032-0.063
			c-0.017-0.032-0.034-0.063-0.053-0.094c-0.012-0.02-0.024-0.04-0.036-0.06c-0.021-0.034-0.044-0.066-0.067-0.1
			c-0.011-0.016-0.022-0.033-0.034-0.049c-0.011-0.014-0.023-0.027-0.034-0.041c-0.027-0.034-0.053-0.068-0.081-0.099L19.36,44.3
			l-0.016-0.016c-0.037-0.04-0.077-0.079-0.118-0.115l-0.008-0.007c-0.019-0.016-0.038-0.031-0.057-0.045l-0.002-0.002l-0.007-0.005
			c-0.017-0.013-0.034-0.025-0.051-0.036l-0.009-0.007l0.004,0.003c-0.019-0.014-0.052-0.031-0.095-0.051
			c-0.015-0.007-0.032-0.014-0.05-0.021c-0.091-0.036-0.212-0.077-0.357-0.116c-0.009-0.002-0.019-0.005-0.027-0.007
			c-0.12-0.031-0.254-0.06-0.396-0.083c-0.048-0.008-0.096-0.014-0.145-0.021c-0.023-0.003-0.047-0.004-0.07-0.007
			c-0.01-0.001-0.019-0.002-0.028-0.002c-0.112-0.011-0.224-0.018-0.338-0.017h-0.007c-0.147,0.001-0.293,0.013-0.433,0.041
			c0.033-0.054,0.122-0.115,0.211-0.165c0.111-0.063,0.222-0.109,0.222-0.109c-0.063,0.005-0.129,0.014-0.193,0.024
			c-0.021,0.004-0.042,0.007-0.063,0.01c-0.014,0.002-0.027,0.005-0.041,0.008l-0.012,0.002c-0.011,0.002-0.022,0.005-0.034,0.007
			c-0.326,0.069-0.641,0.187-0.815,0.258c-0.025,0.01-0.046,0.019-0.066,0.027l-0.011,0.005c-0.018,0.002-0.035,0.005-0.053,0.007
			l0.001-0.001c0.129-0.238,0.319-0.366,0.463-0.435c0.025-0.012,0.049-0.022,0.071-0.031c0.008-0.003,0.015-0.005,0.022-0.008
			c0.021-0.007,0.039-0.013,0.054-0.017c0.034-0.01,0.057-0.014,0.057-0.014c-0.016,0.001-0.03,0.002-0.045,0.003
			c-0.013,0.001-0.025,0.002-0.038,0.003c-0.019,0.001-0.038,0.002-0.057,0.004c-0.011,0.001-0.023,0.001-0.034,0.002
			c-0.361,0.039-0.682,0.162-0.957,0.313c-0.189,0.105-0.358,0.223-0.5,0.34c-0.038,0.008-0.077,0.016-0.116,0.024
			c-0.395,0.084-0.845,0.193-1.319,0.338c-0.175,0.054-0.353,0.112-0.533,0.177c-0.14,0.05-0.281,0.105-0.422,0.162
			c-0.101,0.041-0.202,0.084-0.304,0.13c-0.728,0.325-1.445,0.756-2.048,1.335c-0.022,0.021-0.045,0.04-0.066,0.062
			c-0.053,0.052-0.103,0.107-0.153,0.161c-0.021,0.022-0.042,0.043-0.063,0.066c-0.025,0.028-0.049,0.059-0.074,0.088
			c-0.112,0.131-0.22,0.266-0.32,0.41c-0.075,0.107-0.145,0.218-0.212,0.333l-0.008,0.014c-0.138,0.24-0.258,0.496-0.358,0.771
			c-0.05,0.138-0.095,0.279-0.134,0.427c-0.01,0.039-0.021,0.078-0.03,0.117l-0.005,0.021c-0.038,0.159-0.069,0.325-0.093,0.495
			c-0.005,0.034-0.01,0.067-0.014,0.101c-0.011,0.085-0.019,0.172-0.026,0.259c-0.007,0.08-0.011,0.162-0.015,0.244l-0.001,0.019
			c-0.002,0.04-0.004,0.081-0.005,0.121c-0.001,0.047-0.001,0.095-0.001,0.142c0,0.011,0,0.022-0.001,0.033
			c0.001,0.093,0.002,0.187,0.006,0.282l0.001,0.015c0.004,0.095,0.011,0.193,0.019,0.29c0.004,0.041,0.007,0.081,0.011,0.123
			c0.001,0.01,0.002,0.02,0.002,0.03c0.002,0.023,0.005,0.046,0.008,0.069c0.012,0.109,0.027,0.218,0.043,0.33
			c0.004,0.031,0.008,0.062,0.014,0.093c0.016,0.098,0.033,0.196,0.052,0.297c0,0-0.017-0.129-0.007-0.318
			c0.002-0.043,0.007-0.09,0.013-0.139c0.013-0.107,0.036-0.226,0.075-0.348c0.01-0.03,0.021-0.06,0.032-0.091
			c0.005-0.013,0.011-0.026,0.016-0.039c0.023-0.056,0.049-0.112,0.08-0.168c0.007,0.04,0.014,0.079,0.023,0.119l0.002,0.013v0.018
			c0,0.025-0.001,0.051-0.001,0.079c-0.001,0.06-0.001,0.129,0,0.203c0.001,0.075,0.002,0.154,0.005,0.24
			c0.011,0.356,0.042,0.786,0.118,1.152c0,0,0.014-0.666,0.127-0.741c0,0,0.197,1.233,0.38,1.698c0.024,0.06,0.047,0.108,0.07,0.138
			l-0.005-0.123l-0.026-0.685c0,0,0.001-0.025,0.004-0.071c0.137,0.281,0.293,0.57,0.47,0.866c0.049,0.082,0.099,0.165,0.151,0.247
			c-0.339,0.298-0.652,0.719-0.877,1.223c-0.036,0.081-0.069,0.163-0.101,0.247c-0.017,0.048-0.034,0.097-0.05,0.147
			c-0.005,0.016-0.01,0.031-0.014,0.047c-0.011,0.035-0.021,0.069-0.031,0.105c-0.005,0.018-0.01,0.036-0.014,0.054
			c-0.01,0.035-0.019,0.071-0.027,0.107c-0.004,0.017-0.008,0.034-0.012,0.05c-0.011,0.051-0.022,0.103-0.032,0.155l-0.001,0.005
			c-0.01,0.053-0.018,0.106-0.025,0.159c-0.002,0.017-0.004,0.034-0.007,0.052C9.5,56.042,9.495,56.08,9.492,56.119
			c-0.002,0.019-0.004,0.039-0.005,0.059c-0.003,0.039-0.005,0.078-0.008,0.116c-0.001,0.017-0.002,0.035-0.002,0.053
			c-0.002,0.056-0.004,0.113-0.004,0.17v0.007c0,0.044,0.001,0.088,0.003,0.132c0.002,0.045,0.004,0.089,0.008,0.134l0.001,0.018
			l0.001,0.011c0.004,0.054,0.01,0.109,0.017,0.164c0.002,0.018,0.005,0.035,0.007,0.053c0.005,0.037,0.01,0.075,0.017,0.113
			c0.004,0.021,0.007,0.042,0.011,0.063c0.007,0.035,0.013,0.069,0.021,0.104c0.005,0.022,0.01,0.045,0.014,0.067
			c0.008,0.034,0.016,0.068,0.025,0.102c0.006,0.023,0.011,0.046,0.018,0.068c0.01,0.034,0.019,0.068,0.03,0.103
			c0.007,0.022,0.013,0.045,0.021,0.068c0.011,0.036,0.024,0.071,0.036,0.106c0.008,0.021,0.014,0.043,0.022,0.064
			c0.014,0.039,0.03,0.078,0.046,0.118c0.007,0.018,0.013,0.035,0.021,0.053c0.048,0.114,0.101,0.229,0.16,0.343
			c0.009,0.017,0.019,0.034,0.027,0.051c0.022,0.04,0.043,0.08,0.066,0.121c0.012,0.021,0.025,0.042,0.037,0.063
			c0.022,0.036,0.043,0.072,0.066,0.109c0.014,0.022,0.029,0.045,0.043,0.068c0.023,0.035,0.046,0.07,0.07,0.104
			c0.016,0.024,0.032,0.046,0.048,0.069c0.025,0.035,0.05,0.069,0.076,0.104c0.017,0.023,0.034,0.046,0.051,0.068
			c0.028,0.036,0.056,0.071,0.085,0.106c0.017,0.022,0.034,0.043,0.053,0.065c0.032,0.039,0.066,0.077,0.1,0.116
			c0.016,0.018,0.031,0.036,0.047,0.054c0.051,0.057,0.103,0.113,0.158,0.17v-0.001c-0.001-0.001-0.032-0.046-0.075-0.126
			l-0.002-0.002c-0.008-0.014-0.016-0.031-0.025-0.048l-0.002-0.005c-0.009-0.018-0.018-0.037-0.028-0.058l-0.002-0.004
			c-0.01-0.022-0.02-0.045-0.03-0.069c-0.08-0.193-0.158-0.461-0.148-0.76c0.031,0.042,0.063,0.081,0.094,0.123
			c0.037,0.074,0.083,0.167,0.138,0.271c0.018,0.034,0.037,0.071,0.057,0.107c0.08,0.147,0.172,0.311,0.273,0.474
			c0.121,0.196,0.254,0.392,0.392,0.562l0,0c-0.001-0.001-0.16-0.334-0.214-0.552c-0.015-0.062-0.022-0.114-0.014-0.147
			c0.013,0.013,0.026,0.027,0.039,0.04c0.013,0.013,0.026,0.027,0.039,0.04c0.025,0.034,0.057,0.077,0.094,0.124l0.018,0.024
			c0.018,0.024,0.036,0.048,0.056,0.074l0.001,0.001c0.023,0.03,0.047,0.061,0.072,0.093c0.224,0.288,0.523,0.657,0.736,0.859
			c0.071,0.068,0.132,0.116,0.179,0.138l-0.308-0.553c0.695,0.565,3.562,1.291,6.388,0.481c0.341-0.098,0.682-0.218,1.017-0.364
			c0.203-0.088,0.404-0.184,0.602-0.291l0.029-0.016c0.139-0.076,0.277-0.158,0.414-0.244l0.003-0.002
			c0.103-0.065,0.205-0.132,0.305-0.203c0.169-0.119,0.336-0.244,0.498-0.38h0.001l0.001-0.001c0.01-0.008,0.019-0.016,0.029-0.025
			c0.161-0.141,0.313-0.286,0.453-0.434c0.185-0.195,0.352-0.394,0.503-0.594l0.011-0.014c0.037-0.049,0.073-0.098,0.108-0.147
			l0.01-0.014c0.011-0.016,0.022-0.033,0.033-0.049c0.049-0.07,0.097-0.14,0.142-0.21c0.011-0.017,0.022-0.034,0.033-0.05
			c0.024-0.037,0.046-0.074,0.068-0.11c0.017-0.028,0.034-0.057,0.051-0.086c0.018-0.031,0.037-0.062,0.054-0.092
			c0.031-0.056,0.063-0.111,0.092-0.166c0.011-0.022,0.023-0.043,0.034-0.065c0.022-0.043,0.045-0.085,0.066-0.127
			c0.01-0.019,0.02-0.039,0.029-0.059l0.008-0.018c0.026-0.053,0.051-0.105,0.075-0.157l0.004-0.011
			c0.091-0.085,0.162-0.165,0.218-0.243c0.008-0.011,0.017-0.022,0.024-0.033C23.645,56.38,23.686,56.22,23.688,56.075z"/>
		<path fill="#90694C" d="M6.812,54.033c-0.002-0.013-0.005-0.025-0.007-0.038l0.002-0.001c-0.033-0.182-0.058-0.369-0.076-0.559
			c-0.001-0.014-0.003-0.027-0.004-0.04c-0.031,0.01-0.067,0.051-0.103,0.109c-0.013,0.021-0.027,0.045-0.039,0.069
			C6.489,53.752,6.403,54,6.403,54c0.007-0.083,0.016-0.17,0.026-0.256c0.001-0.01,0.002-0.02,0.004-0.03
			c0.011-0.088,0.023-0.177,0.036-0.266c0.001-0.011,0.003-0.021,0.005-0.032c0.015-0.1,0.031-0.199,0.048-0.294
			c0.002-0.013,0.004-0.025,0.007-0.037L6.53,53.08c0.002-0.011,0.004-0.022,0.006-0.033c0.003-0.016,0.006-0.033,0.009-0.049
			c0.014-0.075,0.028-0.149,0.042-0.218c0.013-0.063,0.025-0.122,0.036-0.178l0.004-0.018c0.002-0.009,0.004-0.017,0.005-0.025
			c0.002-0.008,0.004-0.017,0.005-0.025l0.001-0.003c0.003-0.014,0.006-0.028,0.009-0.042l0.001-0.004
			c0.002-0.013,0.005-0.024,0.008-0.037c0.004-0.019,0.008-0.039,0.013-0.057l0.001-0.005c0.003-0.014,0.007-0.03,0.009-0.043
			c0.004-0.019,0.008-0.037,0.012-0.054v-0.001v-0.001c0.002-0.01,0.004-0.018,0.006-0.027l0.001-0.002
			c0.002-0.008,0.004-0.016,0.005-0.024c0.004-0.018,0.008-0.034,0.011-0.046l0.002-0.011l0.001-0.004l0.003-0.013l0.002-0.009
			l0.001-0.001l-0.001,0.001l-0.019,0.018c-0.017,0.015-0.034,0.03-0.05,0.046l-0.018,0.019c-0.019,0.021-0.037,0.043-0.054,0.066
			l-0.009,0.011c-0.021,0.03-0.041,0.06-0.059,0.092l0,0l-0.002,0.004l0,0l-0.008,0.014c-0.004,0.008-0.008,0.016-0.013,0.024
			c-0.011,0.02-0.022,0.039-0.031,0.059l-0.001,0.001l-0.001,0.001L6.456,52.51l-0.004,0.007l-0.004,0.007
			c-0.015,0.031-0.029,0.063-0.042,0.093c-0.036,0.086-0.065,0.169-0.086,0.238c-0.007,0.024-0.014,0.048-0.02,0.068
			c-0.012,0.044-0.021,0.079-0.025,0.096v0.002l-0.002,0.011l0,0l0,0l0.001-0.013c0.001-0.027,0.004-0.053,0.007-0.079
			c0.004-0.055,0.008-0.11,0.014-0.165c0.005-0.046,0.012-0.091,0.019-0.137c0.002-0.014,0.004-0.029,0.007-0.043
			c0.003-0.021,0.006-0.042,0.009-0.063c0.003-0.02,0.007-0.039,0.011-0.058v-0.001l0,0l0.004-0.022l0.001-0.006
			c0.004-0.024,0.009-0.048,0.013-0.071c0.002-0.009,0.003-0.018,0.005-0.027l0.003-0.016l0.001-0.003
			c0.002-0.008,0.003-0.016,0.005-0.023c0.002-0.01,0.004-0.019,0.007-0.028c0.008-0.034,0.016-0.068,0.024-0.103l0.001-0.006
			c0.006-0.025,0.011-0.051,0.018-0.076V52.09l0.001-0.002l0.002-0.007c0.013-0.051,0.028-0.102,0.043-0.152l0.004-0.014
			l0.004-0.014c0.003-0.01,0.005-0.019,0.008-0.029c0.025-0.082,0.051-0.163,0.078-0.243l0.004-0.01
			c0.024-0.067,0.048-0.133,0.073-0.199l0.003-0.007c0.011-0.029,0.023-0.056,0.034-0.084l0.002-0.004
			c0.018-0.042,0.034-0.085,0.052-0.126v-0.001l0,0l0.001-0.001l0.002-0.005c0.005-0.01,0.016-0.035,0.033-0.072l0.001-0.001
			l0.002-0.005l0,0c0.007-0.014,0.013-0.028,0.019-0.043c0.01-0.024,0.021-0.046,0.031-0.069l0.01-0.02v-0.001l0.179-0.322
			c0.007-0.014,0.014-0.027,0.022-0.04l0.004-0.007l0.009-0.016c0.019-0.036,0.039-0.072,0.058-0.106
			c0.029-0.052,0.056-0.101,0.082-0.148c0.053-0.095,0.098-0.175,0.125-0.223c0.015-0.027,0.025-0.045,0.028-0.05l0.001-0.002l0,0
			l-0.001-0.001l-0.002-0.001c-0.007-0.005-0.061-0.042-0.151-0.097c-0.102-0.062-0.25-0.145-0.431-0.229
			c-0.058-0.027-0.118-0.054-0.182-0.08c-0.077-0.031-0.156-0.062-0.24-0.09c-0.022-0.007-0.044-0.013-0.066-0.02
			c-0.07-0.022-0.142-0.042-0.215-0.059L6.046,49.49c-0.05-0.012-0.1-0.025-0.152-0.034c-0.04-0.008-0.081-0.015-0.123-0.021
			c-0.02-0.003-0.04-0.004-0.06-0.006c-0.02-0.002-0.039-0.004-0.059-0.006c-0.056-0.005-0.111-0.007-0.167-0.009
			c-0.027-0.001-0.054-0.002-0.081-0.001c-0.121,0.002-0.24,0.013-0.357,0.03l-0.021,0.003c-0.211,0.031-0.414,0.084-0.608,0.158
			c-0.066,0.025-0.13,0.051-0.194,0.081c-0.018,0.008-0.036,0.018-0.054,0.026c-0.022,0.01-0.044,0.021-0.065,0.032
			c-0.192,0.099-0.372,0.218-0.536,0.355l-0.006,0.005c-0.142,0.118-0.273,0.249-0.39,0.39c-0.034,0.04-0.066,0.082-0.098,0.124
			c-0.037,0.05-0.073,0.101-0.107,0.153c-0.065,0.098-0.123,0.202-0.176,0.308c-0.019,0.037-0.037,0.075-0.054,0.113
			c-0.003,0.007-0.006,0.014-0.009,0.022c-0.109,0.249-0.185,0.515-0.223,0.793c-0.007,0.054-0.013,0.109-0.018,0.165l-0.002,0.021
			c-0.003,0.044-0.005,0.088-0.007,0.133c-0.002,0.054-0.002,0.109-0.001,0.164c0,0.009,0.001,0.017,0.001,0.026
			c0.001,0.043,0.003,0.085,0.006,0.127l0.002,0.022c0.001,0.01,0.002,0.02,0.002,0.03c0.003,0.033,0.006,0.066,0.01,0.099
			L2.502,52.8v0.002v0.001c0.002,0.016,0.005,0.033,0.007,0.049c0.004,0.03,0.008,0.06,0.013,0.089
			c0.004,0.022,0.008,0.042,0.013,0.063c0.005,0.027,0.01,0.055,0.017,0.082c0.005,0.022,0.011,0.044,0.016,0.066l0.004,0.016
			l0.006,0.023l0.004,0.018l0.005,0.021c0.007,0.023,0.014,0.045,0.021,0.068c0.007,0.024,0.014,0.048,0.022,0.072
			c0.008,0.024,0.016,0.046,0.025,0.069l0.007,0.019c0.006,0.016,0.011,0.033,0.018,0.049c0.009,0.024,0.019,0.046,0.029,0.07
			c0.009,0.021,0.018,0.043,0.027,0.064c0.005,0.012,0.011,0.024,0.016,0.036c0.006,0.011,0.011,0.024,0.016,0.035
			c0.01,0.02,0.019,0.04,0.029,0.06c0.012,0.024,0.025,0.048,0.037,0.071c0.01,0.019,0.02,0.037,0.03,0.056
			c0.013,0.024,0.028,0.048,0.042,0.072c0.01,0.017,0.02,0.034,0.031,0.051c0.015,0.024,0.031,0.048,0.048,0.072
			c0.01,0.016,0.021,0.031,0.031,0.047c0.017,0.024,0.034,0.048,0.053,0.072c0.01,0.014,0.021,0.028,0.031,0.042
			c0.019,0.025,0.038,0.048,0.058,0.072c0.01,0.013,0.021,0.025,0.031,0.038c0.021,0.024,0.042,0.048,0.063,0.072
			c0.01,0.011,0.02,0.022,0.031,0.033c0.022,0.024,0.045,0.048,0.069,0.071c0.01,0.01,0.02,0.02,0.03,0.03
			c0.024,0.024,0.049,0.047,0.074,0.07c0.01,0.008,0.019,0.017,0.028,0.026c0.026,0.024,0.053,0.046,0.08,0.069
			c0.009,0.007,0.018,0.015,0.027,0.022c0.028,0.023,0.057,0.045,0.086,0.068c0.008,0.006,0.017,0.013,0.025,0.019
			c0.03,0.022,0.061,0.043,0.092,0.065l0.023,0.016c0.032,0.022,0.065,0.043,0.098,0.063L3.936,55
			c0.034,0.021,0.069,0.04,0.104,0.06l0.018,0.01c0.036,0.019,0.073,0.038,0.11,0.056l0.016,0.007
			c0.038,0.019,0.077,0.036,0.115,0.053l0.014,0.006c0.04,0.016,0.08,0.033,0.121,0.048l0.011,0.004
			c0.042,0.015,0.083,0.03,0.126,0.043l0.008,0.003c0.021,0.007,0.042,0.012,0.063,0.018c0.023,0.007,0.045,0.014,0.068,0.02
			l0.007,0.002c0.045,0.012,0.091,0.022,0.136,0.032l0.004,0.001h0.001c0.046,0.01,0.093,0.019,0.139,0.026l0.002,0.001
			c0.144,0.023,0.292,0.036,0.442,0.038l0,0c0.036,0.001,0.072,0.001,0.107,0.001c0.048-0.001,0.098-0.004,0.147-0.008
			c0.068-0.005,0.136-0.013,0.205-0.024c0.061-0.009,0.121-0.02,0.182-0.033c0.094-0.019,0.188-0.042,0.278-0.069
			c0.27-0.078,0.508-0.183,0.65-0.289c0,0-0.094-0.415-0.173-0.836C6.828,54.125,6.82,54.079,6.812,54.033z"/>
		<polygon fill="#90694C" points="19.093,44.066 19.093,44.066 19.092,44.066 		"/>
		<path fill="#2F83C1" d="M13.542,38.45l-0.034-0.42l0.211-0.465l0,0l0.083-0.019c-0.138-0.064-0.302-0.11-0.491-0.133
			c-0.38-0.048-0.861-0.004-1.41,0.138c-0.549,0.141-1.165,0.378-1.817,0.703c-1.306,0.65-2.759,1.651-4.158,2.927
			c-0.488,0.445-0.943,0.9-1.361,1.356c-0.406,0.442-0.778,0.887-1.112,1.324c-0.677,0.889-1.196,1.753-1.528,2.524
			c-0.221,0.514-0.358,0.986-0.409,1.39c-0.037,0.294-0.027,0.55,0.022,0.763c0.016,0.069,0.037,0.131,0.061,0.191
			c0.049,0.126,0.115,0.234,0.199,0.326l0.846,0.887l0.091,0.095l0.006-0.007c0.026-0.03,0.053-0.06,0.079-0.089l0.007-0.008
			c0.01-0.01,0.02-0.021,0.03-0.03c0.025-0.027,0.051-0.053,0.077-0.079c0.016-0.016,0.033-0.031,0.049-0.047
			c0.016-0.015,0.032-0.031,0.048-0.046c0.007-0.007,0.015-0.013,0.022-0.02c0.017-0.016,0.035-0.031,0.053-0.046
			c0.025-0.021,0.049-0.043,0.075-0.063c0.015-0.012,0.03-0.024,0.045-0.036l0.007-0.005c0.027-0.021,0.054-0.042,0.081-0.062
			c0.018-0.013,0.034-0.025,0.052-0.038c0.028-0.02,0.057-0.04,0.086-0.06c0.018-0.011,0.034-0.024,0.053-0.034
			c0.03-0.019,0.06-0.038,0.091-0.057c0.018-0.011,0.035-0.021,0.053-0.031c0.032-0.019,0.064-0.036,0.096-0.054
			c0.017-0.009,0.034-0.019,0.051-0.028l0.019-0.01l0.001-0.004c0.203-0.561,0.506-1.17,0.9-1.804
			c0.483-0.779,1.101-1.597,1.834-2.41c0.461-0.512,0.967-1.023,1.514-1.521c0.707-0.645,1.428-1.22,2.139-1.718
			c0.479-0.336,0.953-0.635,1.416-0.897c0.044-0.025,0.088-0.051,0.132-0.075c0.123-0.068,0.246-0.133,0.367-0.196
			c0.264-0.136,0.524-0.261,0.777-0.37l-0.124-0.149l-0.021-0.025l-0.153-0.183l-0.875-1.052l0.008-0.753l-0.01-0.011l0.617-0.184
			L13.542,38.45z"/>
		<path fill="#FCE9CD" d="M23.688,56.075L23.688,56.075c0.001,0,0.022-0.16-0.063-0.303l-0.002-0.004
			c-0.005-0.008-0.01-0.016-0.016-0.024l-0.005-0.008c-0.009-0.013-0.021-0.025-0.032-0.036c-0.021-0.022-0.045-0.042-0.074-0.06
			c-0.015-0.01-0.031-0.019-0.048-0.027c-0.048-0.023-0.105-0.04-0.173-0.05c-0.049-0.007-0.107-0.009-0.169-0.007
			c-0.025,0.001-0.049,0.001-0.077,0.004l-0.012,0.001c0,0,0.002,0.007,0.004,0.016c0.003,0.01,0.007,0.025,0.012,0.045
			c0.002,0.008,0.004,0.016,0.006,0.025c0.009,0.036,0.019,0.08,0.03,0.131c0,0.001-0.003,0.01-0.011,0.029l-0.004,0.01
			c-0.031,0.072-0.115,0.239-0.304,0.456c-0.032,0.037-0.068,0.075-0.106,0.115c-0.524,0.542-1.66,1.314-4.048,1.745
			c-0.81,0.114-1.558,0.121-2.196,0.041c-0.944-0.117-1.651-0.419-1.98-0.824c-0.028-0.035-0.055-0.071-0.08-0.107
			c-0.019-0.027-0.036-0.054-0.053-0.081c-0.006-0.01-0.011-0.021-0.017-0.03c-0.141-0.25-0.203-0.523-0.2-0.786
			c0.004-0.32,0.104-0.627,0.273-0.862c0.137-0.191,0.32-0.336,0.533-0.402c0.104-0.033,0.217-0.047,0.334-0.039
			c0.024,0.002,0.055,0.005,0.094,0.01c0.078,0.01,0.188,0.025,0.322,0.043c0.015,0.002,0.029,0.004,0.045,0.005
			c0.448,0.056,1.162,0.123,2.025,0.071c1.57-0.095,3.637-0.59,5.514-2.282l0.005-0.007v-0.001v-0.002
			c0.007-0.142-0.013-0.398-0.192-0.597c-0.031-0.035-0.068-0.068-0.109-0.098c-0.024-0.017-0.048-0.034-0.076-0.049
			c-0.028-0.015-0.053-0.031-0.077-0.046c-0.033-0.021-0.065-0.042-0.092-0.062l-0.004-0.006c-0.013-0.02-0.026-0.039-0.039-0.059
			c-0.487-0.737-1.157-1.165-1.425-1.361c-0.126-0.093-0.206-0.135-0.206-0.135c-0.579-0.353-0.664-0.47-0.61-1.428
			c0.019-0.345,0.057-0.798,0.095-1.413c0.005-0.08,0.008-0.156,0.009-0.231c0.001-0.018,0.001-0.035,0.001-0.053
			c0.001-0.071,0-0.139-0.003-0.206l-0.001-0.019l-0.002-0.021c-0.003-0.052-0.007-0.103-0.011-0.151
			c-0.002-0.022-0.004-0.043-0.007-0.065c-0.006-0.053-0.012-0.104-0.021-0.153c-0.004-0.025-0.009-0.049-0.014-0.074
			c-0.005-0.028-0.011-0.054-0.016-0.081c-0.006-0.026-0.011-0.053-0.018-0.077l0,0l0,0l0,0c-0.008-0.031-0.017-0.06-0.025-0.089
			c-0.003-0.011-0.005-0.022-0.009-0.032c-0.003-0.01-0.007-0.019-0.01-0.029l-0.003-0.01l-0.01-0.028l-0.001-0.002
			c-0.008-0.023-0.016-0.045-0.025-0.066l-0.002-0.007l-0.008-0.021l-0.01-0.025l-0.002-0.005l0,0v-0.001
			c-0.017-0.04-0.036-0.08-0.055-0.117l-0.015-0.027c-0.022-0.036-0.045-0.07-0.068-0.103l-0.009-0.014L20.137,45.9
			c-0.016-0.022-0.033-0.045-0.049-0.065l-0.022-0.028c-0.022-0.027-0.044-0.052-0.066-0.075l0,0
			c-0.027-0.029-0.055-0.056-0.083-0.081c-0.032-0.02-0.063-0.037-0.095-0.053c-0.01-0.005-0.021-0.009-0.031-0.014
			c-0.021-0.01-0.042-0.019-0.063-0.027c-0.012-0.005-0.024-0.008-0.036-0.012c-0.019-0.006-0.037-0.012-0.057-0.017
			c-0.012-0.003-0.025-0.006-0.037-0.008c-0.019-0.004-0.036-0.007-0.055-0.01c-0.013-0.002-0.025-0.003-0.037-0.004
			c-0.018-0.002-0.036-0.002-0.054-0.004C19.438,45.5,19.426,45.5,19.414,45.5c-0.019,0.001-0.037,0.001-0.056,0.002
			c-0.011,0.001-0.023,0.002-0.034,0.003L19.3,45.509c-0.011,0.002-0.022,0.003-0.034,0.005c-0.01,0.002-0.02,0.004-0.03,0.005
			c-0.023,0.005-0.046,0.011-0.068,0.017l-0.02,0.005c-0.06,0.018-0.119,0.04-0.179,0.068l-0.017,0.01
			c-0.023,0.011-0.046,0.022-0.069,0.034l-0.027,0.014c-0.021,0.011-0.042,0.022-0.063,0.034l-0.028,0.016
			c-0.021,0.012-0.041,0.024-0.062,0.037l-0.028,0.017c-0.021,0.013-0.043,0.027-0.065,0.041l-0.024,0.016
			c-0.024,0.016-0.048,0.032-0.072,0.048l-0.014,0.01c-0.027,0.019-0.055,0.037-0.083,0.057l-0.001,0.001l-0.004,0.002h0.001
			c-0.051,0.036-0.103,0.072-0.155,0.108c-0.043,0.03-0.088,0.061-0.133,0.091l-0.022,0.014c-0.045,0.03-0.091,0.06-0.136,0.089
			l-0.023,0.014c-0.046,0.028-0.092,0.056-0.138,0.083l-0.024,0.014c-0.046,0.027-0.094,0.051-0.142,0.074l-0.024,0.011
			c-0.048,0.023-0.098,0.045-0.148,0.063l-0.021,0.008c-0.052,0.019-0.104,0.036-0.158,0.05l-0.014,0.003
			c-0.056,0.014-0.113,0.026-0.171,0.034c-0.097,0.013-0.194,0.017-0.292,0.018c-0.159,0.001-0.319-0.012-0.479-0.036
			c-0.054-0.008-0.107-0.017-0.161-0.027c-0.019-0.004-0.038-0.007-0.057-0.01c-0.139-0.027-0.28-0.06-0.422-0.094
			c-0.059-0.014-0.119-0.028-0.179-0.043c-0.096-0.024-0.193-0.046-0.29-0.068c-0.019-0.004-0.037-0.009-0.057-0.013h0.001
			c-0.014-0.003-0.027-0.006-0.041-0.008c-0.022-0.005-0.043-0.009-0.065-0.014c-0.021-0.004-0.041-0.008-0.062-0.012l-0.011-0.002
			l-0.007-0.001c-0.019-0.004-0.037-0.008-0.057-0.011c-0.044-0.008-0.088-0.016-0.132-0.024c-0.013-0.002-0.027-0.004-0.039-0.006
			c-0.033-0.005-0.066-0.01-0.098-0.014c-0.017-0.002-0.033-0.004-0.049-0.006l-0.004-0.001c-0.029-0.004-0.057-0.007-0.086-0.01
			c-0.019-0.002-0.038-0.004-0.057-0.005c-0.008-0.001-0.018-0.001-0.026-0.002c-0.019-0.001-0.039-0.003-0.059-0.004
			c-0.019-0.001-0.037-0.002-0.057-0.003c-0.03-0.001-0.06-0.002-0.09-0.002c-0.009,0-0.018,0-0.027-0.001
			c-0.008,0-0.017-0.001-0.025-0.001c-0.037,0-0.075,0.001-0.112,0.002c-0.01,0.001-0.02,0-0.03,0.001
			c-0.048,0.002-0.096,0.006-0.144,0.011c-0.013,0.001-0.025,0.003-0.037,0.004c-0.031,0.004-0.062,0.008-0.094,0.013l-0.014,0.002
			c-0.017,0.002-0.034,0.006-0.051,0.009c-0.032,0.006-0.064,0.012-0.096,0.019c-0.019,0.004-0.037,0.008-0.056,0.013
			c-0.031,0.008-0.064,0.016-0.095,0.025c-0.018,0.005-0.036,0.01-0.054,0.016c-0.034,0.01-0.069,0.022-0.104,0.034
			c-0.016,0.005-0.031,0.01-0.047,0.016c-0.051,0.019-0.101,0.039-0.151,0.062c-0.398,0.229-0.74,0.542-1.011,0.906
			c-0.091,0.121-0.173,0.249-0.248,0.381c-0.079,0.139-0.147,0.285-0.206,0.433c-0.018,0.043-0.034,0.087-0.049,0.131
			c-0.026,0.074-0.051,0.149-0.072,0.224c-0.002,0.008-0.004,0.016-0.006,0.025c-0.024,0.085-0.043,0.171-0.06,0.258
			c-0.018,0.091-0.031,0.182-0.041,0.273c-0.005,0.049-0.01,0.099-0.014,0.148c-0.008,0.133-0.008,0.267,0.001,0.401
			c0.001,0.012,0.002,0.024,0.002,0.036c0.002,0.034,0.004,0.068,0.007,0.102c0.01,0.095,0.024,0.19,0.042,0.284
			c0.007,0.035,0.016,0.068,0.025,0.101c0.008,0.032,0.015,0.065,0.024,0.097l0,0c0.066,0.241,0.162,0.457,0.276,0.655
			c0.433,0.75,1.147,1.197,1.663,1.437c0.201,0.089,0.41,0.168,0.629,0.237c0,0-0.01,0.007-0.026,0.017
			c-0.039,0.01-0.083,0.022-0.133,0.036c-0.075,0.021-0.163,0.048-0.259,0.08c-0.108,0.036-0.228,0.08-0.353,0.132
			c-0.336,0.139-0.716,0.337-1.053,0.61c-0.042,0.034-0.084,0.069-0.124,0.106c-0.069,0.062-0.135,0.129-0.199,0.198
			c-0.007,0.008-0.015,0.016-0.022,0.024c-0.01,0.011-0.019,0.022-0.028,0.033c-0.024,0.028-0.048,0.057-0.071,0.086
			c-0.009,0.011-0.019,0.024-0.028,0.035c-0.03,0.04-0.06,0.081-0.088,0.123c-0.027,0.041-0.054,0.084-0.079,0.127
			c-0.2,0.349-0.313,0.766-0.278,1.265l0.001-0.005l0.001-0.004c0.001-0.004,0.002-0.011,0.004-0.019l0.001-0.004
			c0.001-0.008,0.004-0.016,0.006-0.027l0.001-0.006c0.002-0.011,0.006-0.024,0.01-0.039l0.002-0.009
			c0.004-0.015,0.008-0.031,0.014-0.049l0,0c0.005-0.018,0.011-0.036,0.017-0.056l0.004-0.012c0.007-0.02,0.014-0.04,0.022-0.062
			l0.004-0.01c0.007-0.02,0.015-0.041,0.024-0.062l0.004-0.01c0.01-0.023,0.02-0.046,0.031-0.071l0.007-0.015
			c0.011-0.025,0.024-0.049,0.037-0.075l0,0c0.001-0.001,0.001-0.002,0.002-0.003c0.02-0.038,0.042-0.076,0.066-0.115
			c0.009-0.014,0.018-0.029,0.027-0.044l0.008-0.012v-0.001c0.021-0.03,0.042-0.06,0.065-0.091c0.019-0.025,0.039-0.049,0.059-0.073
			c0.007-0.008,0.013-0.015,0.02-0.022c0.016-0.019,0.033-0.037,0.051-0.055c0.007-0.007,0.014-0.014,0.022-0.022
			c0.024-0.024,0.049-0.046,0.075-0.069l0.002-0.002l0,0l0,0c0,0-0.454,1.027-0.256,1.84c0,0,0-0.002,0-0.007
			c0-0.001,0-0.003,0-0.005c0-0.004,0-0.01,0-0.016c0-0.001,0-0.003,0-0.004c0-0.008,0-0.018,0.001-0.03c0-0.001,0-0.003,0-0.004
			c0-0.012,0.001-0.025,0.001-0.04c0-0.001,0-0.003,0-0.004c0.001-0.015,0.002-0.032,0.003-0.05c0-0.002,0-0.003,0.001-0.004
			c0.001-0.018,0.003-0.037,0.005-0.058c0-0.002,0.001-0.003,0.001-0.005c0.002-0.021,0.005-0.042,0.008-0.064
			c0-0.002,0.001-0.004,0.001-0.006c0.004-0.024,0.007-0.048,0.012-0.074l0.001-0.006l0.002-0.013v-0.001
			c0.005-0.028,0.012-0.057,0.02-0.087c0.001-0.002,0.001-0.004,0.001-0.006c0.008-0.029,0.016-0.058,0.025-0.087
			c0.003-0.009,0.006-0.018,0.008-0.027l0.007-0.019v-0.001c0.008-0.024,0.018-0.048,0.028-0.072l0.002-0.004l0,0
			c0.014-0.033,0.031-0.066,0.048-0.098c0.004-0.008,0.01-0.017,0.014-0.025c0.019-0.032,0.039-0.063,0.061-0.092l0.001-0.001l0,0
			l0,0l0,0c0,0-0.026,0.253-0.019,0.553c0.001,0.047,0.004,0.096,0.007,0.145c0.002,0.033,0.004,0.065,0.007,0.098
			c0.02-0.323,0.079-0.627,0.165-0.91c-0.086,0.283-0.145,0.587-0.165,0.91l0,0c-0.013,0.206-0.01,0.42,0.011,0.642
			c0.036,0.37,0.124,0.761,0.279,1.173c0,0-0.142-0.474,0.063-0.947c0.019,0.043,0.038,0.086,0.059,0.13
			c0.017,0.141,0.045,0.34,0.086,0.56c0.039,0.366,0.215,1.465,0.961,2.236c0,0-0.282-0.366-0.238-0.842
			c0.03,0.063,0.059,0.119,0.086,0.168c0.127,0.239,0.381,0.684,0.658,0.992c0,0-0.224-0.435-0.172-0.529
			c0,0,0.732,0.911,0.965,0.999l-0.306-0.508l-0.007-0.015c1.064,0.772,2.524,1.058,4.329,0.555c0.31-0.086,0.631-0.196,0.961-0.331
			c0.203-0.088,0.404-0.184,0.602-0.291l0.029-0.016c0.139-0.076,0.277-0.158,0.414-0.244l0.003-0.002
			c0.103-0.065,0.205-0.132,0.305-0.203c0.169-0.119,0.336-0.244,0.498-0.38h0.001l0.001-0.001c0.01-0.008,0.019-0.016,0.029-0.025
			c0.161-0.141,0.313-0.286,0.453-0.434c0.185-0.195,0.352-0.394,0.503-0.594l0.011-0.014c0.037-0.049,0.073-0.098,0.108-0.147
			l0.01-0.014c0.011-0.016,0.022-0.033,0.033-0.049c0.049-0.07,0.097-0.14,0.142-0.21c0.011-0.017,0.022-0.034,0.033-0.05
			c0.024-0.037,0.046-0.074,0.068-0.11c0.017-0.028,0.034-0.057,0.051-0.086c0.018-0.031,0.037-0.062,0.054-0.092
			c0.031-0.056,0.063-0.111,0.092-0.166c0.011-0.022,0.023-0.043,0.034-0.065c0.022-0.043,0.045-0.085,0.066-0.127
			c0.01-0.019,0.02-0.039,0.029-0.059l0.008-0.018c0.026-0.053,0.051-0.105,0.075-0.157l0.004-0.011
			c0.091-0.085,0.162-0.165,0.218-0.243c0.008-0.011,0.017-0.022,0.024-0.033C23.645,56.38,23.686,56.22,23.688,56.075z"/>
		<path fill="#FCE9CD" d="M6.727,53.394c-0.031,0.01-0.067,0.051-0.103,0.109c-0.013,0.021-0.027,0.045-0.039,0.069
			C6.489,53.752,6.403,54,6.403,54c0.007-0.083,0.016-0.17,0.026-0.256c0.001-0.01,0.002-0.02,0.004-0.03
			c0.011-0.088,0.023-0.177,0.036-0.266c0.001-0.011,0.003-0.021,0.005-0.032c0.015-0.1,0.031-0.199,0.048-0.294
			c0.002-0.013,0.004-0.025,0.007-0.037L6.53,53.08c0.002-0.011,0.004-0.022,0.006-0.033c0.003-0.016,0.006-0.033,0.009-0.049
			c0.014-0.075,0.028-0.149,0.042-0.218c0.013-0.063,0.025-0.122,0.036-0.178l0.004-0.018c0.002-0.009,0.004-0.017,0.005-0.025
			c0.002-0.008,0.004-0.017,0.005-0.025l0.001-0.003c0.003-0.014,0.006-0.028,0.009-0.042l0.001-0.004
			c0.002-0.013,0.005-0.024,0.008-0.037c0.004-0.019,0.008-0.039,0.013-0.057l0.001-0.005c0.003-0.014,0.007-0.03,0.009-0.043
			c0.004-0.019,0.008-0.037,0.012-0.054v-0.001v-0.001c0.002-0.01,0.004-0.018,0.006-0.027l0.001-0.002
			c0.002-0.008,0.004-0.016,0.005-0.024c0.004-0.018,0.008-0.034,0.011-0.046l0.002-0.011l0.001-0.004l0.003-0.013l0.002-0.009
			l0.001-0.001l-0.001,0.001l-0.019,0.018c-0.017,0.015-0.034,0.03-0.05,0.046l-0.018,0.019c-0.019,0.021-0.037,0.043-0.054,0.066
			l-0.009,0.011c-0.021,0.03-0.041,0.06-0.059,0.092l0,0l-0.002,0.004l0,0l-0.008,0.014c-0.004,0.008-0.008,0.016-0.013,0.024
			c-0.011,0.02-0.022,0.039-0.031,0.059l-0.001,0.001l-0.001,0.001L6.456,52.51l-0.004,0.007l-0.004,0.007
			c-0.015,0.031-0.029,0.063-0.042,0.093c-0.036,0.086-0.065,0.169-0.086,0.238c-0.007,0.024-0.014,0.048-0.02,0.068
			c-0.012,0.044-0.021,0.079-0.025,0.096v0.002l-0.002,0.011l0,0l0,0l0.001-0.013c0.001-0.027,0.004-0.053,0.007-0.079
			c0.004-0.055,0.008-0.11,0.014-0.165c0.005-0.046,0.012-0.091,0.019-0.137c0.002-0.014,0.004-0.029,0.007-0.043
			c0.003-0.021,0.006-0.042,0.009-0.063c0.003-0.02,0.007-0.039,0.011-0.058v-0.001l0,0l0.004-0.022l0.001-0.006
			c0.004-0.024,0.009-0.048,0.013-0.071c0.002-0.009,0.003-0.018,0.005-0.027l0.003-0.016l0.001-0.003
			c0.002-0.008,0.003-0.016,0.005-0.023c0.002-0.01,0.004-0.019,0.007-0.028c0.008-0.034,0.016-0.068,0.024-0.103l0.001-0.006
			c0.006-0.025,0.011-0.051,0.018-0.076V52.09l0.001-0.002l0.002-0.007c0.013-0.051,0.028-0.102,0.043-0.152l0.004-0.014
			l0.004-0.014c0.003-0.01,0.005-0.019,0.008-0.029c0.025-0.082,0.051-0.163,0.078-0.243l0.004-0.01
			c0.024-0.067,0.048-0.133,0.073-0.199l0.003-0.007c0.011-0.029,0.023-0.056,0.034-0.084l0.002-0.004
			c0.018-0.042,0.034-0.085,0.052-0.126v-0.001l0,0l0.001-0.001l0.002-0.005c0.005-0.01,0.016-0.035,0.033-0.072l0.001-0.001
			l0.002-0.005l0,0c0.007-0.014,0.013-0.028,0.019-0.043c0.01-0.024,0.021-0.046,0.031-0.069l0.01-0.02
			c-0.014-0.008-0.03-0.015-0.045-0.023l-0.008-0.004l-0.016-0.008c-0.098-0.047-0.202-0.084-0.308-0.112l-0.017-0.004
			c-0.069-0.017-0.139-0.03-0.21-0.039l0,0c-0.042-0.005-0.083-0.008-0.125-0.01c-0.035-0.001-0.07-0.002-0.106-0.001
			c-0.053,0.001-0.106,0.005-0.158,0.011C5.82,50.794,5.803,50.798,5.788,50.8c-0.025,0.004-0.051,0.009-0.076,0.013
			c-0.01,0.002-0.021,0.004-0.03,0.005c-0.018,0.004-0.036,0.007-0.053,0.012c-0.034,0.008-0.068,0.018-0.102,0.029
			c-0.016,0.005-0.031,0.009-0.046,0.014c-0.045,0.016-0.09,0.033-0.134,0.053c-0.018,0.008-0.034,0.017-0.051,0.025
			c-0.02,0.01-0.04,0.021-0.059,0.03l-0.021,0.01c-0.022,0.012-0.043,0.025-0.063,0.037c-0.019,0.012-0.039,0.024-0.058,0.037
			c-0.023,0.015-0.046,0.031-0.068,0.047c-0.013,0.01-0.027,0.021-0.04,0.031c-0.036,0.028-0.069,0.059-0.103,0.089
			c-0.018,0.016-0.034,0.033-0.05,0.049c-0.029,0.029-0.058,0.059-0.084,0.089l-0.013,0.016c-0.014,0.017-0.027,0.034-0.04,0.052
			l-0.002,0.002l-0.002,0.002c-0.009,0.012-0.019,0.023-0.027,0.035l-0.004,0.005L4.658,51.49v0.001v0.001
			c-0.054,0.075-0.101,0.156-0.142,0.239c-0.006,0.012-0.011,0.024-0.017,0.036c-0.019,0.041-0.036,0.083-0.052,0.125
			c-0.006,0.017-0.013,0.033-0.019,0.05l0,0l0,0l0,0c-0.014,0.043-0.027,0.088-0.038,0.133l-0.004,0.017l-0.004,0.021l-0.001,0.002
			c-0.007,0.033-0.014,0.065-0.02,0.099c-0.002,0.016-0.004,0.033-0.007,0.049l-0.001,0.005c-0.002,0.017-0.004,0.036-0.005,0.053
			c-0.002,0.013-0.004,0.027-0.005,0.04c-0.004,0.053-0.005,0.105-0.004,0.159c0.001,0.042,0.005,0.082,0.008,0.123l0.001,0.002
			l0.001,0.019c0.002,0.022,0.006,0.045,0.01,0.067c0.012,0.081,0.029,0.161,0.052,0.238c0.017,0.059,0.038,0.116,0.062,0.171
			c0.043,0.103,0.097,0.199,0.158,0.289c0.129,0.191,0.295,0.355,0.489,0.48c0.11,0.071,0.229,0.129,0.354,0.173
			c0.121,0.043,0.246,0.074,0.377,0.088c0.03,0.003,0.059,0.005,0.089,0.007c0.045,0.003,0.089,0.005,0.135,0.004
			c0.042-0.001,0.083-0.006,0.124-0.01c0.024-0.002,0.048-0.002,0.071-0.006c0.059-0.008,0.117-0.021,0.174-0.034l0.013-0.003
			c0.024-0.006,0.046-0.015,0.069-0.022c0.072-0.022,0.142-0.048,0.209-0.08l0.014-0.007c0.019-0.008,0.038-0.016,0.057-0.025
			l0.002-0.001c-0.033-0.182-0.058-0.369-0.076-0.559C6.73,53.421,6.728,53.408,6.727,53.394z"/>
		<polygon fill="none" points="2.501,54.502 2.5,54.5 2.5,54.5 2.5,54.501 2.502,54.504 		"/>
		<polygon fill="#4D9ED7" points="13.805,38.585 13.837,38.601 13.837,38.596 		"/>
		<path fill="#FFFFFF" d="M23.04,55.646c-0.002-0.009-0.004-0.017-0.006-0.025c-0.005-0.02-0.009-0.035-0.012-0.045
			c-0.051-0.167-0.116-0.297-0.174-0.39c-0.074-0.12-0.136-0.179-0.136-0.179c0.013-0.042,0.022-0.083,0.031-0.124
			c0.011-0.053,0.02-0.105,0.026-0.156c0.045-0.38-0.057-0.676-0.139-0.843c-0.013-0.027-0.025-0.049-0.036-0.07
			c-0.059,0.042-0.118,0.083-0.177,0.123c-1.127,0.763-2.396,1.253-3.771,1.464c-0.947,0.145-1.943,0.159-2.979,0.033l0.018,0.005
			c0,0-0.624,0.086-0.794,0.684l0.011,0.006l-0.052,0.402c0.018,0.544,0.267,0.884,0.55,1.063c0.294,0.112,0.649,0.198,1.044,0.247
			c0.687,0.085,1.474,0.063,2.279-0.065l0.004-0.001l0.004-0.001c1.07-0.144,2.58-0.715,3.659-1.452
			c0.246-0.168,0.47-0.345,0.661-0.526l0.007-0.007l0.013-0.013C23.06,55.726,23.049,55.681,23.04,55.646z"/>
		<path fill="#F2D2AC" d="M20.999,50.462c-0.579-0.353-0.664-0.47-0.61-1.428c0.019-0.345,0.057-0.798,0.095-1.413
			c0.005-0.08,0.008-0.156,0.009-0.231c0.001-0.018,0.001-0.035,0.001-0.053c0.001-0.071,0-0.139-0.003-0.206l-0.001-0.019
			l-0.002-0.021c-0.003-0.052-0.007-0.103-0.011-0.151c-0.002-0.022-0.004-0.043-0.007-0.065c-0.006-0.053-0.012-0.104-0.021-0.153
			c-0.004-0.025-0.009-0.049-0.014-0.074c-0.005-0.028-0.011-0.054-0.016-0.081c-0.006-0.026-0.011-0.053-0.018-0.077l0,0l0,0
			c-0.083-0.123-0.18-0.232-0.296-0.326l-0.022-0.017l-0.004-0.004l-0.017-0.013l-0.006-0.004c-0.016-0.013-0.034-0.025-0.051-0.037
			c-0.019-0.012-0.037-0.024-0.056-0.036c-0.171-0.104-0.362-0.17-0.566-0.2c-0.113-0.016-0.23-0.022-0.349-0.018
			c-0.056,0.002-0.112,0.007-0.169,0.014c-0.148,0.018-0.299,0.049-0.453,0.095c-0.051,0.036-0.103,0.072-0.155,0.108
			c-0.043,0.03-0.088,0.061-0.133,0.091l-0.022,0.014c-0.045,0.03-0.091,0.06-0.136,0.089l-0.023,0.014
			c-0.046,0.028-0.092,0.056-0.138,0.083l-0.024,0.014c-0.046,0.027-0.094,0.051-0.142,0.074l-0.024,0.011
			c-0.048,0.023-0.098,0.045-0.148,0.063l-0.021,0.008c-0.052,0.019-0.104,0.036-0.158,0.05l-0.014,0.003
			c-0.056,0.014-0.113,0.026-0.171,0.034c-0.097,0.013-0.194,0.017-0.292,0.018c-0.159,0.001-0.319-0.012-0.479-0.036
			c-0.054-0.008-0.107-0.018-0.161-0.027c-0.019-0.004-0.038-0.007-0.057-0.01c-0.139-0.027-0.28-0.06-0.422-0.094
			c-0.059-0.014-0.119-0.028-0.179-0.043c-0.096-0.024-0.193-0.046-0.29-0.068c-0.019-0.004-0.037-0.009-0.057-0.013
			c-0.081,0.004-0.163,0.013-0.245,0.022l-0.018,0.002c-0.238,0.031-0.477,0.088-0.713,0.17c-0.013,0.004-0.026,0.008-0.039,0.013
			c-0.037,0.013-0.074,0.028-0.11,0.042c-0.049,0.019-0.098,0.04-0.147,0.062c-0.342,0.151-0.674,0.357-0.983,0.617
			c-0.125,0.106-0.242,0.218-0.352,0.334c-0.168,0.179-0.317,0.369-0.447,0.567c-0.007,0.011-0.014,0.022-0.021,0.033
			c-0.069,0.108-0.133,0.217-0.191,0.329c-0.021,0.04-0.042,0.08-0.061,0.12l-0.004,0.008c-0.062,0.132-0.116,0.265-0.162,0.4
			c-0.002,0.008-0.005,0.016-0.007,0.024c-0.007,0.019-0.011,0.039-0.018,0.059c-0.02,0.063-0.038,0.126-0.054,0.188
			c-0.017,0.065-0.033,0.131-0.046,0.197c-0.002,0.014-0.006,0.028-0.008,0.042c-0.008,0.04-0.014,0.08-0.021,0.12
			c-0.022,0.147-0.034,0.294-0.037,0.441c-0.001,0.037-0.002,0.074-0.002,0.11c0.066,0.241,0.162,0.457,0.276,0.655
			c0.433,0.75,1.147,1.197,1.663,1.437c0.201,0.089,0.41,0.168,0.629,0.237l0.005,0.01l0,0l0.001-0.001l0.014-0.011
			c0.028-0.021,0.056-0.042,0.084-0.063c0.01-0.008,0.021-0.015,0.031-0.023c0.03-0.021,0.059-0.043,0.09-0.065
			c0.01-0.007,0.021-0.014,0.031-0.022c0.031-0.022,0.063-0.043,0.095-0.065c0.011-0.007,0.022-0.014,0.033-0.021
			c0.033-0.022,0.066-0.043,0.1-0.065c0.011-0.007,0.022-0.014,0.034-0.021c0.034-0.021,0.069-0.042,0.104-0.063
			c0.012-0.007,0.024-0.014,0.036-0.022c0.035-0.021,0.071-0.042,0.107-0.062c0.013-0.007,0.027-0.014,0.04-0.022
			c0.036-0.021,0.072-0.04,0.11-0.06c0.014-0.008,0.03-0.016,0.045-0.024c0.037-0.019,0.074-0.039,0.112-0.058
			c0.016-0.008,0.033-0.016,0.049-0.024c0.037-0.019,0.075-0.037,0.114-0.056c0.018-0.008,0.037-0.017,0.055-0.026
			c0.037-0.018,0.075-0.036,0.114-0.053c0.02-0.009,0.041-0.018,0.062-0.028c0.037-0.016,0.075-0.033,0.114-0.049
			c0.023-0.01,0.046-0.019,0.069-0.029c0.037-0.016,0.075-0.031,0.114-0.046c0.025-0.01,0.052-0.021,0.078-0.031
			c0.037-0.014,0.075-0.029,0.113-0.043c0.028-0.011,0.057-0.022,0.086-0.032c0.037-0.013,0.074-0.027,0.111-0.04
			c0.032-0.011,0.064-0.022,0.097-0.033c0.036-0.013,0.072-0.025,0.109-0.037c0.035-0.012,0.071-0.023,0.106-0.034
			c0.035-0.011,0.07-0.023,0.106-0.034c0.039-0.012,0.079-0.024,0.119-0.036c0.033-0.01,0.067-0.02,0.101-0.03
			c0.043-0.013,0.088-0.025,0.132-0.037c0.022-0.006,0.043-0.013,0.066-0.019c0.171-0.431,0.68-1.502,1.552-1.619
			c0.094-0.013,0.179-0.019,0.258-0.019c0.02,0,0.042-0.002,0.06-0.001c-0.01-0.062-0.018-0.127-0.022-0.194
			c-0.027-0.461,0.115-0.844,0.317-0.857c0.156-0.013,0.281,0.216,0.302,0.296c0.059,0.14,0.101,0.319,0.113,0.518
			c0.011,0.182-0.006,0.349-0.041,0.489c0.017,0.018,0.032,0.038,0.048,0.057c0.2,0.248,0.234,0.591,0.225,0.835
			c0.078-0.008,0.158-0.014,0.237-0.022c0.021-0.002,0.04-0.004,0.061-0.005l0.013-0.001c0.011-0.001,0.023-0.002,0.034-0.003
			c0.098-0.008,0.199-0.016,0.299-0.023h0.004c0.229-0.016,0.465-0.03,0.707-0.04C21.08,50.504,20.999,50.462,20.999,50.462z"/>
		<path fill="#F2D2AC" d="M23.193,56.919c-0.381,0.34-0.781,0.613-1.177,0.831c-0.198,0.109-0.394,0.203-0.588,0.288
			c-0.43,0.188-0.843,0.317-1.206,0.406c-0.802,0.196-1.368,0.196-1.368,0.196c0.439,0.243,0.994,0.245,1.375,0.206
			c0.262-0.026,0.442-0.071,0.442-0.071c-0.008,0.161-0.028,0.309-0.057,0.448c-0.032,0.153-0.075,0.292-0.128,0.419l-0.004,0.011
			l-0.001,0.001c-0.065,0.158-0.144,0.295-0.232,0.417c-0.01,0.013-0.019,0.027-0.028,0.04l0.029-0.016
			c0.139-0.076,0.277-0.158,0.414-0.244l0.003-0.002c0.103-0.065,0.205-0.132,0.305-0.203c0.169-0.119,0.336-0.244,0.498-0.38h0.001
			l0.001-0.001c0.01-0.008,0.019-0.016,0.029-0.025c0.161-0.141,0.313-0.286,0.453-0.434c0.185-0.195,0.352-0.394,0.503-0.594
			l0.011-0.014c0.037-0.049,0.073-0.098,0.108-0.147l0.01-0.014c0.011-0.016,0.022-0.033,0.033-0.049
			c0.049-0.07,0.097-0.14,0.142-0.21c0.011-0.017,0.022-0.034,0.033-0.05c0.024-0.037,0.046-0.074,0.068-0.11
			c0.017-0.028,0.034-0.057,0.051-0.086c0.018-0.031,0.037-0.062,0.054-0.092c0.031-0.056,0.063-0.111,0.092-0.166
			c0.011-0.022,0.023-0.043,0.034-0.065c0.022-0.043,0.045-0.085,0.066-0.127c0.01-0.019,0.02-0.039,0.029-0.059l0.008-0.018
			c0.026-0.053,0.051-0.105,0.075-0.157C23.245,56.873,23.219,56.895,23.193,56.919z"/>
		<path fill="#F2D2AC" d="M13.633,52.695c-0.108,0.036-0.228,0.08-0.353,0.132c-0.336,0.139-0.716,0.337-1.053,0.61
			c-0.042,0.034-0.084,0.069-0.124,0.106c-0.069,0.062-0.135,0.129-0.199,0.198c-0.007,0.008-0.015,0.016-0.022,0.024
			c-0.01,0.011-0.019,0.022-0.028,0.033c-0.024,0.028-0.048,0.057-0.071,0.086c-0.009,0.011-0.019,0.024-0.028,0.035
			c-0.03,0.04-0.06,0.081-0.088,0.123c-0.027,0.041-0.054,0.084-0.079,0.127c-0.2,0.349-0.313,0.766-0.278,1.265l0.001-0.005
			l0.001-0.004c0.001-0.004,0.002-0.011,0.004-0.019l0.001-0.004c0.001-0.008,0.004-0.016,0.006-0.027l0.001-0.006
			c0.002-0.011,0.006-0.024,0.01-0.039l0.002-0.009c0.004-0.015,0.008-0.031,0.014-0.049l0,0c0.005-0.018,0.011-0.036,0.017-0.056
			l0.004-0.012c0.007-0.02,0.014-0.04,0.022-0.062l0.004-0.01c0.007-0.02,0.015-0.041,0.024-0.062l0.004-0.01
			c0.01-0.023,0.02-0.046,0.031-0.071l0.007-0.015c0.011-0.025,0.024-0.049,0.037-0.075l0,0c0.001-0.001,0.001-0.002,0.002-0.003
			c0.02-0.038,0.042-0.076,0.066-0.115c0.009-0.014,0.018-0.029,0.027-0.044l0.008-0.012v-0.001c0.021-0.03,0.042-0.06,0.065-0.091
			c0.019-0.025,0.039-0.049,0.059-0.073c0.007-0.008,0.013-0.015,0.02-0.022c0.016-0.019,0.033-0.037,0.051-0.055
			c0.007-0.007,0.014-0.014,0.022-0.022c0.024-0.024,0.049-0.046,0.075-0.069l0.002-0.002l0,0l0,0c0,0-0.454,1.027-0.256,1.84
			c0,0,0-0.002,0-0.007c0-0.001,0-0.003,0-0.005c0-0.004,0-0.01,0-0.016c0-0.001,0-0.003,0-0.004c0-0.008,0-0.018,0.001-0.03
			c0-0.001,0-0.003,0-0.004c0-0.012,0.001-0.025,0.001-0.04c0-0.001,0-0.003,0-0.004c0.001-0.015,0.002-0.032,0.003-0.05
			c0-0.002,0-0.003,0.001-0.004c0.001-0.018,0.003-0.037,0.005-0.058c0-0.002,0.001-0.003,0.001-0.005
			c0.002-0.021,0.005-0.042,0.008-0.064c0-0.002,0.001-0.004,0.001-0.006c0.004-0.024,0.007-0.048,0.012-0.074l0.001-0.006
			l0.002-0.013v-0.001c0.005-0.028,0.012-0.057,0.02-0.087c0.001-0.002,0.001-0.004,0.001-0.006
			c0.008-0.029,0.016-0.058,0.025-0.087c0.003-0.009,0.006-0.018,0.008-0.027l0.007-0.019v-0.002
			c0.008-0.024,0.018-0.048,0.028-0.072l0.002-0.004l0,0c0.014-0.033,0.031-0.066,0.048-0.098c0.004-0.008,0.01-0.017,0.014-0.025
			c0.019-0.032,0.039-0.063,0.061-0.092l0.001-0.001l0,0l0,0l0,0c0,0-0.026,0.253-0.019,0.553c0.001,0.047,0.004,0.096,0.007,0.145
			c0.002,0.033,0.004,0.065,0.007,0.098c0.02-0.323,0.079-0.627,0.165-0.91c0.024-0.078,0.05-0.154,0.078-0.229
			c0.004-0.011,0.008-0.022,0.011-0.033c0.027-0.071,0.056-0.14,0.085-0.208c0.006-0.013,0.011-0.025,0.017-0.038
			c0.03-0.067,0.062-0.133,0.094-0.197c0.005-0.01,0.01-0.02,0.016-0.03c0.069-0.134,0.144-0.262,0.222-0.383
			c0.005-0.009,0.011-0.018,0.017-0.027c0.03-0.045,0.06-0.089,0.09-0.132c0.008-0.011,0.016-0.024,0.024-0.035
			c0.007-0.01,0.014-0.021,0.022-0.03c0.039-0.053,0.077-0.105,0.116-0.156c0.007-0.008,0.013-0.016,0.019-0.024
			c0.041-0.052,0.081-0.102,0.122-0.15l0.002-0.002c0.051-0.061,0.103-0.119,0.153-0.174c0.037-0.04,0.074-0.08,0.111-0.117
			c0.014-0.014,0.028-0.028,0.042-0.042c0.088-0.088,0.172-0.168,0.25-0.238c0.236-0.211,0.419-0.342,0.484-0.385
			c-0.039,0.01-0.083,0.022-0.133,0.036C13.816,52.636,13.729,52.662,13.633,52.695z"/>
		<path fill="#F2D2AC" d="M19.667,50.422c0,0-0.002-0.026-0.012-0.066c-0.037-0.15-0.185-0.504-0.769-0.448
			c-0.611,0.059-0.815,0.552-0.868,0.719c-0.011,0.035-0.016,0.057-0.016,0.057l0.016,0.014c0.077-0.066,0.225-0.058,0.359,0.027
			c0.061,0.039,0.11,0.088,0.144,0.139l0,0c0.052,0.08,0.066,0.165,0.03,0.229c-0.008,0.014-0.017,0.025-0.029,0.036
			c0,0,0.024,0.009,0.063,0.021c0.17,0.05,0.64,0.148,0.894-0.18c0.012-0.016,0.025-0.031,0.036-0.048
			c-0.05-0.025-0.078-0.099-0.078-0.186c-0.001-0.042,0.005-0.087,0.019-0.132C19.498,50.466,19.593,50.384,19.667,50.422z"/>
		<path fill="#F2D2AC" d="M16.64,54.907c-0.395,0.081-0.74,0.142-1.008,0.185c0.015,0.002,0.029,0.004,0.045,0.005
			c0.448,0.056,1.162,0.123,2.025,0.071c1.57-0.095,3.637-0.59,5.514-2.282l0.005-0.007v-0.001v-0.002
			c0.007-0.142-0.013-0.398-0.192-0.597c-0.031-0.035-0.068-0.068-0.109-0.098c-0.007-0.004-0.013-0.008-0.021-0.013
			c-0.049-0.028-0.092-0.056-0.132-0.083c-0.033-0.021-0.065-0.042-0.092-0.062l-0.004-0.006c-0.115,0.166-0.249,0.323-0.399,0.474
			c-0.053,0.053-0.109,0.104-0.166,0.156c-0.518,0.466-1.187,0.855-1.909,1.175C18.995,54.353,17.654,54.698,16.64,54.907z"/>
		<path fill="#F2D2AC" d="M6.701,52.172c-0.017,0.015-0.034,0.03-0.05,0.046l-0.017,0.019c-0.019,0.021-0.037,0.043-0.054,0.066
			L6.57,52.315c-0.021,0.03-0.041,0.06-0.059,0.092l0,0l-0.002,0.004l0,0l-0.008,0.014c-0.004,0.008-0.008,0.016-0.013,0.024
			c-0.011,0.02-0.022,0.039-0.031,0.059l-0.001,0.001l-0.001,0.001L6.455,52.51l-0.004,0.007l-0.004,0.007
			c-0.015,0.031-0.029,0.063-0.042,0.093c-0.036,0.086-0.065,0.169-0.086,0.238c-0.007,0.024-0.014,0.048-0.02,0.068
			c-0.012,0.044-0.021,0.079-0.025,0.096v0.002l-0.002,0.011l0,0l0,0l0.001-0.013c0.001-0.027,0.004-0.053,0.007-0.079
			c0.004-0.055,0.008-0.11,0.014-0.165c0.005-0.046,0.012-0.091,0.019-0.137c0.002-0.014,0.004-0.029,0.007-0.043
			c0.003-0.021,0.006-0.042,0.009-0.063c0.003-0.02,0.007-0.039,0.011-0.058v-0.001l0,0l0.004-0.022l0.001-0.006
			c0.004-0.024,0.009-0.048,0.013-0.071c0.002-0.009,0.003-0.018,0.005-0.027l0.003-0.016l0.001-0.003
			c0.002-0.008,0.003-0.016,0.005-0.023c0.002-0.01,0.004-0.019,0.007-0.028c0.008-0.034,0.016-0.068,0.024-0.103l0.001-0.006
			c0.006-0.025,0.011-0.051,0.018-0.076V52.09l0.001-0.002l0.002-0.007c0.013-0.051,0.028-0.102,0.043-0.152l0.004-0.014
			l0.004-0.014c0.003-0.01,0.005-0.019,0.008-0.029c0.025-0.082,0.051-0.163,0.078-0.243l0.004-0.01
			c0.024-0.067,0.048-0.133,0.073-0.199l0.003-0.007c0.011-0.029,0.023-0.056,0.034-0.084l0.002-0.004
			c0.018-0.042,0.034-0.085,0.052-0.126v-0.001l0,0l0.001-0.001l0.002-0.005c0.005-0.01,0.016-0.035,0.033-0.072l0.001-0.001
			l0.002-0.005l0,0c0.007-0.014,0.013-0.028,0.019-0.043c0.01-0.024,0.021-0.046,0.031-0.069l0.01-0.02
			c-0.014-0.008-0.03-0.015-0.045-0.023l-0.008-0.004l-0.016-0.008c-0.098-0.047-0.202-0.084-0.308-0.112l-0.017-0.004
			c-0.069-0.017-0.139-0.03-0.21-0.039l0,0c-0.042-0.005-0.083-0.008-0.125-0.01c-0.035-0.001-0.07-0.002-0.106-0.001
			c-0.053,0.001-0.106,0.005-0.158,0.011c-0.016,0.002-0.033,0.005-0.048,0.007c-0.025,0.004-0.051,0.009-0.076,0.013
			c-0.01,0.002-0.021,0.004-0.03,0.005c-0.018,0.004-0.036,0.007-0.053,0.012c-0.034,0.008-0.068,0.018-0.102,0.029
			c-0.016,0.005-0.031,0.009-0.046,0.014c-0.045,0.016-0.09,0.033-0.134,0.053c-0.018,0.008-0.034,0.017-0.051,0.025
			c-0.02,0.01-0.04,0.02-0.059,0.03l-0.021,0.01c-0.022,0.012-0.043,0.025-0.063,0.037c-0.019,0.012-0.039,0.024-0.058,0.037
			c-0.023,0.015-0.046,0.031-0.068,0.047c-0.013,0.01-0.027,0.021-0.04,0.031c-0.036,0.028-0.069,0.059-0.103,0.089
			c-0.018,0.016-0.034,0.033-0.05,0.049c-0.029,0.029-0.057,0.059-0.084,0.089l-0.013,0.016c-0.014,0.017-0.027,0.034-0.04,0.052
			l-0.002,0.002l-0.002,0.002c-0.009,0.012-0.019,0.023-0.027,0.035l-0.004,0.005L4.657,51.49v0.001v0.001
			c-0.054,0.075-0.101,0.156-0.142,0.239c-0.006,0.012-0.011,0.024-0.017,0.036c-0.019,0.041-0.036,0.083-0.053,0.125
			c-0.006,0.017-0.013,0.033-0.019,0.05l0,0l0,0c0.003,0.011,0.007,0.021,0.01,0.032c0.011,0.038,0.024,0.075,0.036,0.11
			l0.004,0.012l0.005,0.013c0.013,0.037,0.027,0.072,0.04,0.106c0.042,0.105,0.087,0.199,0.132,0.282
			c0.007,0.012,0.013,0.025,0.02,0.037l0.005,0.008l0.006,0.01c0.033,0.059,0.066,0.112,0.097,0.158
			c0.048,0.073,0.091,0.128,0.121,0.165c0.007,0.008,0.012,0.015,0.017,0.021c0.004,0.005,0.008,0.01,0.013,0.014
			c0.011,0.013,0.019,0.021,0.019,0.021c-0.004-0.019-0.007-0.037-0.01-0.056C4.914,52.742,4.9,52.61,4.897,52.48v-0.008
			l-0.001-0.015c-0.001-0.083,0-0.165,0.007-0.245l0,0l0,0c0.008,0.031,0.017,0.06,0.027,0.09c0.014,0.044,0.028,0.088,0.043,0.129
			l0.005,0.015l0.002,0.005c0.065,0.177,0.139,0.325,0.209,0.445c0.083,0.144,0.159,0.245,0.205,0.301
			c0.009,0.011,0.017,0.021,0.024,0.028c0.013,0.015,0.02,0.022,0.02,0.022c-0.033-0.142-0.049-0.283-0.055-0.421
			c-0.002-0.046-0.004-0.093-0.002-0.138c0.001-0.058,0.004-0.115,0.008-0.172l0,0l0,0c0.025,0.097,0.054,0.186,0.086,0.27
			l0.002,0.007c0.112,0.303,0.25,0.526,0.345,0.658l0.011,0.014c0.017,0.022,0.031,0.042,0.045,0.059
			c0.009,0.011,0.018,0.022,0.025,0.031c0.009,0.011,0.016,0.019,0.022,0.025c0.007,0.008,0.011,0.013,0.011,0.013l-0.004-0.02
			c-0.004-0.02-0.008-0.04-0.012-0.059c-0.014-0.071-0.023-0.142-0.03-0.212c-0.004-0.046-0.009-0.094-0.01-0.139
			c-0.002-0.044-0.001-0.087-0.001-0.13c0-0.008,0.001-0.016,0.001-0.024c0.001-0.022,0.001-0.045,0.002-0.067l0.001-0.014
			l0.001-0.01c0.004-0.057,0.008-0.113,0.015-0.168l0,0l0,0c0.011,0.037,0.022,0.072,0.034,0.106
			c0.009,0.026,0.018,0.051,0.027,0.076l0.002,0.005l0.003,0.008l0.005,0.015c0.011,0.03,0.023,0.059,0.035,0.088
			c0.022,0.053,0.045,0.103,0.068,0.15c0.028,0.058,0.057,0.112,0.084,0.161c0.016,0.028,0.031,0.054,0.046,0.078
			c0.019,0.031,0.038,0.06,0.056,0.087c0.016,0.024,0.031,0.046,0.046,0.066c0.004,0.005,0.007,0.01,0.011,0.015
			c0.013,0.018,0.027,0.036,0.038,0.05c0.008,0.011,0.016,0.021,0.024,0.03c0.019,0.023,0.032,0.038,0.038,0.044l0.004,0.004
			l0.012,0.008c0.001-0.01,0.002-0.02,0.004-0.03c0.011-0.088,0.023-0.177,0.036-0.266c0.001-0.011,0.003-0.021,0.005-0.032
			c0.015-0.1,0.031-0.199,0.048-0.294c0.002-0.013,0.004-0.025,0.007-0.037l0.001-0.006c0.002-0.011,0.004-0.022,0.006-0.033
			c0.003-0.016,0.006-0.033,0.009-0.049c0.014-0.075,0.028-0.149,0.042-0.218c0.013-0.063,0.025-0.122,0.036-0.178l0.004-0.018
			c0.002-0.009,0.004-0.017,0.005-0.025c0.002-0.008,0.004-0.017,0.005-0.025l0.001-0.003c0.003-0.014,0.006-0.028,0.009-0.042
			l0.001-0.004c0.002-0.013,0.005-0.024,0.008-0.037c0.004-0.019,0.008-0.039,0.013-0.057l0.001-0.005
			c0.003-0.014,0.007-0.03,0.009-0.043c0.004-0.019,0.008-0.037,0.012-0.054v-0.001v-0.001c0.002-0.01,0.004-0.018,0.006-0.027
			l0.001-0.002c0.002-0.008,0.004-0.016,0.005-0.024c0.004-0.017,0.008-0.034,0.011-0.046l0.002-0.011l0.001-0.004l0.003-0.013
			l0.002-0.009l0.001-0.001l-0.001,0.001L6.701,52.172z"/>
		<path fill="#F2D2AC" d="M19.409,56.559c0.148-0.051,0.277-0.092,0.377-0.136c0.2-0.086,0.308-0.143,0.302-0.164
			c-0.007-0.022-0.128-0.005-0.341,0.043c-0.107,0.025-0.236,0.046-0.384,0.08c-0.074,0.017-0.155,0.028-0.24,0.044
			c-0.085,0.014-0.175,0.033-0.269,0.043c-0.186,0.027-0.4,0.051-0.626,0.077c-0.112,0.009-0.227,0.019-0.346,0.028
			c-0.119,0.006-0.243,0.012-0.369,0.018c-0.504,0.014-1.06-0.008-1.626-0.112c-0.299-0.053-0.698-0.188-0.984-0.351l-0.011-0.006
			c0.17-0.599,0.794-0.684,0.794-0.684l-0.018-0.005c-0.01-0.001-0.021-0.002-0.031-0.004c-0.091-0.011-0.171-0.022-0.239-0.031
			c-0.049-0.007-0.092-0.013-0.128-0.017c-0.035-0.004-0.06-0.007-0.074-0.008c-0.376-0.026-0.582,0.293-0.654,0.431
			c-0.01,0.02-0.019,0.04-0.029,0.061c-0.054,0.124-0.091,0.266-0.1,0.417c-0.019,0.281,0.054,0.59,0.27,0.853
			c0.144,0.177,0.394,0.334,0.719,0.457c-0.283-0.179-0.532-0.52-0.55-1.063c0.32,0.138,0.694,0.222,0.975,0.272
			c0.601,0.11,1.181,0.124,1.702,0.092c0.13-0.011,0.257-0.021,0.38-0.033c0.123-0.016,0.243-0.031,0.359-0.046
			c0.226-0.038,0.434-0.075,0.629-0.118c0.098-0.018,0.188-0.045,0.273-0.068C19.254,56.604,19.335,56.585,19.409,56.559z"/>
		<path fill="#664F44" d="M18.911,49.549c0.314,0.007,0.527,0.107,0.669,0.252c0.034-0.14,0.052-0.307,0.04-0.489
			c-0.012-0.199-0.054-0.378-0.113-0.518c-0.021-0.08-0.146-0.308-0.302-0.296c-0.202,0.012-0.343,0.396-0.316,0.857
			C18.893,49.422,18.9,49.487,18.911,49.549z"/>
		<path fill="#664F44" d="M19.441,50.738c0.001,0.088,0.028,0.161,0.078,0.186c0.075,0.037,0.169-0.045,0.211-0.183
			c0.004-0.012,0.006-0.024,0.009-0.036v-0.001c0.027-0.126-0.001-0.247-0.068-0.281c-0.074-0.037-0.169,0.044-0.211,0.182
			C19.447,50.651,19.441,50.696,19.441,50.738z"/>
		<path fill="#664F44" d="M18.015,50.96c0.033,0.054,0.083,0.106,0.148,0.147c0.136,0.086,0.286,0.093,0.363,0.024
			c0.011-0.01,0.021-0.022,0.029-0.036c0.037-0.063,0.022-0.149-0.029-0.229l0,0c-0.033-0.051-0.082-0.101-0.144-0.139
			c-0.134-0.085-0.282-0.093-0.359-0.027c-0.013,0.011-0.024,0.023-0.033,0.038C17.955,50.801,17.968,50.883,18.015,50.96
			L18.015,50.96z"/>
		<g>
			<polygon fill="#664F44" points="23.22,52.88 23.22,52.879 23.22,52.877 23.212,52.89 23.215,52.887 			"/>
			<path fill="#664F44" d="M23.057,55.79l-0.007,0.007c-0.191,0.182-0.415,0.358-0.661,0.527c-1.08,0.737-2.59,1.308-3.659,1.452
				l-0.004,0.001l-0.004,0.001c-0.804,0.128-1.592,0.15-2.279,0.065c-0.395-0.049-0.75-0.135-1.044-0.247
				c-0.325-0.124-0.575-0.28-0.719-0.457c-0.215-0.263-0.288-0.572-0.27-0.853c0.01-0.151,0.046-0.294,0.1-0.417
				c0.009-0.021,0.019-0.042,0.029-0.061c0.071-0.138,0.277-0.457,0.654-0.431c0.014,0.001,0.039,0.004,0.074,0.008
				c0.036,0.004,0.079,0.01,0.128,0.017c0.068,0.009,0.148,0.02,0.239,0.031c0.011,0.001,0.021,0.002,0.031,0.004
				c1.036,0.126,2.032,0.113,2.979-0.033c1.374-0.211,2.643-0.701,3.771-1.464c0.06-0.04,0.119-0.081,0.177-0.123l0.618-0.925
				c-1.876,1.69-3.941,2.183-5.51,2.279c-0.863,0.053-1.577-0.014-2.025-0.07c-0.016-0.002-0.03-0.004-0.045-0.006
				c-0.135-0.017-0.244-0.033-0.322-0.042c-0.039-0.005-0.071-0.008-0.094-0.01c-0.118-0.008-0.229,0.007-0.334,0.039
				c-0.214,0.067-0.396,0.211-0.533,0.402c-0.17,0.235-0.269,0.542-0.274,0.862c-0.003,0.264,0.058,0.536,0.2,0.786
				c0.005,0.01,0.011,0.021,0.017,0.031c0.016,0.027,0.034,0.054,0.053,0.081c0.025,0.036,0.051,0.072,0.08,0.107
				c0.329,0.406,1.036,0.707,1.979,0.824c0.638,0.08,1.386,0.073,2.196-0.042c2.388-0.431,3.524-1.203,4.047-1.745
				c0.038-0.04,0.074-0.078,0.106-0.115c0.188-0.217,0.273-0.383,0.304-0.456l0.004-0.01c0.008-0.019,0.011-0.028,0.011-0.029
				L23.057,55.79z"/>
		</g>
		<path fill="#E9B784" d="M15.457,47.508c-0.075-0.041-0.158-0.07-0.24-0.091c-0.055-0.013-0.11-0.023-0.165-0.03
			c-0.021-0.002-0.041-0.004-0.061-0.006c-0.279-0.024-0.521,0.023-0.521,0.023c-0.052,0.012-0.101,0.025-0.15,0.04
			c-0.38,0.115-0.644,0.313-0.829,0.541c-0.15,0.185-0.247,0.389-0.309,0.587c-0.005,0.018-0.01,0.035-0.015,0.052
			c-0.014,0.051-0.027,0.101-0.038,0.151c-0.035,0.166-0.048,0.319-0.053,0.441c-0.005,0.166,0.008,0.272,0.008,0.272
			c0.066-0.145,0.135-0.278,0.206-0.402c0.177-0.308,0.369-0.556,0.562-0.756c0.378-0.389,0.762-0.593,1.06-0.701
			C15.237,47.512,15.457,47.508,15.457,47.508z"/>
		<path fill="#E9B784" d="M19.993,46.967l-0.013-0.017c-0.043-0.054-0.094-0.104-0.155-0.145c-0.144-0.099-0.343-0.151-0.619-0.094
			c0,0-0.328,0.077-0.519,0.291c0,0,0.571-0.244,1.175,0.186c0.055,0.039,0.11,0.084,0.165,0.136
			c0.056,0.052,0.112,0.11,0.168,0.176c0,0-0.024-0.263-0.174-0.49C20.014,46.994,20.004,46.981,19.993,46.967z"/>
		<path fill="#664F44" d="M15.526,51.146c0.218-0.068,0.456-0.13,0.71-0.188c0.044-0.198,0.055-0.442,0.024-0.704
			c-0.072-0.613-0.349-1.082-0.617-1.049c-0.269,0.033-0.427,0.556-0.354,1.169C15.324,50.684,15.413,50.956,15.526,51.146z"/>
		<path fill="#FFD250" d="M14.281,37.437l-0.563,0.127l0.118,1.033l-1.5-0.763l-0.617,0.184l0.01,0.011l1.822,2.077l0.018-0.011
			l0.024-0.014c0.057-0.036,0.113-0.072,0.171-0.108c0.02-0.013,0.04-0.025,0.06-0.038c0.083-0.051,0.165-0.1,0.249-0.15
			l-0.774-0.887l1.253,0.613l0.005-0.002c0.038-0.021,0.075-0.042,0.113-0.062l-0.115-0.894l0.568,0.657l0.007-0.004
			c0.048-0.024,0.095-0.047,0.142-0.071l0.014-0.007l0.023-0.011c0.008-0.004,0.016-0.008,0.024-0.012
			c0.02-0.01,0.041-0.021,0.06-0.03c0.004-0.002,0.008-0.004,0.012-0.006c0.068-0.033,0.133-0.063,0.2-0.095L14.281,37.437z"/>
		<path fill="#4D9ED7" d="M13.722,37.597l-0.004-0.033L13.722,37.597z"/>
		<path fill="#4D9ED7" d="M13.718,37.565l0.083-0.019c-0.138-0.064-0.302-0.11-0.491-0.133c-0.38-0.048-0.861-0.004-1.41,0.138
			c-0.549,0.141-1.165,0.378-1.817,0.703c-1.306,0.65-2.759,1.651-4.158,2.927c-0.488,0.445-0.943,0.9-1.361,1.356l1.699,2.081
			c0.459-0.506,0.96-1.01,1.499-1.502c0.721-0.658,1.457-1.244,2.184-1.754c0.705-0.494,1.401-0.912,2.071-1.252l-0.295-1.329
			l0.008-0.753l-0.01-0.011l0.617-0.184l1.206,0.617l-0.034-0.42L13.718,37.565z"/>
		<polygon fill="#132134" points="13.718,37.565 13.508,38.03 13.542,38.45 13.837,38.596 		"/>
		<polygon fill="#132134" points="13.297,38.898 14.549,39.51 14.071,39.784 		"/>
		<polygon fill="#132134" points="14.551,38.551 14.667,39.446 15.12,39.208 		"/>
		<path fill="#FFFFFF" d="M19.291,38.221c0.077-0.003,0.153-0.004,0.227-0.002c0.211,0.004,0.409,0.029,0.596,0.076
			c0.01,0.002,0.021,0.004,0.031,0.007l0.002,0.001l0.007,0.002l0.019,0.005l0.017,0.005c-0.022-0.014-0.045-0.028-0.068-0.042
			c-0.211-0.081-0.433-0.133-0.663-0.163c-1.137-0.146-2.431,0.267-3.172,0.562c-0.04,0.017-0.081,0.034-0.123,0.051
			c-0.062,0.027-0.125,0.054-0.188,0.081c-0.107,0.047-0.215,0.096-0.325,0.148c-0.016,0.007-0.032,0.015-0.048,0.022
			c-0.066,0.031-0.132,0.062-0.2,0.095c-0.004,0.002-0.008,0.004-0.012,0.006c-0.02,0.01-0.04,0.02-0.06,0.03
			c-0.008,0.004-0.016,0.008-0.024,0.012l-0.023,0.011l-0.014,0.007c-0.047,0.024-0.094,0.046-0.142,0.071l-0.007,0.004
			c-0.001,0.001-0.003,0.002-0.004,0.002c-0.012,0.006-0.023,0.011-0.035,0.017l-0.006,0.003c-0.009,0.004-0.017,0.009-0.026,0.014
			c-0.074,0.037-0.147,0.076-0.22,0.115c-0.051,0.027-0.102,0.054-0.153,0.082l-0.008,0.004c-0.037,0.021-0.075,0.041-0.113,0.062
			l-0.005,0.002c-0.123,0.068-0.244,0.137-0.366,0.208c-0.013,0.007-0.025,0.014-0.038,0.022c-0.011,0.007-0.022,0.013-0.033,0.019
			c-0.01,0.006-0.02,0.012-0.03,0.018l-0.013,0.008c-0.083,0.049-0.166,0.099-0.249,0.15c-0.02,0.013-0.04,0.025-0.06,0.038
			c-0.057,0.036-0.114,0.072-0.171,0.108l-0.024,0.014l-0.018,0.011c-0.158,0.101-0.314,0.205-0.471,0.311
			c-0.257,0.175-0.512,0.356-0.763,0.543c-0.033,0.024-0.065,0.049-0.098,0.074c-0.658,0.495-1.293,1.027-1.902,1.578
			c-0.643,0.583-1.255,1.188-1.833,1.797c-0.313,0.314-0.582,0.595-0.802,0.832c-0.441,0.474-0.681,0.768-0.671,0.774
			c0.004,0.004,0.043-0.031,0.112-0.1c-0.057,0.066-0.114,0.132-0.17,0.198c0.96-1.024,2.025-2.072,3.169-3.06
			c0.695-0.599,1.418-1.177,2.165-1.712l0,0c0.327-0.235,0.659-0.461,0.995-0.678c0.107-0.069,0.215-0.138,0.324-0.206
			c0.054-0.034,0.109-0.066,0.163-0.1c0.031-0.019,0.061-0.037,0.092-0.056c0.058-0.035,0.116-0.069,0.174-0.104
			c0.057-0.034,0.114-0.067,0.171-0.1c0.03-0.017,0.06-0.034,0.09-0.051c0.072-0.042,0.145-0.082,0.218-0.123
			c0.043-0.024,0.088-0.048,0.131-0.072h0.001c0.138-0.075,0.276-0.148,0.415-0.218c0.011-0.006,0.023-0.011,0.035-0.018
			c0.022-0.011,0.043-0.022,0.065-0.033c0.029-0.014,0.057-0.03,0.086-0.044c0.011-0.005,0.022-0.011,0.033-0.016l0.005-0.002
			c0.02-0.01,0.039-0.019,0.059-0.028c0.004-0.002,0.008-0.004,0.012-0.006l0.007-0.004c0.061-0.03,0.121-0.059,0.181-0.088
			c0.011-0.005,0.022-0.011,0.033-0.016c0.019-0.01,0.039-0.018,0.058-0.027c0.069-0.033,0.139-0.066,0.208-0.097
			c0.019-0.008,0.038-0.018,0.057-0.027c0.01-0.004,0.019-0.009,0.03-0.013c0.019-0.008,0.039-0.017,0.059-0.026
			c0.08-0.036,0.161-0.072,0.239-0.106c0.072-0.031,0.141-0.06,0.211-0.089c0.395-0.167,0.768-0.306,1.113-0.418
			C18.214,38.359,18.788,38.242,19.291,38.221z"/>
	</g>
	<g>
		<g>
			<path fill="#010101" d="M45.197,49.708v-0.001V49.708z"/>
			<path fill="#010101" d="M95.643,54.281h0.025c1.518,0,2.587-1.052,2.599-2.558c0.005-0.746-0.21-1.428-0.607-1.922
				c-0.42-0.522-1.007-0.801-1.7-0.806h-0.014c-0.934,0-1.801,0.708-2.651,2.167l-0.068,0.116l-0.044-0.127
				c-0.215-0.625-0.406-1.145-0.52-1.457c-0.08-0.217-0.115-0.314-0.124-0.347c-0.041-0.157-0.176-0.256-0.352-0.256
				c-0.109,0-0.224,0.037-0.333,0.107c-0.108,0.069-0.169,0.153-0.191,0.265l-0.005,0.017c-0.851,2.653-1.553,3.942-2.147,3.942
				c-0.086-0.001-0.154-0.029-0.204-0.085c-0.156-0.172-0.117-0.582-0.065-1.147c0.039-0.416,0.083-0.888,0.065-1.387
				c-0.036-0.961-0.561-1.538-1.406-1.545c-1.074,0-1.771,1.144-2.092,1.826l-0.095,0.203l-0.021-0.224
				c-0.08-0.844-0.364-1.853-1.258-1.859c-1.044,0-1.838,1.224-2.323,2.252l-0.13,0.276l0.013-0.304
				c0.058-1.371,0.105-2.18,0.14-2.404c0.036-0.225,0.017-0.376-0.057-0.463c-0.069-0.081-0.201-0.111-0.394-0.099
				c-0.334,0.021-0.505,0.224-0.762,0.905c-0.422,1.119-1.496,3.722-2.355,3.722c-0.17-0.001-0.305-0.06-0.403-0.172
				c-0.359-0.413-0.216-1.527-0.017-3.07l0.015-0.116c0.094-0.73-0.067-0.887-0.463-0.96c-0.043-0.007-0.083-0.012-0.121-0.012
				c-0.316,0-0.465,0.304-0.761,1.146c-0.527,1.501-1.204,3.079-1.996,3.079c-0.029,0-0.058-0.002-0.087-0.007
				c-0.42-0.071-0.411-0.694-0.399-1.483c0.006-0.427,0.014-0.91-0.052-1.347c-0.118-0.784-0.58-1.272-1.205-1.277
				c-1.247,0-2.089,1.597-2.479,2.55l-0.089,0.216l-0.029-0.232c-0.052-0.413-0.122-1.067-0.152-1.841l-0.001-0.023l0.015-0.018
				c2.334-2.938,3.381-5.058,3.395-6.874c0.009-1.16-0.526-1.858-1.433-1.864c-0.662,0-2.237,0.551-2.784,5.661
				c-0.102,0.947-0.157,1.919-0.166,2.887v0.019l-0.01,0.016c-1.068,1.546-3.347,4.204-5.578,4.204c-2.016,0-3.625-1.631-3.625-4.51
				c0-3.86,2.732-6.229,4.788-6.229h0.017c0.446,0.003,0.83,0.128,1.108,0.36c0.289,0.241,0.44,0.581,0.437,0.979
				c-0.004,0.533-0.177,0.807-0.346,1.071c-0.043,0.068-0.086,0.136-0.126,0.207c-0.04,0.072-0.075,0.177-0.023,0.267
				c0.054,0.092,0.192,0.15,0.36,0.151c0.489,0,1.229-0.708,1.238-1.776c0.008-1.117-0.933-2.268-2.611-2.268
				c-2.54,0-5.962,2.791-5.962,7.315c0,3.199,2.006,5.412,4.724,5.412c1.928,0,3.837-1.381,5.526-3.688l0.104-0.139l0.007,0.174
				c0.036,0.844,0.097,1.509,0.141,1.995c0.029,0.312,0.05,0.538,0.049,0.662c-0.002,0.272,0.042,0.462,0.136,0.578
				s0.243,0.171,0.469,0.173c0.379,0,0.456-0.259,0.606-0.897l0.043-0.182c0.187-0.773,0.876-3.297,1.914-3.297
				c0.17,0.001,0.3,0.051,0.393,0.15c0.229,0.243,0.204,0.742,0.175,1.319c-0.018,0.36-0.037,0.733-0.001,1.095
				c0.097,0.979,0.521,1.458,1.292,1.463c0.792,0,1.62-0.853,2.056-1.647l0.083-0.15l0.032,0.168
				c0.081,0.424,0.441,1.818,1.569,1.818c1.023,0,1.9-1.076,2.861-3.293l0.126-0.289l-0.007,0.315
				c-0.021,0.839-0.066,1.865-0.066,2.658c0,0.613,0.062,0.848,0.345,0.848c0.02,0,0.042,0.003,0.064,0.003
				c0.272,0,0.457-0.162,0.549-0.483c0.723-2.521,1.349-3.696,1.968-3.696c0.607,0.004,0.663,1.114,0.713,3.074l0.003,0.137
				c0.015,0.685,0.04,0.989,0.465,0.992c0.323,0,0.403-0.254,0.57-0.879c0.031-0.119,0.067-0.249,0.108-0.391
				c0.584-2.027,1.069-2.854,1.671-2.854c0.517,0.004,0.545,0.537,0.554,0.711c0.02,0.374-0.019,0.766-0.056,1.145
				c-0.035,0.352-0.07,0.716-0.057,1.054c0.031,0.792,0.465,1.232,1.222,1.239c0.982,0,1.868-1.149,2.645-3.413l0.053-0.158
				l0.062,0.155c0.14,0.356,0.324,0.837,0.495,1.413l0.006,0.022l-0.009,0.021c-0.751,1.669-1.282,3.528-1.289,4.522
				c-0.01,1.308,0.582,2.159,1.508,2.166h0.016c0.504,0,1.679-0.202,1.701-2.075c0.009-0.767-0.172-1.852-0.539-3.226l-0.042-0.157
				l0.135,0.09C94.585,54.11,95.112,54.277,95.643,54.281z M70.333,47.932c0.021-0.469,0.061-0.926,0.116-1.358
				c0.364-2.783,1.122-4.727,1.845-4.727h0.003c0.345,0.002,0.518,0.263,0.513,0.774c-0.009,1.256-0.806,3.056-2.366,5.348
				l-0.122,0.179L70.333,47.932z M93.398,57.939c-0.115,0.153-0.276,0.231-0.476,0.231c-0.231-0.002-0.403-0.082-0.522-0.24
				c-0.33-0.441-0.237-1.478,0.302-3.36c0.064-0.224,0.134-0.451,0.207-0.672l0.063-0.188l0.054,0.19
				C93.655,56.073,93.779,57.431,93.398,57.939z M93.593,52.374l-0.012-0.021l-0.023-0.072l0.01-0.022
				c0.716-1.474,1.535-2.319,2.249-2.319h0.007c0.806,0.006,1.362,0.731,1.355,1.763c-0.005,0.688-0.309,1.085-0.562,1.295
				c-0.289,0.241-0.674,0.379-1.056,0.379C94.619,53.369,93.971,52.827,93.593,52.374z"/>
			<path fill="#010101" d="M95.818,50.002L95.818,50.002L95.818,50.002z"/>
			<path fill="#010101" d="M47.961,54.038c1.105-0.089,1.981-1.591,2.305-2.232l0.084-0.166l0.031,0.182
				c0.156,0.902,0.647,2.419,2.183,2.431h0.013c0.664,0,1.418-0.407,2.18-1.175l0.056-0.057l0.041,0.068
				c0.512,0.857,1.201,1.313,1.932,1.276c1.078-0.056,1.732-0.821,1.79-1.351c0.015-0.135-0.021-0.262-0.099-0.349
				c-0.097-0.108-0.238-0.121-0.342-0.022l-0.049,0.047c-0.252,0.241-0.719,0.691-1.228,0.717c-0.624,0.03-1.086-0.343-1.383-1.112
				l-0.013-0.032l0.021-0.027c1.715-2.244,2.92-5.668,2.801-7.964c-0.054-1.063-0.364-2.33-1.525-2.33
				c-0.028,0-0.058,0.001-0.087,0.002c-0.444,0.023-0.849,0.235-1.202,0.63c-1.077,1.205-1.641,4.171-1.436,7.556
				c0.043,0.703,0.165,1.36,0.363,1.953l0.012,0.034l-0.02,0.025c-0.636,0.744-1.265,1.154-1.769,1.154
				c-1.212,0-1.172-2.033-1.076-3.719c0.021-0.364,0.051-0.595-0.057-0.727c-0.077-0.094-0.205-0.14-0.393-0.143h-0.022
				c-0.432,0-0.522,0.089-0.743,0.729C49.871,50.768,48.963,53,48.052,53c-0.253-0.002-0.445-0.089-0.577-0.257
				c-0.442-0.565-0.107-1.973,0.163-3.105c0.048-0.203,0.095-0.399,0.135-0.58c0.059-0.268,0.041-0.464-0.053-0.583
				c-0.095-0.118-0.285-0.166-0.535-0.146c-0.391,0.031-0.64,0.195-0.761,0.938l-0.024,0.154l-0.091-0.11
				c-0.171-0.252-0.503-0.552-1.12-0.552c-0.054,0-0.11,0.002-0.168,0.007c-0.659,0.054-1.409,0.513-1.959,1.198
				c-0.641,0.8-0.947,1.812-0.862,2.85c0.004,0.054,0.013,0.108,0.021,0.16l0.004,0.029l-0.02,0.022
				c-0.384,0.418-0.774,0.63-1.161,0.63c-0.597-0.004-0.94-0.449-0.94-1.188c0-1.245,0.844-5,0.844-6.358
				c0-1.446-0.644-2.234-1.764-2.243h-0.017c-1.634,0-2.908,1.854-4.127,5.669c-0.112,0.349-0.233,0.752-0.337,1.101l-0.171,0.573
				l0.05-0.596c0.113-1.329,0.191-2.622,0.232-3.843c0.061-1.843-0.189-3.031-0.762-3.627c-0.309-0.322-0.719-0.481-1.251-0.485
				h-0.015c-1.999,0-2.957,3.372-3.655,5.752c-0.211,0.719-0.626,2.339-0.902,3.447l0.165-0.267
				c0.123-1.395,0.479-4.889,0.456-6.784c-0.025-2.033-0.702-2.945-2.195-2.956h-0.019c-0.797,0-1.351,0.396-1.675,0.729
				c-0.52,0.533-0.844,1.314-0.826,1.988c0.01,0.41,0.262,0.774,0.453,0.774c0.124,0,0.193-0.166,0.222-0.264
				c0.462-1.528,1.059-2.27,1.828-2.27c0.319,0.002,0.555,0.096,0.733,0.287c0.599,0.643,0.49,2.38,0.292,5.533
				c-0.064,1.017-0.136,2.167-0.197,3.477c-0.01,0.224-0.024,0.441-0.038,0.648c-0.059,0.91-0.105,1.628,0.24,1.682
				c0.449,0.07,0.741-0.112,0.891-0.556c0.222-0.659,0.719-2.461,1.681-5.753c0.923-3.16,1.62-4.309,2.513-4.309
				c1.031,0,1.108,1.77,0.919,5.505c-0.04,0.791-0.094,1.688-0.135,2.665c-0.006,0.137-0.013,0.27-0.019,0.398
				c-0.04,0.808-0.071,1.446,0.16,1.69c0.072,0.076,0.17,0.114,0.3,0.114c0.446,0,0.582-0.392,0.804-1.042
				c0.04-0.114,0.081-0.237,0.128-0.365c1.531-4.224,2.664-7.889,4.183-7.889c0.456,0,0.81,0.37,0.81,1.092
				c0,1.666-0.815,4.888-0.815,6.52c0,0.585,0.169,1.11,0.486,1.48c0.327,0.378,0.783,0.581,1.321,0.585h0.012
				c0.508,0,1.039-0.247,1.575-0.735l0.05-0.046l0.041,0.054c0.353,0.475,0.923,0.73,1.539,0.683
				c0.944-0.073,1.736-0.915,2.032-1.707l0.058-0.155l0.058,0.155C46.475,53.41,46.949,54.12,47.961,54.038z M56.665,43h0.017
				c0.108,0,0.202,0.054,0.282,0.161c0.375,0.507,0.38,2.358-0.264,4.463c-0.369,1.203-0.865,2.34-1.434,3.287l-0.091,0.151
				l-0.023-0.175c-0.067-0.509-0.1-1.04-0.124-1.49C54.863,46.214,55.826,43.044,56.665,43z M46.185,50.438
				c-0.33,1.33-0.964,2.935-2.107,3.027c-0.032,0.002-0.063,0.004-0.093,0.004c-0.474,0-0.74-0.31-0.79-0.923
				c-0.063-0.766,0.267-1.663,0.841-2.287c0.366-0.397,0.778-0.615,1.16-0.615h0.007c0.483,0.003,0.822,0.392,0.978,0.753
				l0.008,0.019L46.185,50.438z"/>
			<path fill="#010101" d="M72.295,41.909L72.295,41.909L72.295,41.909z"/>
			<path fill="#010101" d="M51.486,45.562c-0.422,0-0.763,0.332-0.766,0.741c-0.003,0.412,0.335,0.749,0.755,0.752l0.006,0.061l0,0
				v-0.061c0.416,0,0.757-0.332,0.76-0.741C52.243,45.904,51.905,45.566,51.486,45.562z"/>
			<path fill="#010101" d="M78.01,45.562c-0.422,0-0.763,0.332-0.766,0.741c-0.003,0.412,0.335,0.749,0.755,0.752l0.006,0.061l0,0
				v-0.061c0.416,0,0.757-0.332,0.76-0.741C78.768,45.904,78.429,45.566,78.01,45.562z"/>
		</g>
		<g>
			<path fill="#020202" d="M98.666,53.438c-0.285,0-0.518,0.233-0.518,0.519c0,0.285,0.233,0.518,0.518,0.518
				c0.286,0,0.519-0.233,0.519-0.518C99.184,53.671,98.951,53.438,98.666,53.438z M98.666,54.399c-0.245,0-0.443-0.197-0.443-0.442
				c0-0.245,0.198-0.443,0.443-0.443c0.245,0,0.443,0.198,0.443,0.443C99.108,54.202,98.911,54.399,98.666,54.399z"/>
			<path fill="#020202" d="M98.895,53.822c0-0.107-0.052-0.166-0.188-0.166h-0.229v0.597h0.075v-0.261h0.107l0.178,0.261h0.085
				l-0.178-0.261C98.826,53.978,98.895,53.932,98.895,53.822z M98.649,53.925h-0.096v-0.202h0.133c0.064,0,0.134,0.022,0.134,0.099
				C98.82,53.92,98.731,53.925,98.649,53.925z"/>
		</g>
	</g>
</g>
<g>
	<path fill="#020202" d="M23.691,59.592c-0.285,0-0.518,0.233-0.518,0.519c0,0.285,0.233,0.518,0.518,0.518
		c0.286,0,0.519-0.233,0.519-0.518C24.208,59.825,23.976,59.592,23.691,59.592z M23.691,60.553c-0.245,0-0.443-0.197-0.443-0.442
		c0-0.245,0.198-0.443,0.443-0.443c0.245,0,0.443,0.198,0.443,0.443C24.133,60.356,23.936,60.553,23.691,60.553z"/>
	<path fill="#020202" d="M23.92,59.976c0-0.107-0.052-0.166-0.188-0.166h-0.229v0.597h0.075v-0.261h0.107l0.178,0.261h0.085
		l-0.178-0.261C23.851,60.132,23.92,60.086,23.92,59.976z M23.674,60.078h-0.096v-0.202h0.133c0.064,0,0.134,0.022,0.134,0.099
		C23.845,60.074,23.756,60.078,23.674,60.078z"/>
</g>
</svg>
