<?xml version="1.0" encoding="utf-8"?>
<!-- Generator: Adobe Illustrator 17.0.0, SVG Export Plug-In . SVG Version: 6.00 Build 0)  -->
<!DOCTYPE svg PUBLIC "-//W3C//DTD SVG 1.1//EN" "http://www.w3.org/Graphics/SVG/1.1/DTD/svg11.dtd">
<svg version="1.1" id="Layer_1" xmlns="http://www.w3.org/2000/svg" xmlns:xlink="http://www.w3.org/1999/xlink" x="0px" y="0px"
	 width="100px" height="100px" viewBox="0 0 100 100" enable-background="new 0 0 100 100" xml:space="preserve">
<g>
	<path fill="#231F20" d="M22.953,70.059h-2.481v-1.328h2.122c0.328,0,0.587-0.091,0.587-0.48s-0.259-0.48-0.587-0.48h-2.122v-1.191
		h2.419c0.366,0,0.633-0.107,0.633-0.504c0-0.397-0.267-0.504-0.633-0.504h-2.938c-0.443,0-0.733,0.176-0.733,0.733v4.029
		c0,0.557,0.289,0.733,0.733,0.733h2.999c0.366,0,0.633-0.108,0.633-0.504C23.586,70.166,23.318,70.059,22.953,70.059z"/>
	<path fill="#231F20" d="M30.163,70.014h-2.091v-3.915c0-0.374-0.244-0.626-0.625-0.626c-0.382,0-0.626,0.252-0.626,0.626v4.235
		c0,0.557,0.29,0.733,0.733,0.733h2.609c0.359,0,0.649-0.184,0.649-0.527C30.812,70.197,30.522,70.014,30.163,70.014z"/>
	<path fill="#231F20" d="M37.649,70.059h-2.48v-1.328h2.122c0.328,0,0.587-0.091,0.587-0.48s-0.259-0.48-0.587-0.48h-2.122v-1.191
		h2.419c0.366,0,0.633-0.107,0.633-0.504c0-0.397-0.267-0.504-0.633-0.504H34.65c-0.443,0-0.733,0.176-0.733,0.733v4.029
		c0,0.557,0.289,0.733,0.733,0.733h2.999c0.366,0,0.633-0.108,0.633-0.504C38.283,70.166,38.015,70.059,37.649,70.059z"/>
	<path fill="#231F20" d="M44.028,66.45c1.145,0,0.931,0.992,1.655,0.992c0.374,0,0.565-0.213,0.565-0.565
		c0-0.534-0.786-1.434-2.22-1.434c-1.77,0-2.687,1.328-2.687,2.877c0,1.893,1.015,2.878,2.733,2.878c1.213,0,2.174-0.786,2.174-1.58
		c0-0.306-0.305-0.48-0.61-0.48c-0.603,0-0.58,1.052-1.564,1.052c-1.084,0-1.48-0.869-1.48-1.869
		C42.594,67.129,43.242,66.45,44.028,66.45z"/>
	<path fill="#231F20" d="M53.208,65.572h-3.617c-0.359,0-0.648,0.184-0.648,0.527c0,0.344,0.289,0.527,0.648,0.527h1.183v3.915
		c0,0.374,0.244,0.626,0.625,0.626c0.382,0,0.626-0.252,0.626-0.626v-3.915h1.183c0.359,0,0.648-0.183,0.648-0.527
		C53.856,65.756,53.567,65.572,53.208,65.572z"/>
	<path fill="#231F20" d="M61.633,67.099c0-0.71-0.397-1.527-1.885-1.527h-2.083c-0.443,0-0.733,0.176-0.733,0.733v4.235
		c0,0.374,0.244,0.626,0.625,0.626c0.382,0,0.626-0.252,0.626-0.626v-1.61h1.236c0.686,0,0.862,0.389,0.862,1.351
		c0,0.221,0.053,0.885,0.74,0.885c0.29,0,0.588-0.199,0.588-0.489c0-0.258-0.168-0.496-0.168-1.129c0-0.557-0.115-1.022-0.756-1.114
		v-0.016C61.281,68.282,61.633,67.694,61.633,67.099z M59.435,68.014h-1.251v-1.48h1.289c0.55,0,0.908,0.153,0.908,0.74
		C60.38,67.892,59.908,68.014,59.435,68.014z"/>
	<path fill="#231F20" d="M67.523,65.443c-1.801,0-2.777,1.197-2.777,2.808c0,1.663,0.809,2.945,2.777,2.945
		c1.878,0,2.778-1.396,2.778-2.945C70.301,66.64,69.324,65.443,67.523,65.443z M67.523,70.189c-1.175,0-1.527-0.885-1.527-1.938
		c0-1.053,0.505-1.801,1.527-1.801c1.023,0,1.527,0.748,1.527,1.801C69.05,69.304,68.66,70.189,67.523,70.189z"/>
	<path fill="#231F20" d="M77.818,65.473c-0.374,0-0.603,0.198-0.603,0.603v3.258H77.2l-2.19-3.534
		c-0.138-0.228-0.367-0.328-0.626-0.328c-0.534,0-0.786,0.214-0.786,0.733v4.357c0,0.404,0.229,0.603,0.603,0.603
		s0.603-0.199,0.603-0.603v-3.167h0.015l2.175,3.434c0.16,0.251,0.289,0.336,0.686,0.336c0.527,0,0.741-0.282,0.741-0.778v-4.312
		C78.421,65.671,78.192,65.473,77.818,65.473z"/>
	<path fill="#231F20" d="M82.587,65.473c-0.382,0-0.626,0.252-0.626,0.626v4.441c0,0.374,0.244,0.625,0.626,0.625
		c0.381,0,0.625-0.251,0.625-0.625v-4.441C83.212,65.725,82.968,65.473,82.587,65.473z"/>
	<path fill="#231F20" d="M89.286,66.45c1.145,0,0.931,0.992,1.656,0.992c0.374,0,0.565-0.213,0.565-0.565
		c0-0.534-0.786-1.434-2.221-1.434c-1.77,0-2.686,1.328-2.686,2.877c0,1.893,1.015,2.878,2.732,2.878
		c1.213,0,2.175-0.786,2.175-1.58c0-0.306-0.306-0.48-0.611-0.48c-0.603,0-0.58,1.052-1.564,1.052c-1.083,0-1.48-0.869-1.48-1.869
		C87.852,67.129,88.5,66.45,89.286,66.45z"/>
	<path fill="#231F20" d="M97.566,67.885l-1.045-0.236c-0.397-0.091-0.855-0.214-0.855-0.596c0-0.381,0.321-0.648,0.901-0.648
		c1.168,0,1.061,0.816,1.64,0.816c0.306,0,0.573-0.183,0.573-0.496c0-0.733-1.152-1.282-2.129-1.282c-1.061,0-2.19,0.458-2.19,1.68
		c0,0.587,0.206,1.213,1.343,1.503l1.412,0.359c0.427,0.107,0.534,0.352,0.534,0.573c0,0.366-0.359,0.725-1.007,0.725
		c-1.266,0-1.091-0.992-1.77-0.992c-0.306,0-0.527,0.214-0.527,0.519c0,0.595,0.71,1.389,2.297,1.389
		c1.511,0,2.258-0.74,2.258-1.732C99,68.823,98.711,68.144,97.566,67.885z"/>
	<path fill="#231F20" d="M7.843,55.787c-1.738-0.411-3.5-0.565-3.5-1.67c0-0.935,1.022-1.045,1.718-1.045
		c1.108,0,2.019,0.328,2.109,1.523h2.932c-0.24-2.76-2.52-3.584-4.955-3.584c-2.411,0-4.886,0.738-4.886,3.606
		c0,1.997,1.759,2.584,3.562,2.998c2.194,0.454,3.498,0.803,3.498,1.738c0,1.085-1.152,1.432-2.02,1.432
		c-1.194,0-2.369-0.566-2.369-1.891H1c0.109,2.978,2.672,3.954,5.277,3.954c2.542,0,5.128-0.955,5.128-3.91
		C11.405,56.853,9.644,56.201,7.843,55.787z"/>
	<path fill="#231F20" d="M18.958,51.01c-1.39,0-2.584,0.52-3.345,1.737H15.57v-1.433l-2.934,0.523v14.661l3.085,2.744v-8.086h0.045
		c0.759,1.106,1.996,1.693,3.366,1.693c3.302,0,4.931-2.801,4.931-5.8C24.063,53.855,22.477,51.01,18.958,51.01z M18.307,60.522
		c-2.001,0-2.694-1.737-2.694-3.561c0-1.823,0.651-3.627,2.672-3.627c1.976,0,2.692,1.825,2.692,3.627
		C20.977,58.785,20.327,60.522,18.307,60.522z"/>
	<path fill="#231F20" d="M35.509,60.047v-5.846c0-2.693-2.695-3.191-4.933-3.191c-2.52,0-5.105,0.891-5.279,3.758
		c0,0,3.086,0,3.086,0c0.109-1.216,0.847-1.697,2.042-1.697c1.084,0,1.998,0.219,1.998,1.523c0.129,2.519-7.43-0.217-7.472,4.886
		c0,2.305,1.671,3.368,3.821,3.368c1.392,0,2.804-0.368,3.779-1.389c0.024,0.367,0.112,0.738,0.221,1.086h3.126
		C35.617,62.088,35.509,61.067,35.509,60.047z M32.423,58.2c0,0.693-0.086,2.584-2.497,2.584c-1.001,0-1.893-0.304-1.893-1.433
		c0-1.129,0.87-1.478,1.826-1.65c0.956-0.175,2.041-0.196,2.563-0.653V58.2z"/>
	<path fill="#231F20" d="M43.381,53.877c0.37,0,0.825,0.045,1.109,0.108v-2.866c-0.217-0.063-0.435-0.109-0.675-0.109
		c-1.541,0-2.997,0.977-3.584,2.39h-0.042v-2.086l-2.933,0.524v10.707h3.085v-5.061C40.34,55.484,41.101,53.877,43.381,53.877z"/>
	<polygon fill="#231F20" points="56.304,51.313 52.655,51.313 48.766,55.355 48.766,47.034 45.682,48.726 45.682,62.544 
		48.766,62.544 48.766,58.678 49.961,57.525 53.044,62.544 56.78,62.544 52.067,55.443 	"/>
	<path fill="#231F20" d="M58.656,50.446v0.866h-0.94l-2.103,2.063h3.042v9.168h3.085v-9.168h2.128v-2.063h-2.128V50.64
		c0-0.935,0.327-1.282,1.175-1.282c0.367,0,0.759,0.021,1.128,0.066v-2.304c-0.52-0.021-1.086-0.086-1.628-0.086
		C59.896,47.034,58.656,48.446,58.656,50.446z"/>
	<path fill="#231F20" d="M75.272,62.544V51.313h-3.086V57.2c0,2.279-0.716,3.214-2.39,3.214c-1.453,0-1.975-0.912-1.975-2.759
		v-6.342h-3.086v6.909c0,2.78,0.825,4.625,4.105,4.625c1.305,0,2.652-0.587,3.432-1.868h0.065v1.565H75.272z"/>
	<path fill="#231F20" d="M87.51,62.544v-6.909c0-2.779-0.825-4.625-4.105-4.625c-1.306,0-2.651,0.587-3.432,1.867h-0.066v-1.564
		h-2.932v11.231h3.087v-5.886c0-2.282,0.715-3.216,2.387-3.216c1.453,0,1.977,0.913,1.977,2.76v6.342H87.51z"/>
	<path fill="#231F20" d="M88.538,60.96h0.422v1.398c0,0.134,0.087,0.224,0.223,0.224c0.137,0,0.224-0.09,0.224-0.224V60.96h0.422
		c0.129,0,0.232-0.065,0.232-0.188s-0.104-0.189-0.232-0.189h-1.292c-0.129,0-0.232,0.066-0.232,0.189S88.41,60.96,88.538,60.96z"/>
	<path fill="#231F20" d="M92.073,60.547h-0.125c-0.14,0-0.205,0.054-0.251,0.205l-0.384,1.259h-0.006l-0.39-1.259
		c-0.046-0.151-0.112-0.205-0.25-0.205h-0.132c-0.12,0-0.242,0.041-0.242,0.221v1.595c0,0.112,0.054,0.218,0.199,0.218
		c0.145,0,0.199-0.107,0.199-0.218v-1.216h0.006l0.417,1.304c0.03,0.092,0.097,0.131,0.191,0.131c0.092,0,0.16-0.038,0.19-0.131
		l0.417-1.304h0.006v1.216c0,0.112,0.054,0.218,0.199,0.218c0.144,0,0.199-0.107,0.199-0.218v-1.595
		C92.317,60.589,92.194,60.547,92.073,60.547z"/>
	<path fill="#EE2922" d="M63.03,32.037c0,0,0.285,1.211-0.628,1.379c-0.636,0.114-1.663-0.518-2.18-1.147
		c-0.637-0.777-0.557-1.388-0.061-1.93c0.745-0.823,2.018-0.505,2.018-0.505s-2.334-2.049-4.766-0.371
		c-2.166,1.492-1.544,3.523,0.409,5.296c1.763,1.604,0.357,3.361-1.419,3.132c-1.216-0.154-1.713-1.13-1.422-1.73
		c0.253-0.513,1.126-0.827,1.126-0.827s-1.003-0.408-2.184,0.037c-1.059,0.399-1.935,1.276-1.864,3.471v10.179
		c0,0,1.097-1.353,2.383-2.728c1.444-1.549,2.104-2.598,3.585-2.474c2.803,0.174,4.83-1.072,6.208-3.069
		C66.88,36.905,64.808,32.611,63.03,32.037z"/>
</g>
</svg>
